<?xml version="1.0" encoding="UTF-8"?>
<svg width="12px" height="12px" viewBox="0 0 12 12" version="1.1" xmlns="http://www.w3.org/2000/svg" xmlns:xlink="http://www.w3.org/1999/xlink">
    <title>&gt;&gt;icon  / light / icon_cross 12</title>
    <g id="&gt;&gt;icon--/-light-/-icon_cross-12" stroke="none" stroke-width="1" fill="none" fill-rule="evenodd">
        <path d="M3.67226186,3.07593528 L3.73161719,3.12552567 L6,5.394 L8.26838281,3.12552567 C8.43575036,2.95815811 8.70710678,2.95815811 8.87447433,3.12552567 C9.02324549,3.27429682 9.03977562,3.50523202 8.92406472,3.67226186 L8.87447433,3.73161719 L6.606,6 L8.87447433,8.26838281 C9.04184189,8.43575036 9.04184189,8.70710678 8.87447433,8.87447433 C8.72570318,9.02324549 8.49476798,9.03977562 8.32773814,8.92406472 L8.26838281,8.87447433 L6,6.606 L3.73161719,8.87447433 C3.56424964,9.04184189 3.29289322,9.04184189 3.12552567,8.87447433 C2.97675451,8.72570318 2.96022438,8.49476798 3.07593528,8.32773814 L3.12552567,8.26838281 L5.394,6 L3.12552567,3.73161719 C2.95815811,3.56424964 2.95815811,3.29289322 3.12552567,3.12552567 C3.25570043,2.9953509 3.44878204,2.96642318 3.6069154,3.03874249 L3.67226186,3.07593528 Z" id="Color" fill="#57565F"></path>
    </g>
</svg>