<?xml version="1.0" encoding="UTF-8"?>
<svg width="20px" height="20px" viewBox="0 0 20 20" version="1.1" xmlns="http://www.w3.org/2000/svg" xmlns:xlink="http://www.w3.org/1999/xlink">
    <title>&gt;&gt;icon  / icon_next</title>
    <g id="&gt;&gt;icon--/-icon_next" stroke="none" stroke-width="1" fill="none" fill-rule="evenodd">
        <path d="M6.14644661,7.14644661 C6.34170876,6.95118446 6.65829124,6.95118446 6.85355339,7.14644661 L6.85355339,7.14644661 L9.85355339,10.1464466 L9.91140884,10.2156945 C10.0464049,10.4105626 10.0271197,10.679987 9.85355339,10.8535534 L9.85355339,10.8535534 L6.85355339,13.8535534 L6.7843055,13.9114088 C6.58943736,14.0464049 6.32001296,14.0271197 6.14644661,13.8535534 L6.14644661,13.8535534 L6.08859116,13.7843055 C5.95359511,13.5894374 5.97288026,13.320013 6.14644661,13.1464466 L6.14644661,13.1464466 L8.793,10.5 L6.14644661,7.85355339 L6.08859116,7.7843055 C5.95359511,7.58943736 5.97288026,7.32001296 6.14644661,7.14644661 Z M10.1464466,7.14644661 C10.3417088,6.95118446 10.6582912,6.95118446 10.8535534,7.14644661 L10.8535534,7.14644661 L13.8535534,10.1464466 L13.9114088,10.2156945 C14.0464049,10.4105626 14.0271197,10.679987 13.8535534,10.8535534 L13.8535534,10.8535534 L10.8535534,13.8535534 L10.7843055,13.9114088 C10.5894374,14.0464049 10.320013,14.0271197 10.1464466,13.8535534 L10.1464466,13.8535534 L10.0885912,13.7843055 C9.95359511,13.5894374 9.97288026,13.320013 10.1464466,13.1464466 L10.1464466,13.1464466 L12.793,10.5 L10.1464466,7.85355339 L10.0885912,7.7843055 C9.95359511,7.58943736 9.97288026,7.32001296 10.1464466,7.14644661 Z" id="Color" fill="#57565F"></path>
    </g>
</svg>