<?xml version="1.0" encoding="UTF-8"?>
<svg width="20px" height="20px" viewBox="0 0 20 20" version="1.1" xmlns="http://www.w3.org/2000/svg" xmlns:xlink="http://www.w3.org/1999/xlink">
    <title>&gt;&gt;icon  / icon_prev</title>
    <g id="&gt;&gt;icon--/-icon_prev" stroke="none" stroke-width="1" fill="none" fill-rule="evenodd">
        <path d="M9.85355339,7.14644661 C10.0271197,7.32001296 10.0464049,7.58943736 9.91140884,7.7843055 L9.85355339,7.85355339 L7.207,10.5 L9.85355339,13.1464466 C10.0271197,13.320013 10.0464049,13.5894374 9.91140884,13.7843055 L9.85355339,13.8535534 C9.67998704,14.0271197 9.41056264,14.0464049 9.2156945,13.9114088 L9.14644661,13.8535534 L6.14644661,10.8535534 C5.97288026,10.679987 5.95359511,10.4105626 6.08859116,10.2156945 L6.14644661,10.1464466 L9.14644661,7.14644661 C9.34170876,6.95118446 9.65829124,6.95118446 9.85355339,7.14644661 Z M13.8535534,7.14644661 C14.0271197,7.32001296 14.0464049,7.58943736 13.9114088,7.7843055 L13.8535534,7.85355339 L11.207,10.5 L13.8535534,13.1464466 C14.0271197,13.320013 14.0464049,13.5894374 13.9114088,13.7843055 L13.8535534,13.8535534 C13.679987,14.0271197 13.4105626,14.0464049 13.2156945,13.9114088 L13.1464466,13.8535534 L10.1464466,10.8535534 C9.97288026,10.679987 9.95359511,10.4105626 10.0885912,10.2156945 L10.1464466,10.1464466 L13.1464466,7.14644661 C13.3417088,6.95118446 13.6582912,6.95118446 13.8535534,7.14644661 Z" id="Color" fill="#57565F"></path>
    </g>
</svg>