<?xml version="1.0" encoding="UTF-8"?>
<svg width="24px" height="24px" viewBox="0 0 24 24" version="1.1" xmlns="http://www.w3.org/2000/svg" xmlns:xlink="http://www.w3.org/1999/xlink">
    <!-- Generator: Sketch 63.1 (92452) - https://sketch.com -->
    <title>icon/icon_home_user  </title>
    <desc>Created with Sketch.</desc>
    <g id="icon/icon_home_user--" stroke="none" stroke-width="1" fill="none" fill-rule="evenodd">
        <path d="M12,0 C18.627417,0 24,5.372583 24,12 C24,16.0278698 22.0155261,19.5922409 18.9709641,21.7687275 L18.9704593,21.7690884 L18.918039,21.8063471 C18.8637746,21.8446988 18.8091778,21.8826114 18.7542537,21.9200798 L18.9704593,21.7690884 C18.8589677,21.8487824 18.7460547,21.9266154 18.6317657,22.0025419 C18.4562755,22.1191259 18.2775678,22.231199 18.095781,22.3386143 C18.0575212,22.3612206 18.0192938,22.3835234 17.9809327,22.4056201 C17.9183735,22.4416564 17.8553425,22.477209 17.7919612,22.512205 C17.7666115,22.5262017 17.7412361,22.540093 17.7158052,22.553895 C17.63198,22.5993889 17.5475893,22.6438941 17.4626114,22.6874156 C17.4425438,22.6976947 17.4218196,22.708234 17.4010609,22.7187147 C17.3048855,22.7672638 17.208716,22.8142037 17.1118365,22.8598854 C17.0859363,22.8720981 17.0600071,22.8842108 17.0340276,22.8962334 C16.9519574,22.9342141 16.8692677,22.9713462 16.7860877,23.0075632 C16.7587567,23.0194629 16.7314614,23.0312261 16.704114,23.0428906 C16.6415626,23.0695703 16.5788063,23.0957065 16.515783,23.1213225 C16.471245,23.1394273 16.4261205,23.1574501 16.380862,23.1752059 C16.293338,23.2095392 16.2057633,23.2427094 16.1177061,23.2748774 C16.1026084,23.2803927 16.0875014,23.2858768 16.0723803,23.2913313 C15.966314,23.3295316 15.8654589,23.3643338 15.7640051,23.3978193 C15.7199361,23.4123621 15.67633,23.4264738 15.6326153,23.4403419 C15.5664887,23.4613221 15.4997772,23.4818452 15.4328206,23.5017996 C15.3929502,23.5136807 15.3532935,23.5252739 15.3135523,23.5366673 C15.2436793,23.5567025 15.1730494,23.5762524 15.1021611,23.5951696 C15.0603271,23.6063325 15.0186205,23.6172196 14.9768261,23.6278873 C14.8710582,23.6548837 14.7647276,23.6804752 14.6578561,23.7046405 C14.641147,23.7084185 14.6245238,23.7121397 14.6078876,23.7158264 C14.5102583,23.7374621 14.4121313,23.7579185 14.3135727,23.7771684 C14.2877804,23.7822064 14.2617847,23.7871946 14.2357593,23.7920987 C14.1421348,23.8097402 14.0482253,23.8262781 13.9539461,23.8417172 C13.9259908,23.8462944 13.8983095,23.850727 13.8705968,23.8550648 C13.6520363,23.8892838 13.4310693,23.9176489 13.2083074,23.939922 L13.1558283,23.9450532 C13.1216411,23.9483204 13.087412,23.9514442 13.0531417,23.9544239 C12.9750194,23.9612125 12.8973053,23.9672104 12.8193873,23.9724646 C12.782651,23.9749436 12.745312,23.9772897 12.7079271,23.9794646 C12.6157793,23.984821 12.5239381,23.9891168 12.4318328,23.9923747 C12.4122409,23.9930673 12.3928561,23.9937063 12.3734598,23.9942992 C12.249758,23.9980856 12.1251026,24 12,24 C11.8748974,24 11.750242,23.9980856 11.6260614,23.9942846 L12,24 C11.8555181,24 11.7116325,23.9974466 11.568386,23.9923824 C11.4760619,23.9891168 11.3842207,23.984821 11.2926552,23.9794984 C11.254688,23.9772897 11.217349,23.9749436 11.1800567,23.9724271 C11.1026947,23.9672104 11.0249806,23.9612125 10.9474775,23.9544777 C10.912588,23.9514442 10.8783589,23.9483204 10.8441717,23.9450532 L10.7916926,23.939922 C10.5689307,23.9176489 10.3479637,23.8892838 10.1289607,23.8549955 C10.1016905,23.850727 10.0740092,23.8462944 10.0463597,23.8417672 C9.95177472,23.8262781 9.85786518,23.8097402 9.76433881,23.7921172 C9.73821531,23.7871946 9.71221959,23.7822064 9.68625383,23.7771345 C9.58786866,23.7579185 9.48974171,23.7374621 9.39206245,23.7158153 C9.37547621,23.7121397 9.35885304,23.7084185 9.34224294,23.7046629 C9.23527243,23.6804752 9.12894182,23.6548837 9.02317315,23.6278871 C8.98137951,23.6172196 8.93967286,23.6063325 8.89805526,23.5952273 C8.82695061,23.5762524 8.75632069,23.5567025 8.68595553,23.5365262 C8.64670651,23.5252739 8.60704978,23.5136807 8.56747865,23.5018888 C8.50022279,23.4818452 8.43351128,23.4613221 8.36705048,23.4402359 C8.32367005,23.4264738 8.28006385,23.4123621 8.23656771,23.3980084 C8.13454106,23.3643338 8.03368602,23.3295316 7.93345002,23.2934328 C7.91249859,23.2858768 7.89739162,23.2803927 7.88229883,23.2748792 C7.79423675,23.2427094 7.706662,23.2095392 7.6195835,23.1753806 C7.57387948,23.1574501 7.528755,23.1394273 7.48376652,23.1211394 C7.42119372,23.0957065 7.35843736,23.0695703 7.29595321,23.0429193 C7.2685386,23.0312261 7.24124331,23.0194629 7.2140006,23.0076016 C7.13073227,22.9713462 7.04804255,22.9342141 6.96585584,22.8961794 C6.93999288,22.8842108 6.91406366,22.8720981 6.8881851,22.8598956 C6.79128396,22.8142037 6.69511447,22.7672638 6.59967606,22.7190868 C6.57818036,22.708234 6.55745621,22.6976947 6.53676688,22.6870971 C6.45241073,22.6438941 6.36802001,22.5993889 6.28423148,22.5539149 C6.25876391,22.540093 6.23338851,22.5262017 6.20806902,22.5122216 C6.14465752,22.477209 6.0816265,22.4416564 6.01895233,22.4055539 C5.98070618,22.3835234 5.94247877,22.3612206 5.90438655,22.3387133 C5.72243223,22.231199 5.54372455,22.1191259 5.36826022,22.0025591 C5.32727881,21.9753336 5.28649999,21.9478805 5.24589997,21.9201847 C5.19082224,21.8826114 5.13622542,21.8446988 5.08196098,21.8063471 C5.06452067,21.7940214 5.04701321,21.7815777 5.02954067,21.7690884 C1.98447389,19.5922409 0,16.0278698 0,12 C0,5.372583 5.372583,0 12,0 Z M12,0.75 C5.78679656,0.75 0.75,5.78679656 0.75,12 C0.75,15.6804702 2.51737972,18.9481467 5.24973285,21.0006233 L6.52106573,16.55127 C6.66344052,16.0529582 7.05295819,15.6634405 7.55126996,15.5210657 L11.5879183,14.3677376 C11.8572507,14.2907855 12.1427493,14.2907855 12.4120817,14.3677376 L16.44873,15.5210657 C16.9470418,15.6634405 17.3365595,16.0529582 17.4789343,16.55127 L18.7502671,21.0006233 C21.4826203,18.9481467 23.25,15.6804702 23.25,12 C23.25,5.78679656 18.2132034,0.75 12,0.75 Z M12.0003469,5.25 C14.066992,5.25 15.75,6.93258336 15.75,9.00017343 C15.75,11.0677635 14.066992,12.75 12.0003469,12.75 C9.93300805,12.75 8.25,11.0674166 8.25,9.00017343 C8.25,6.93293022 9.93266118,5.25 12.0003469,5.25 Z" id="Combined-Shape" fill="#2D334D" fill-rule="nonzero"></path>
    </g>
</svg>