<?xml version="1.0" encoding="UTF-8"?>
<svg width="34px" height="34px" viewBox="0 0 34 34" version="1.1" xmlns="http://www.w3.org/2000/svg" xmlns:xlink="http://www.w3.org/1999/xlink">
    <!-- Generator: Sketch 63.1 (92452) - https://sketch.com -->
    <title>Group 3</title>
    <desc>Created with Sketch.</desc>
    <g id="Symbols" stroke="none" stroke-width="1" fill="none" fill-rule="evenodd">
        <g id="Icon-/-close-Copy" transform="translate(-4.000000, -4.000000)" fill="#161C39" fill-rule="nonzero">
            <g id="Group-3" transform="translate(5.000000, 5.000000)">
                <path d="M15.8333333,-0.5 C6.81268242,-0.5 -0.5,6.81268242 -0.5,15.8333333 C-0.5,24.8539842 6.81268242,32.1666667 15.8333333,32.1666667 C24.8539842,32.1666667 32.1666667,24.8539842 32.1666667,15.8333333 C32.1666667,6.81268242 24.8539842,-0.5 15.8333333,-0.5 Z M15.8333333,0.5 C24.3016995,0.5 31.1666667,7.36496717 31.1666667,15.8333333 C31.1666667,24.3016995 24.3016995,31.1666667 15.8333333,31.1666667 C7.36496717,31.1666667 0.5,24.3016995 0.5,15.8333333 C0.5,7.36496717 7.36496717,0.5 15.8333333,0.5 Z" id="Oval" opacity="0.200000003"></path>
                <g id="Group" opacity="0.600000024" transform="translate(16.000000, 16.000000) rotate(45.000000) translate(-16.000000, -16.000000) translate(8.000000, 8.000000)">
                    <g id="Group-2">
                        <path d="M8.42105263,-1.33226763e-14 L8.421,7.017 L15.4385965,7.01754386 L15.4385965,8.42105263 L8.421,8.421 L8.42105263,15.4385965 L7.01754386,15.4385965 L7.017,8.421 L-1.33226763e-14,8.42105263 L-1.33226763e-14,7.01754386 L7.017,7.017 L7.01754386,-1.33226763e-14 L8.42105263,-1.33226763e-14 Z" id="Combined-Shape"></path>
                    </g>
                </g>
            </g>
        </g>
    </g>
</svg>