<?xml version="1.0" encoding="UTF-8"?>
<svg width="1024px" height="1024px" viewBox="0 0 1024 1024" version="1.1" xmlns="http://www.w3.org/2000/svg" xmlns:xlink="http://www.w3.org/1999/xlink">
    <!-- Generator: Sketch 61.2 (89653) - https://sketch.com -->
    <title>icon/wechat copy 2@3x</title>
    <desc>Created with Sketch.</desc>
    <g id="icon/wechat-copy-2" stroke="none" stroke-width="1" fill="none" fill-rule="evenodd">
        <path d="M512,0 C794.769792,0 1024,229.230208 1024,512 C1024,794.769792 794.769792,1024 512,1024 C229.230208,1024 0,794.769792 0,512 C0,229.230208 229.230208,0 512,0 Z M512,42.6666667 C252.794357,42.6666667 42.6666667,252.794357 42.6666667,512 C42.6666667,771.205643 252.794357,981.333333 512,981.333333 C771.205643,981.333333 981.333333,771.205643 981.333333,512 C981.333333,252.794357 771.205643,42.6666667 512,42.6666667 Z" id="Oval" fill="#D1D2D8" fill-rule="nonzero"></path>
        <path d="M602.56,427.730469 C608.448,427.730469 614.24,428.188723 620.064,428.84337 C604.384,354.148063 526.336,298.666667 437.216,298.666667 C337.6,298.666667 256,368.09206 256,456.305843 C256,507.204705 283.136,549.003964 328.512,581.474492 L310.4,637.217747 L373.76,604.747219 C396.416,609.297021 414.592,614.010485 437.216,614.010485 C442.912,614.010485 448.544,613.748625 454.112,613.323104 C450.592,600.91753 448.512,587.955504 448.512,574.437029 C448.544,493.457103 516.512,427.730469 602.56,427.730469 Z M505.152,377.486255 C518.848,377.486255 527.84,386.684056 527.84,400.628053 C527.84,414.506585 518.848,423.802583 505.152,423.802583 C491.616,423.802583 477.984,414.506585 477.984,400.628053 C477.984,386.651323 491.584,377.486255 505.152,377.486255 Z M378.336,423.802583 C364.736,423.802583 351.04,414.506585 351.04,400.628053 C351.04,386.684056 364.736,377.486255 378.336,377.486255 C391.936,377.486255 400.96,386.651323 400.96,400.628053 C400.96,414.506585 391.936,423.802583 378.336,423.802583 Z M768,572.211226 C768,498.105102 695.488,437.713847 614.048,437.713847 C527.808,437.713847 459.936,498.137834 459.936,572.211226 C459.936,646.513745 527.84,706.708605 614.048,706.708605 C632.096,706.708605 650.304,702.093338 668.416,697.445339 L718.112,725.333333 L704.48,678.984273 C740.864,651.030814 768,614.010485 768,572.211226 Z M564.064,549.003964 C555.072,549.003964 545.952,539.838895 545.952,530.477433 C545.952,521.246899 555.072,511.950901 564.064,511.950901 C577.824,511.950901 586.752,521.246899 586.752,530.477433 C586.752,539.838895 577.824,549.003964 564.064,549.003964 Z M663.744,549.003964 C654.816,549.003964 645.728,539.838895 645.728,530.477433 C645.728,521.246899 654.784,511.950901 663.744,511.950901 C677.376,511.950901 686.432,521.246899 686.432,530.477433 C686.432,539.838895 677.376,549.003964 663.744,549.003964 Z" id="Shape" fill="#161C39" opacity="0.600000024"></path>
    </g>
</svg>