<?xml version="1.0" encoding="UTF-8"?>
<svg width="17px" height="16px" viewBox="0 0 17 16" version="1.1" xmlns="http://www.w3.org/2000/svg" xmlns:xlink="http://www.w3.org/1999/xlink">
    <!-- Generator: Sketch 63.1 (92452) - https://sketch.com -->
    <title>Shape</title>
    <desc>Created with Sketch.</desc>
    <g id="home" stroke="none" stroke-width="1" fill="none" fill-rule="evenodd">
        <g id="eport--768" transform="translate(-304.000000, -573.000000)" fill="#161C39" fill-rule="nonzero">
            <g id="Group-11" transform="translate(94.000000, 105.000000)">
                <g id="Group-9-Copy-2" transform="translate(0.000000, 275.000000)">
                    <g id="Group-2">
                        <g id="Group" transform="translate(91.500000, 0.000000)">
                            <g id="Group-7" transform="translate(39.000000, 181.000000)">
                                <g id="Group-6">
                                    <g id="Group-4" transform="translate(80.000000, 10.000000)">
                                        <g id="下载" transform="translate(0.000000, 2.000000)">
                                            <path d="M8.66666667,0.666666667 C8.66666667,0.298476833 8.36818983,0 8,0 C7.63181017,0 7.33333333,0.298476833 7.33333333,0.666666667 L7.33333333,8.66666667 L4.66666667,8.66666667 L7.98266667,12.6666667 L11.3333333,8.66666667 L8.66666667,8.66666667 L8.66666667,0.666666667 Z M15.3333333,14.6666667 L0.666666667,14.6666667 C0.298476833,14.6666667 0,14.9651435 0,15.3333333 C0,15.7015232 0.298476833,16 0.666666667,16 L15.3333333,16 C15.7015232,16 16,15.7015232 16,15.3333333 C16,14.9651435 15.7015232,14.6666667 15.3333333,14.6666667 Z" id="Shape"></path>
                                        </g>
                                    </g>
                                </g>
                            </g>
                        </g>
                    </g>
                </g>
            </g>
        </g>
    </g>
</svg>