<?xml version="1.0" encoding="UTF-8"?>
<svg width="35px" height="40px" viewBox="0 0 35 40" version="1.1" xmlns="http://www.w3.org/2000/svg" xmlns:xlink="http://www.w3.org/1999/xlink">
    <!-- Generator: Sketch 61.2 (89653) - https://sketch.com -->
    <title>Group</title>
    <desc>Created with Sketch.</desc>
    <g id="Page-1" stroke="none" stroke-width="1" fill="none" fill-rule="evenodd">
        <g id="c-10-02-销售线索-表单-提交成功" transform="translate(-583.000000, -356.000000)" fill="#F5D924">
            <g id="Group" transform="translate(583.000000, 356.000000)">
                <path d="M17.8205081,0.288675135 L34.1410162,9.71132487 C34.4504172,9.88995766 34.6410162,10.2200847 34.6410162,10.5773503 L34.6410162,29.4226497 C34.6410162,29.7799153 34.4504172,30.1100423 34.1410162,30.2886751 L17.8205081,39.7113249 C17.511107,39.8899577 17.1299092,39.8899577 16.8205081,39.7113249 L0.5,30.2886751 C0.190598923,30.1100423 5.01628278e-14,29.7799153 4.61852778e-14,29.4226497 L4.61852778e-14,10.5773503 C4.55068942e-14,10.2200847 0.190598923,9.88995766 0.5,9.71132487 L16.8205081,0.288675135 C17.1299092,0.11004234 17.511107,0.11004234 17.8205081,0.288675135 Z M25.18,13 L14.59,23.58 L10.42,19.41 L9,20.82 L14.59,26.41 L26.59,14.41 L25.18,13 Z" id="Combined-Shape"></path>
            </g>
        </g>
    </g>
</svg>