<?xml version="1.0" encoding="UTF-8"?>
<svg width="34px" height="34px" viewBox="0 0 34 34" version="1.1" xmlns="http://www.w3.org/2000/svg" xmlns:xlink="http://www.w3.org/1999/xlink">
    <!-- Generator: Sketch 63.1 (92452) - https://sketch.com -->
    <title>Group 3</title>
    <desc>Created with Sketch.</desc>
    <g id="Symbols" stroke="none" stroke-width="1" fill="none" fill-rule="evenodd">
        <g id="Icon-/-close-inverse-Copy" transform="translate(-4.000000, -4.000000)" fill="#FFFFFF" fill-rule="nonzero">
            <g id="Group-3" transform="translate(4.500000, 4.500000)">
                <path d="M16.3333333,0 C7.31268242,0 1.56319402e-13,7.31268242 1.56319402e-13,16.3333333 C1.56319402e-13,25.3539842 7.31268242,32.6666667 16.3333333,32.6666667 C25.3539842,32.6666667 32.6666667,25.3539842 32.6666667,16.3333333 C32.6666667,7.31268242 25.3539842,0 16.3333333,0 Z M16.3333333,1 C24.8016995,1 31.6666667,7.86496717 31.6666667,16.3333333 C31.6666667,24.8016995 24.8016995,31.6666667 16.3333333,31.6666667 C7.86496717,31.6666667 1,24.8016995 1,16.3333333 C1,7.86496717 7.86496717,1 16.3333333,1 Z" id="Oval" opacity="0.200000003"></path>
                <g id="Group" opacity="0.600000024" transform="translate(16.500000, 16.500000) rotate(45.000000) translate(-16.500000, -16.500000) translate(8.500000, 8.500000)">
                    <g id="Group-2">
                        <path d="M8.42105263,-1.33226763e-14 L8.421,7.017 L15.4385965,7.01754386 L15.4385965,8.42105263 L8.421,8.421 L8.42105263,15.4385965 L7.01754386,15.4385965 L7.017,8.421 L-1.33226763e-14,8.42105263 L-1.33226763e-14,7.01754386 L7.017,7.017 L7.01754386,-1.33226763e-14 L8.42105263,-1.33226763e-14 Z" id="Combined-Shape"></path>
                    </g>
                </g>
            </g>
        </g>
    </g>
</svg>