<?xml version="1.0" standalone="no"?><!DOCTYPE svg PUBLIC "-//W3C//DTD SVG 1.1//EN" "http://www.w3.org/Graphics/SVG/1.1/DTD/svg11.dtd"><svg t="1573525339633" class="icon" viewBox="0 0 1024 1024" version="1.1" xmlns="http://www.w3.org/2000/svg" p-id="5756" xmlns:xlink="http://www.w3.org/1999/xlink" width="200" height="200"><defs><style type="text/css"></style></defs><path d="M512 128c212.096 0 384 171.904 384 384S724.096 896 512 896 128 724.096 128 512s171.904-384 384-384z m0 298.667l-0.706 0.005c-23.01 0.373-41.586 18.958-41.955 41.969l-0.006 0.698v213.322c0 23.328 18.723 42.29 41.961 42.667l0.706 0.005 0.706-0.005c23.01-0.373 41.586-18.958 41.955-41.969l0.006-0.698V469.339c0-23.328-18.723-42.29-41.961-42.667l-0.706-0.005z m0-128c-23.564 0-42.667 19.102-42.667 42.666C469.333 364.897 488.436 384 512 384s42.667-19.103 42.667-42.667-19.103-42.666-42.667-42.666z" p-id="5757"></path></svg>