<?xml version="1.0" encoding="UTF-8"?>
<svg width="329px" height="38px" viewBox="0 0 329 38" version="1.1" xmlns="http://www.w3.org/2000/svg" xmlns:xlink="http://www.w3.org/1999/xlink">
    <!-- Generator: Sketch 62 (91390) - https://sketch.com -->
    <title>Group 6</title>
    <desc>Created with Sketch.</desc>
    <g id="Page-1" stroke="none" stroke-width="1" fill="none" fill-rule="evenodd" opacity="0.800000012">
        <g id="c-07-01-行业活动-详情-1200" transform="translate(-771.000000, -448.000000)">
            <g id="Group-6" transform="translate(771.000000, 448.000000)">
                <g id="E药经理人" transform="translate(174.672362, 1.666667)" fill="#FFFFFF" fill-rule="nonzero">
                    <path d="M7.02858921,7.0470855 L2.82993197,7.0470855 L2.82993197,9.28513628 C3.51429461,9.61806945 3.99519808,10.3209284 3.99519808,11.1162687 C3.99519808,11.9116091 3.51429461,12.6329643 2.82993197,12.9474012 L2.82993197,14.4086079 L7.02858921,14.4086079 L7.02858921,12.9474012 C6.36272287,12.614468 5.88181939,11.9301054 5.88181939,11.1162687 C5.88181939,10.3209284 6.34422658,9.61806945 7.02858921,9.28513628 L7.02858921,7.0470855" id="Path" opacity="0.4"></path>
                    <path d="M16.3322218,15.2409408 L15.1484594,15.2409408 C14.8155262,15.9253035 13.7982304,16.4062069 12.2630385,16.4062069 C10.6908541,16.4062069 9.65506202,15.9253035 9.32212885,15.2409408 L8.97069939,15.2409408 L8.97069939,19.4395981 L9.32212885,19.4395981 C9.65506202,18.7737317 10.6353653,18.2928282 12.2630385,18.2928282 C13.8537193,18.2928282 14.8155262,18.7552354 15.1484594,19.4395981 L16.3322218,19.4395981 L16.3322218,15.2409408" id="Path" opacity="0.4"></path>
                    <path d="M7.02858921,19.4765906 L2.82993197,19.4765906 L2.82993197,21.7146414 C3.51429461,22.0475746 3.99519808,22.7504335 3.99519808,23.5457739 C3.99519808,24.3596105 3.51429461,25.0624694 2.82993197,25.3769063 L2.82993197,26.838113 L7.02858921,26.838113 L7.02858921,25.3769063 C6.36272287,25.0439731 5.88181939,24.3596105 5.88181939,23.5457739 C5.88181939,22.7504335 6.34422658,22.0475746 7.02858921,21.7146414 L7.02858921,19.4765906" id="Path" opacity="0.4"></path>
                    <circle id="Oval" cx="4.93850874" cy="4.90151616" r="4.86452359"></circle>
                    <circle id="Oval" cx="4.93850874" cy="17.3310213" r="4.86452359"></circle>
                    <circle id="Oval" cx="19.5320795" cy="17.3310213" r="4.86452359"></circle>
                    <circle id="Oval" cx="4.93850874" cy="29.7605264" r="4.86452359"></circle>
                    <circle id="Oval" opacity="0.6" cx="19.5320795" cy="4.90151616" r="4.86452359"></circle>
                    <circle id="Oval" opacity="0.6" cx="19.5320795" cy="29.7605264" r="4.86452359"></circle>
                    <polygon id="Path" points="44.3356009 19.0326797 35.3279089 19.0326797 35.3279089 7.43550754 44.0581566 7.43550754 44.0581566 9.11866969 37.3625006 9.11866969 37.3625006 12.3185274 43.6512383 12.3185274 43.6512383 13.9462007 37.3625006 13.9462007 37.3625006 17.4974879 44.3356009 17.4974879"></polygon>
                    <path d="M55.2114179,9.93250634 L55.2114179,9.13716598 L52.067049,9.13716598 L52.067049,9.9879952 L50.3838869,9.9879952 L50.3838869,9.13716598 L46.9435774,9.13716598 L46.9435774,7.73144813 L50.3838869,7.73144813 L50.3838869,6.49219688 L52.067049,6.49219688 L52.067049,7.73144813 L55.2114179,7.73144813 L55.2114179,6.49219688 L56.8945801,6.49219688 L56.8945801,7.73144813 L60.3348895,7.73144813 L60.3348895,9.13716598 L56.8945801,9.13716598 L56.8945801,9.93250634 L55.2114179,9.93250634 Z M47.6649326,17.0720733 L47.1655329,15.7218443 C47.5724512,15.5368814 47.9238807,15.2964297 48.1828287,14.9819928 C48.5527544,14.6490596 48.9411765,14.2791339 49.3111022,13.9092081 C48.6637322,13.9092081 48.0348584,13.9462007 47.4059846,14.0201859 L46.9620737,12.7809346 C47.2580143,12.5959717 47.5354586,12.35552 47.8129029,12.0410831 C48.4417767,11.2087502 48.978169,10.487395 49.3850874,9.8400249 L50.9572718,10.2839358 C50.7723089,10.5058912 50.5133609,10.8203281 50.1619314,11.2457427 C49.6070428,11.8931128 49.1816282,12.35552 48.9226802,12.6514606 C49.3295985,12.614468 49.8474946,12.5959717 50.4393758,12.5959717 C50.5503535,12.4480014 50.7353163,12.226046 50.9942644,11.9301054 C51.2162198,11.6341648 51.3826864,11.4122093 51.4936641,11.2457427 L52.8438931,11.9855942 C51.5306567,13.4837935 50.457872,14.6490596 49.6440354,15.4813926 L52.3999822,15.2039482 C52.3999822,15.314926 52.3814859,15.5368814 52.3444934,15.8883109 C52.3444934,16.1842515 52.3259971,16.4062069 52.2890045,16.5726735 C51.1977235,16.6466587 50.0139611,16.7576364 48.7377173,16.9056067 C48.6637322,16.9056067 48.5527544,16.924103 48.4047841,16.9610955 C48.0533547,16.9610955 47.8129029,16.9980881 47.6649326,17.0720733 Z M47.2210217,19.6060646 L46.9990663,18.2003468 C47.1840292,18.1633542 47.4614735,18.1263617 47.8498955,18.0893691 C49.9584723,17.8674136 51.5676493,17.6824508 52.6959228,17.5344805 C52.6589302,18.0153839 52.640434,18.4962874 52.640434,18.9401983 C50.1434352,19.1991463 48.3492953,19.4211018 47.2210217,19.6060646 Z M52.9548708,14.6490596 C52.769908,14.4640967 52.4369748,14.1681562 51.937575,13.7427415 C52.2705082,14.0016896 52.2150193,13.9462007 51.7711084,13.576275 C52.8253968,12.5219866 53.6207372,11.3382242 54.1941221,10.0249878 L55.8217954,10.2469432 C55.7848028,10.3209284 55.7108177,10.4504024 55.5998399,10.6353653 C55.5258548,10.8203281 55.4518696,10.9682984 55.3778845,11.0792762 L59.7615046,11.0792762 C59.7615046,12.8364235 59.6875195,14.9080076 59.5395492,17.2755324 C59.5395492,18.8477169 58.6702236,19.6430572 56.9500689,19.6430572 C56.117736,19.6430572 55.3593882,19.6430572 54.638033,19.6430572 C54.5640478,18.921702 54.4530701,18.4223023 54.3050998,18.1263617 C54.5640478,18.1263617 54.9894625,18.1448579 55.5443511,18.1818505 C56.0252545,18.1818505 56.376684,18.1818505 56.5616469,18.1818505 C57.5049575,18.2188431 57.9673647,17.7934285 57.9673647,16.8871104 C58.0413499,15.2039482 58.0783424,13.7427415 58.0783424,12.5034903 L54.5825441,12.5034903 C54.1016407,13.2618381 53.5652483,13.9831933 52.9548708,14.6490596 Z M55.4888622,16.794629 C55.1189365,16.3507181 54.5455516,15.6663554 53.8057001,14.7600373 C54.2866035,15.314926 54.2126184,15.2224445 53.5837446,14.482593 L54.7120181,13.6317638 C55.6183362,14.5010893 56.3026989,15.2224445 56.8020986,15.832822 L55.4888622,16.794629 Z" id="Shape"></path>
                    <path d="M62.942866,16.2212441 L62.4989551,14.8155262 C62.8318883,14.5935708 63.1463252,14.2791339 63.4607621,13.8537193 C63.5717398,13.705749 63.7567027,13.4468009 64.0156507,13.0583789 C64.2745987,12.6514606 64.4780579,12.3370237 64.6260282,12.1520608 C63.7567027,12.1890534 63.1278289,12.2630385 62.7209106,12.3740163 L62.2769997,10.9128096 C62.4989551,10.7278467 62.7209106,10.4504024 62.9613623,10.0619803 C63.7567027,8.74874394 64.3855765,7.54648526 64.8664799,6.4552043 L66.4941532,6.95460406 C65.6618203,8.37881819 64.8664799,9.65506202 64.0711396,10.7833356 C64.5150505,10.7833356 65.0144502,10.7648393 65.5323463,10.7278467 C65.8652794,10.2099506 66.16122,9.6920546 66.4386644,9.21115113 L67.8443822,9.89551376 C67.0120493,11.2087502 65.9577609,12.743942 64.6445245,14.5195856 L66.9565604,14.2976302 C66.9565604,14.3346227 66.9565604,14.3716153 66.9565604,14.4086079 C66.8825753,14.8155262 66.8455827,15.2779334 66.8455827,15.7588369 C64.7739985,15.9253035 63.4792584,16.0732738 62.942866,16.2212441 Z M67.6779156,15.4998888 L67.6779156,13.9277044 L75.3908675,13.9277044 L75.3908675,15.4998888 L72.3574763,15.4998888 L72.3574763,18.0338802 L76.0197412,18.0338802 L76.0197412,19.4395981 L67.0120493,19.4395981 L67.0120493,18.53328 C66.2537015,18.6072651 65.1254279,18.7737317 63.5717398,19.0326797 C63.1278289,19.1066649 62.7763994,19.1621538 62.554444,19.1991463 L62.3324886,17.6824508 C62.8873772,17.6084656 63.7382064,17.4974879 64.8664799,17.3495176 C65.8467832,17.2385399 66.5866347,17.1460584 67.123027,17.0720733 C67.123027,17.183051 67.123027,17.3310213 67.123027,17.5159842 C67.0860344,17.7379396 67.0675381,17.9044062 67.0675381,18.0153839 L70.6558179,18.0153839 L70.6558179,15.4813926 L67.6779156,15.4813926 L67.6779156,15.4998888 Z M67.6224267,13.576275 C67.2894936,12.9104086 67.0305456,12.3925126 66.8270864,12.0595794 C69.8234849,11.1532613 71.8580766,10.0619803 72.9123649,8.73024765 L67.8998711,8.73024765 L67.8998711,7.21355209 L74.8729714,7.21355209 L74.8729714,8.78573652 C74.3550754,9.50709173 73.7446979,10.1359655 73.0788315,10.6908541 C74.0961273,11.1717576 75.0949269,11.7081499 76.0567338,12.2630385 L75.0949269,13.5577787 C73.7077053,12.6884532 72.5979281,12.0595794 71.7655951,11.6526611 C70.9147659,12.2630385 69.5275444,12.9104086 67.6224267,13.576275 Z" id="Shape"></path>
                    <path d="M78.0543328,8.91521053 L78.0543328,7.39851496 L82.437953,7.39851496 L82.437953,8.91521053 L81.0322351,8.91521053 L81.0322351,12.0595794 L82.3269752,12.0595794 L82.3269752,13.576275 L81.0322351,13.576275 L81.0322351,16.8501178 C81.1802054,16.8131253 81.4206572,16.7576364 81.7720866,16.6836512 C82.0680272,16.6466587 82.2899827,16.6096661 82.4564492,16.5726735 C82.4564492,17.1275621 82.4564492,17.6639545 82.4564492,18.1448579 L86.174203,18.1448579 L86.174203,16.794629 L82.8448713,16.794629 L82.8448713,15.4444 L86.174203,15.4444 L86.174203,14.2051487 L83.0298342,14.2051487 L83.0298342,7.12107065 L90.9092526,7.12107065 L90.9092526,14.2051487 L87.7093949,14.2051487 L87.7093949,15.4444 L91.0942155,15.4444 L91.0942155,16.794629 L87.7093949,16.794629 L87.7093949,18.1448579 L91.5936152,18.1448579 L91.5936152,19.4950869 L82.1420124,19.4950869 L82.1420124,18.2003468 C80.7177982,18.3853097 79.4045618,18.6257614 78.2023031,18.9401983 L77.9248588,17.3680139 C78.4427549,17.2940287 78.9976435,17.2015473 79.5525321,17.0905696 L79.5525321,13.5947712 L78.2023031,13.5947712 L78.2023031,12.0780757 L79.5525321,12.0780757 L79.5525321,8.93370682 L78.0543328,8.93370682 L78.0543328,8.91521053 Z M84.5280334,8.45280334 L84.5280334,9.96949891 L86.1557067,9.96949891 L86.1557067,8.45280334 L84.5280334,8.45280334 Z M84.5280334,11.2827353 L84.5280334,12.7994309 L86.1557067,12.7994309 L86.1557067,11.2827353 L84.5280334,11.2827353 Z M89.3185719,8.45280334 L87.6908986,8.45280334 L87.6908986,9.96949891 L89.3185719,9.96949891 L89.3185719,8.45280334 Z M87.6908986,11.2827353 L87.6908986,12.7994309 L89.3185719,12.7994309 L89.3185719,11.2827353 L87.6908986,11.2827353 Z" id="Shape"></path>
                    <path d="M105.780268,19.7170424 C102.746877,18.1078654 100.915744,15.7958294 100.323863,12.7994309 C99.7689743,15.7218443 97.8823529,18.0893691 94.7009915,19.883509 C94.3310658,19.3286203 93.9241474,18.8107243 93.5172291,18.3668134 C97.0870126,16.5356809 98.9736339,13.7242453 99.1955893,9.9879952 C99.2695745,9.04468454 99.3065671,7.9349073 99.3065671,6.65866347 L101.156196,6.65866347 C101.156196,6.69565604 101.156196,6.82513005 101.156196,7.0470855 C101.119203,7.69445556 101.100707,8.21235161 101.100707,8.61926993 C101.322662,13.3543195 103.320261,16.5171847 107.075008,18.1263617 C106.853052,18.3483171 106.538615,18.7367391 106.113201,19.310124 C105.965231,19.5135832 105.854253,19.6430572 105.780268,19.7170424 Z" id="Path"></path>
                    <path d="M109.294562,8.91521053 L109.294562,7.39851496 L114.418034,7.39851496 L114.418034,8.91521053 L112.512916,8.91521053 C112.290961,9.78453604 112.013517,10.5983727 111.662087,11.393713 L114.196078,11.393713 L114.196078,18.3668134 L111.551109,18.3668134 L111.551109,19.3286203 L110.089903,19.3286203 L110.089903,14.3161265 C110.015917,14.3901116 109.923436,14.5195856 109.812458,14.7045485 C109.627495,15.0374817 109.479525,15.2779334 109.368547,15.4444 C109.25757,14.7600373 109.146592,14.0756747 109.035614,13.3543195 C109.90494,12.0040905 110.515317,10.5243875 110.885243,8.91521053 L109.294562,8.91521053 L109.294562,8.91521053 Z M111.551109,12.743942 L111.551109,17.0720733 L112.734872,17.0720733 L112.734872,12.743942 L111.551109,12.743942 Z M114.972923,8.85972167 L114.972923,7.28753724 L122.297452,7.28753724 L122.297452,8.85972167 L121.058201,8.85972167 L121.058201,12.3925126 L122.685874,12.3925126 L122.685874,13.9092081 L121.058201,13.9092081 L121.058201,19.8280201 L119.486017,19.8280201 L119.486017,13.9092081 L117.580899,13.9092081 C117.580899,16.4616958 116.785559,18.53328 115.213374,20.1054644 C114.621493,19.5135832 114.177582,19.1066649 113.918634,18.921702 C115.305856,17.7934285 116.008715,16.1287626 116.008715,13.9092081 L114.658486,13.9092081 L114.658486,12.3925126 L116.008715,12.3925126 L116.008715,8.84122538 L114.972923,8.84122538 L114.972923,8.85972167 Z M117.562403,8.85972167 L117.562403,12.3925126 L119.486017,12.3925126 L119.486017,8.84122538 L117.562403,8.84122538 L117.562403,8.85972167 Z" id="Shape"></path>
                    <path d="M125.312347,13.3543195 C125.127384,12.873416 124.923925,12.3925126 124.70197,11.9486017 C126.200169,11.5046908 127.901827,10.8388244 129.825441,9.96949891 L130.565293,11.2087502 C129.048597,11.8931128 127.29145,12.614468 125.312347,13.3543195 Z M135.096883,19.6060646 C133.857632,19.6430572 133.265751,19.0696723 133.302743,17.8674136 L133.302743,15.0559779 L130.768752,15.0559779 C130.620782,17.2385399 128.993108,18.9032057 125.867236,20.0684718 C125.49731,19.6245609 125.090392,19.1621538 124.683473,18.7182429 C127.457916,17.700947 128.882131,16.4801921 128.956116,15.0559779 L125.756258,15.0559779 L125.756258,13.5947712 L129.196568,13.5947712 L129.252056,12.0225868 L130.990707,12.0225868 C130.990707,12.2075497 130.972211,12.5034903 130.935219,12.9289049 C130.935219,13.2248455 130.935219,13.4468009 130.935219,13.5947712 L134.985905,13.5947712 L134.985905,17.5344805 C134.985905,17.9413988 135.189365,18.1448579 135.596283,18.1448579 L135.873727,18.1448579 C136.317638,18.1818505 136.55809,17.9783914 136.55809,17.5344805 C136.632075,17.2015473 136.70606,16.5356809 136.780045,15.5553777 C137.371927,15.7403406 137.889823,15.8513183 138.296741,15.8883109 C138.259748,16.6466587 138.167267,17.4050064 138.019297,18.2003468 C137.908319,19.18065 137.223956,19.6430572 135.984705,19.6060646 L135.096883,19.6060646 Z M125.090392,10.6538615 L125.090392,8.00889245 L130.713263,8.00889245 L130.213863,6.71415233 L132.118981,6.49219688 L132.67387,8.00889245 L137.686363,8.00889245 L137.686363,10.6538615 L135.947712,10.6538615 L135.947712,9.52558801 L126.773554,9.52558801 L126.773554,10.6538615 L125.090392,10.6538615 Z M137.297941,13.4652972 C136.095683,12.9104086 134.394024,12.1520608 132.17447,11.2087502 L132.858832,10.0249878 C134.061091,10.4688987 135.76275,11.1532613 137.982304,12.0595794 L137.297941,13.4652972 Z" id="Shape"></path>
                    <path d="M140.701258,19.9944867 L140.701258,7.10257436 L144.918412,7.10257436 L144.918412,8.61926993 L143.901116,12.3370237 C144.659464,13.4283047 145.010893,14.5195856 144.973901,15.5923703 C145.010893,17.0905696 144.511493,17.9044062 143.457205,18.0153839 C143.23525,18.0523765 142.939309,18.0708728 142.550887,18.0708728 C142.476902,17.5529767 142.328932,17.0350807 142.106976,16.5541772 L142.106976,19.9944867 L140.701258,19.9944867 L140.701258,19.9944867 Z M142.106976,8.63776622 L142.106976,16.4062069 C142.365924,16.4431995 142.606376,16.4616958 142.846828,16.4616958 C143.327731,16.4616958 143.586679,16.0732738 143.586679,15.2779334 C143.586679,14.482593 143.23525,13.5577787 142.513894,12.4664977 L143.53119,8.63776622 L142.106976,8.63776622 L142.106976,8.63776622 Z M145.195856,14.9819928 L145.195856,13.5207861 L153.574674,13.5207861 L153.574674,14.9819928 L151.114668,14.9819928 L151.114668,17.8489173 C151.114668,18.1818505 151.244142,18.3483171 151.50309,18.3483171 L151.836023,18.3483171 C152.131964,18.3483171 152.29843,18.1633542 152.335423,17.7934285 C152.446401,17.3495176 152.520386,16.794629 152.557379,16.1657552 C152.705349,16.2397403 152.945801,16.3322218 153.29723,16.4431995 C153.556178,16.5171847 153.741141,16.5726735 153.852119,16.6096661 C153.815126,16.7576364 153.778133,16.9795918 153.741141,17.2940287 C153.741141,17.5529767 153.685652,17.9044062 153.574674,18.3668134 C153.426704,19.2361389 152.834823,19.6615535 151.836023,19.6615535 L151.281135,19.6615535 C150.152861,19.6615535 149.597973,19.18065 149.597973,18.2003468 L149.597973,14.9819928 L148.41421,14.9819928 C148.41421,15.0189854 148.41421,15.0744742 148.41421,15.1484594 C148.377218,15.2594371 148.358721,15.3334223 148.358721,15.3704148 C148.432706,17.4050064 147.378418,18.9586946 145.214352,20.0499755 C145.17736,20.012983 145.121871,19.9389978 145.047886,19.8280201 C144.640967,19.3471166 144.326531,18.9956872 144.141568,18.8107243 C145.9727,18.0523765 146.879018,16.924103 146.842026,15.3704148 C146.842026,15.2224445 146.842026,15.0929705 146.842026,14.9819928 L145.195856,14.9819928 L145.195856,14.9819928 Z M145.251345,10.7093504 L145.251345,8.00889245 L148.525188,8.00889245 C148.488195,7.89791472 148.432706,7.73144813 148.358721,7.50949269 C148.321729,7.32452981 148.229247,7.0470855 148.081277,6.65866347 L149.875417,6.49219688 L150.374817,8.00889245 L153.408208,8.00889245 L153.408208,10.7093504 L151.947001,10.7093504 L151.947001,9.41461029 L146.712552,9.41461029 L146.712552,10.7093504 L145.251345,10.7093504 Z M145.991196,12.226046 L145.991196,10.8203281 L152.742341,10.8203281 L152.742341,12.226046 L145.991196,12.226046 Z" id="Shape"></path>
                    <polygon id="Path" points="38.8606998 22.010582 39.4340847 22.010582 39.4340847 27.2450313 38.8606998 27.2450313 38.8606998 24.8035214 35.9382864 24.8035214 35.9382864 27.2450313 35.3279089 27.2450313 35.3279089 22.010582 35.9382864 22.010582 35.9382864 24.2856254 38.8606998 24.2856254"></polygon>
                    <path d="M42.9853719,26.0427727 L43.5587568,26.190743 C43.3552977,26.9490907 42.7819128,27.3375128 41.8755947,27.3190165 C40.7103286,27.2635276 40.0999511,26.6161576 40.0629585,25.3769063 C40.1184474,24.0636699 40.7103286,23.3793073 41.8386021,23.3423147 C42.9483794,23.3793073 43.5217643,24.0636699 43.5587568,25.3769063 C43.5587568,25.4508915 43.5587568,25.487884 43.5587568,25.5063803 L40.6918323,25.5063803 C40.7288249,26.3572096 41.1172469,26.8196167 41.8755947,26.8751056 C42.4674759,26.8751056 42.8374016,26.5976613 42.9853719,26.0427727 Z M40.7103286,25.0439731 L42.9853719,25.0439731 C42.9483794,24.2856254 42.5784536,23.878707 41.8570984,23.8417145 C41.1542395,23.9156996 40.7658174,24.3041216 40.7103286,25.0439731 Z" id="Shape"></path>
                    <path d="M44.6315415,24.6000622 L44.0766529,24.4335957 C44.2616158,23.6567516 44.8350007,23.2683296 45.7783113,23.3053221 C46.8141034,23.2868258 47.3135032,23.7677293 47.2765106,24.7665288 L47.2765106,26.3017207 C47.2580143,26.7271353 47.3319995,27.0230759 47.4799698,27.1895425 L46.9250811,27.1895425 C46.7956071,27.0415722 46.7401183,26.8751056 46.7401183,26.6716464 C46.4256814,27.097061 45.9262816,27.3005202 45.241919,27.3005202 C44.4465786,27.2635276 44.021164,26.9305945 43.9656752,26.3017207 C43.9841714,25.5618692 44.4465786,25.1549509 45.3528967,25.0809657 C46.0927482,25.0069806 46.5366591,24.9144991 46.6846294,24.7850251 C46.7401183,24.0821662 46.4256814,23.749233 45.7413187,23.7862256 C45.0939487,23.7862256 44.7055267,24.0451736 44.6315415,24.6000622 Z M46.6846294,25.7468321 L46.6846294,25.2474323 C46.6106443,25.3954026 46.2407185,25.487884 45.5563559,25.5433729 C44.853497,25.6358543 44.5205638,25.8763061 44.5390601,26.2832244 C44.5575564,26.6716464 44.8350007,26.8566093 45.4083856,26.8566093 C46.2037259,26.8011204 46.6291405,26.4311947 46.6846294,25.7468321 Z" id="Shape"></path>
                    <polygon id="Path" points="48.0348584 22.010582 48.589747 22.010582 48.589747 27.2080388 48.0348584 27.2080388"></polygon>
                    <path d="M50.7353163,26.8936019 L50.8462941,27.1895425 C50.6798275,27.2635276 50.4763683,27.3005202 50.2729092,27.3005202 C49.7365168,27.3190165 49.4775688,27.0415722 49.4960651,26.4681873 L49.4960651,23.8972033 L48.978169,23.8972033 L48.978169,23.4347961 L49.4960651,23.4347961 L49.4960651,22.4175003 L50.0509537,22.1215597 L50.0509537,23.4347961 L50.7538126,23.4347961 L50.7538126,23.8972033 L50.0509537,23.8972033 L50.0509537,26.449691 C50.0324574,26.7826242 50.1804277,26.9305945 50.4763683,26.9120982 C50.5688498,26.9305945 50.6613312,26.9120982 50.7353163,26.8936019 Z" id="Path"></path>
                    <path d="M54.2866035,24.7850251 L54.2866035,27.2265351 L53.7132186,27.2265351 L53.7132186,24.8775066 C53.7132186,24.1561513 53.417278,23.8047219 52.8438931,23.8047219 C52.1595305,23.8972033 51.7896047,24.2671291 51.7526122,24.8960028 L51.7526122,27.2450313 L51.1792272,27.2450313 L51.1792272,22.010582 L51.7526122,22.010582 L51.7526122,24.0081811 C52.0485528,23.5642702 52.4554711,23.3423147 52.9733671,23.3238184 C53.8611889,23.3053221 54.3050998,23.7862256 54.2866035,24.7850251 Z" id="Path"></path>
                    <path d="M56.5431506,23.8047219 C55.7848028,23.8047219 55.4148771,24.3226179 55.4148771,25.3399137 C55.4148771,26.3572096 55.7848028,26.8566093 56.5431506,26.8566093 C57.1535281,26.8566093 57.4864613,26.5236761 57.5419501,25.8578098 L58.115335,25.9872838 C57.9673647,26.8936019 57.4494687,27.3375128 56.5246543,27.3005202 C55.4148771,27.2635276 54.8414922,26.6161576 54.8229959,25.3399137 C54.8599884,24.0451736 55.4148771,23.3793073 56.506158,23.3238184 C57.338491,23.3423147 57.8748833,23.7122405 58.0783424,24.4520919 L57.5234538,24.6370548 C57.3569872,24.1191588 57.0240541,23.8417145 56.5431506,23.8047219 Z" id="Path"></path>
                    <path d="M58.9661642,24.6000622 L58.4112756,24.4335957 C58.5962385,23.6567516 59.1696234,23.2683296 60.1129341,23.3053221 C61.1487262,23.2868258 61.6481259,23.7677293 61.6111333,24.7665288 L61.6111333,26.3017207 C61.5926371,26.7271353 61.6666222,27.0230759 61.8145925,27.1895425 L61.2597039,27.1895425 C61.1302299,27.0415722 61.074741,26.8751056 61.074741,26.6716464 C60.7603041,27.097061 60.2609044,27.3005202 59.5765417,27.3005202 C58.7812014,27.2635276 58.3557868,26.9305945 58.3002979,26.3017207 C58.3187942,25.5618692 58.7812014,25.1549509 59.6875195,25.0809657 C60.4273709,25.0069806 60.8712818,24.9144991 61.0192521,24.7850251 C61.074741,24.0821662 60.7603041,23.749233 60.0759415,23.7862256 C59.4285714,23.7862256 59.0586457,24.0451736 58.9661642,24.6000622 Z M61.0377484,25.7468321 L61.0377484,25.2474323 C60.9637633,25.3954026 60.5938375,25.487884 59.9094749,25.5433729 C59.206616,25.6358543 58.8736828,25.8763061 58.8921791,26.2832244 C58.9106754,26.6716464 59.1881197,26.8566093 59.7615046,26.8566093 C60.5383487,26.8011204 60.9637633,26.4311947 61.0377484,25.7468321 Z" id="Shape"></path>
                    <path d="M63.7567027,23.8972033 C63.5532435,23.8972033 63.3497844,24.0266773 63.1463252,24.2671291 C62.9983549,24.4520919 62.9058735,24.7665288 62.9058735,25.1734472 L62.9058735,27.2450313 L62.3509848,27.2450313 L62.3509848,23.4162999 L62.9058735,23.4162999 L62.9058735,24.1006625 L62.9243697,24.1006625 C63.0908363,23.619759 63.3867769,23.360811 63.8121915,23.3423147 C64.0156507,23.3238184 64.2376062,23.3793073 64.4410653,23.5272776 L64.2006136,24.0451736 C64.0711396,23.9341959 63.9231693,23.8972033 63.7567027,23.8972033 Z" id="Path"></path>
                    <path d="M67.4374639,26.0427727 L68.0108488,26.190743 C67.8073896,26.9490907 67.2340047,27.3375128 66.3276866,27.3190165 C65.1624205,27.2635276 64.552043,26.6161576 64.5150505,25.3769063 C64.5705393,24.0636699 65.1624205,23.3793073 66.2906941,23.3423147 C67.4004713,23.3793073 67.9738562,24.0636699 68.0108488,25.3769063 C68.0108488,25.4508915 68.0108488,25.487884 68.0108488,25.5063803 L65.1069317,25.5063803 C65.1439242,26.3572096 65.5323463,26.8196167 66.2906941,26.8751056 C66.9010715,26.8751056 67.2894936,26.5976613 67.4374639,26.0427727 Z M65.1624205,25.0439731 L67.4374639,25.0439731 C67.4004713,24.2856254 67.0305456,23.878707 66.3091903,23.8417145 C65.6063314,23.9156996 65.2179094,24.3041216 65.1624205,25.0439731 Z" id="Shape"></path>
                    <polygon id="Path" points="70.9702548 26.7641279 74.2995865 26.7641279 74.2995865 27.2265351 70.3783736 27.2265351 70.3783736 22.010582 74.1516162 22.010582 74.1516162 22.5099818 70.9887511 22.5099818 70.9887511 24.2856254 73.9666533 24.2856254 73.9666533 24.8035214 70.9887511 24.8035214 70.9887511 26.7641279"></polygon>
                    <path d="M76.6301187,25.3214175 L78.0728291,27.2080388 L77.3884665,27.2080388 L76.4636521,25.8948024 C76.4636521,25.8763061 76.4636521,25.8578098 76.4451558,25.8393135 C76.3711707,25.7283358 76.3341781,25.6728469 76.3156818,25.6358543 C76.2971855,25.6543506 76.2786893,25.6913432 76.260193,25.7468321 C76.2047041,25.8393135 76.1677115,25.8948024 76.1492152,25.9132987 L75.1874083,27.2265351 L74.5030457,27.2265351 L76.0197412,25.3214175 L74.651016,23.4347961 L75.298386,23.4347961 L76.130719,24.7480325 C76.2232004,24.8590103 76.2786893,24.9329954 76.2786893,25.0069806 C76.3341781,24.9329954 76.389667,24.8590103 76.4266596,24.7480325 C76.4821484,24.6740474 76.7595927,24.2486328 77.2589925,23.4347961 L77.9433551,23.4347961 L76.6301187,25.3214175 Z" id="Path"></path>
                    <path d="M81.0692277,26.0427727 L81.6426126,26.190743 C81.4391534,26.9490907 80.8842648,27.3375128 79.9594504,27.3190165 C78.7941843,27.2635276 78.1838069,26.6161576 78.1468143,25.3769063 C78.2023031,24.0636699 78.7941843,23.3793073 79.9224579,23.3423147 C81.0322351,23.3793073 81.60562,24.0636699 81.6426126,25.3769063 C81.6426126,25.4508915 81.6426126,25.487884 81.6426126,25.5063803 L78.7386955,25.5063803 C78.7756881,26.3572096 79.1641101,26.8196167 79.9224579,26.8751056 C80.5513316,26.8751056 80.9212574,26.5976613 81.0692277,26.0427727 Z M78.7941843,25.0439731 L81.0692277,25.0439731 C81.0322351,24.2856254 80.6623094,23.878707 79.9409542,23.8417145 C79.2380952,23.9156996 78.8496732,24.3041216 78.7941843,25.0439731 Z" id="Shape"></path>
                    <path d="M83.7881819,23.8047219 C83.0298342,23.8047219 82.6599084,24.3226179 82.6599084,25.3399137 C82.6599084,26.3572096 83.0298342,26.8566093 83.7881819,26.8566093 C84.3985594,26.8566093 84.7314926,26.5236761 84.7869815,25.8578098 L85.3603664,25.9872838 C85.2123961,26.8936019 84.6945,27.3375128 83.7696857,27.3005202 C82.6599084,27.2635276 82.0865235,26.6161576 82.0680272,25.3399137 C82.1050198,24.0451736 82.6599084,23.3793073 83.7511894,23.3238184 C84.5835223,23.3423147 85.1199146,23.7122405 85.3233738,24.4520919 L84.7684852,24.6370548 C84.6020186,24.1191588 84.2690854,23.8417145 83.7881819,23.8047219 Z" id="Path"></path>
                    <path d="M88.2642835,23.4162999 L88.8191721,23.4162999 L88.8191721,27.2080388 L88.2642835,27.2080388 L88.2642835,26.6901427 C87.9868392,27.097061 87.5614246,27.3005202 87.0065359,27.3190165 C86.1187142,27.3375128 85.6748033,26.8566093 85.6932995,25.9132987 L85.6932995,23.4347961 L86.2481882,23.4347961 L86.2481882,25.8763061 C86.2666845,26.5606687 86.5626251,26.9120982 87.13601,26.9305945 C87.8203726,26.8566093 88.1902983,26.5051798 88.2642835,25.8578098 L88.2642835,23.4162999 Z" id="Path"></path>
                    <path d="M90.9462452,26.8936019 L91.0572229,27.1895425 C90.8907563,27.2635276 90.6872971,27.3005202 90.483838,27.3005202 C89.9474456,27.3190165 89.6884976,27.0415722 89.7069939,26.4681873 L89.7069939,23.8972033 L89.1890979,23.8972033 L89.1890979,23.4347961 L89.7069939,23.4347961 L89.7069939,22.4175003 L90.2618825,22.1215597 L90.2618825,23.4347961 L90.9647415,23.4347961 L90.9647415,23.8972033 L90.2618825,23.8972033 L90.2618825,26.449691 C90.2433862,26.7826242 90.3913565,26.9305945 90.6872971,26.9120982 C90.7612823,26.9305945 90.8537637,26.9120982 90.9462452,26.8936019 Z" id="Path"></path>
                    <path d="M91.4086523,22.010582 L91.963541,22.010582 L91.963541,22.7134409 L91.4086523,22.7134409 L91.4086523,22.010582 Z M91.4086523,23.4162999 L91.963541,23.4162999 L91.963541,27.2450313 L91.4086523,27.2450313 L91.4086523,23.4162999 Z" id="Shape"></path>
                    <path d="M94.3125695,27.2080388 L93.7391846,27.2080388 L92.2964741,23.4162999 L92.9253479,23.4162999 L93.9241474,26.320217 C93.9241474,26.3572096 93.9426437,26.4126984 93.9796363,26.5051798 C93.9981326,26.6346539 94.0166289,26.7271353 94.0351252,26.8011204 L94.0536214,26.8011204 C94.0536214,26.6901427 94.090614,26.5421724 94.1645992,26.3387133 L95.2188876,23.4347961 L95.829265,23.4347961 L94.3125695,27.2080388 Z" id="Path"></path>
                    <path d="M98.8626562,26.0427727 L99.4360411,26.190743 C99.2325819,26.9490907 98.6776933,27.3375128 97.7528789,27.3190165 C96.5876128,27.2635276 95.9772353,26.6161576 95.9402428,25.3769063 C95.9957316,24.0636699 96.5876128,23.3793073 97.7158864,23.3423147 C98.8256636,23.3793073 99.3990485,24.0636699 99.4360411,25.3769063 C99.4360411,25.4508915 99.4360411,25.487884 99.4360411,25.5063803 L96.5506202,25.5063803 C96.5876128,26.3572096 96.9760349,26.8196167 97.7343826,26.8751056 C98.3262638,26.8751056 98.6961896,26.5976613 98.8626562,26.0427727 Z M96.5876128,25.0439731 L98.8626562,25.0439731 C98.8256636,24.2856254 98.4557379,23.878707 97.7343826,23.8417145 C97.0130274,23.9156996 96.6431017,24.3041216 96.5876128,25.0439731 Z" id="Shape"></path>
                    <path d="M106.390645,27.2450313 L105.576809,27.2450313 L103.764172,24.8960028 L102.376951,24.8960028 L102.376951,27.2450313 L101.766573,27.2450313 L101.766573,22.010582 L104.208083,22.010582 C105.31786,22.0660709 105.909742,22.5284781 105.983727,23.4162999 C105.983727,24.3226179 105.465831,24.8035214 104.411542,24.8775066 L106.390645,27.2450313 Z M102.376951,22.5284781 L102.376951,24.3596105 L104.078609,24.3596105 C104.929438,24.3411142 105.354853,24.0266773 105.354853,23.3978036 C105.336357,22.8429149 104.910942,22.5469743 104.078609,22.5284781 L102.376951,22.5284781 L102.376951,22.5284781 Z" id="Shape"></path>
                    <path d="M109.461029,26.0427727 L110.034414,26.190743 C109.830955,26.9490907 109.25757,27.3375128 108.351252,27.3190165 C107.185986,27.2635276 106.575608,26.6161576 106.538615,25.3769063 C106.594104,24.0636699 107.185986,23.3793073 108.314259,23.3423147 C109.424036,23.3793073 109.997421,24.0636699 110.034414,25.3769063 C110.034414,25.4508915 110.034414,25.487884 110.034414,25.5063803 L107.130497,25.5063803 C107.167489,26.3572096 107.555911,26.8196167 108.314259,26.8751056 C108.924637,26.8751056 109.294562,26.5976613 109.461029,26.0427727 Z M107.185986,25.0439731 L109.461029,25.0439731 C109.424036,24.2856254 109.054111,23.878707 108.332755,23.8417145 C107.6114,23.9156996 107.241474,24.3041216 107.185986,25.0439731 Z" id="Shape"></path>
                    <path d="M111.958028,23.8047219 C111.458628,23.8232182 111.181184,24.0081811 111.125695,24.3781068 C111.107198,24.71104 111.458628,24.9329954 112.179983,25.0624694 C113.123294,25.2104397 113.585701,25.5988618 113.567205,26.2092393 C113.548708,26.9305945 113.030812,27.2820239 112.032013,27.3005202 C111.162687,27.3190165 110.626295,26.9490907 110.40434,26.1722467 L110.959228,26.0242764 C111.107198,26.6161576 111.458628,26.9120982 112.032013,26.8936019 C112.660887,26.8751056 112.975323,26.6531501 112.99382,26.2462318 C113.012316,25.8948024 112.679383,25.6543506 112.032013,25.5433729 C111.014717,25.4138989 110.533814,25.0439731 110.570806,24.3966031 C110.644791,23.7122405 111.107198,23.360811 111.958028,23.3238184 C112.771864,23.3423147 113.271264,23.6752479 113.419234,24.3411142 L112.845849,24.5075808 C112.716375,24.0451736 112.420435,23.8047219 111.958028,23.8047219 Z" id="Path"></path>
                    <path d="M116.915033,26.0427727 L117.488418,26.190743 C117.284958,26.9490907 116.73007,27.3375128 115.805255,27.3190165 C114.639989,27.2635276 114.029612,26.6161576 113.992619,25.3769063 C114.048108,24.0636699 114.639989,23.3793073 115.768263,23.3423147 C116.87804,23.3793073 117.451425,24.0636699 117.488418,25.3769063 C117.488418,25.4508915 117.488418,25.487884 117.488418,25.5063803 L114.5845,25.5063803 C114.621493,26.3572096 115.009915,26.8196167 115.768263,26.8751056 C116.37864,26.8751056 116.748566,26.5976613 116.915033,26.0427727 Z M114.639989,25.0439731 L116.915033,25.0439731 C116.87804,24.2856254 116.508114,23.878707 115.786759,23.8417145 C115.065404,23.9156996 114.695478,24.3041216 114.639989,25.0439731 Z" id="Shape"></path>
                    <path d="M118.542706,24.6000622 L117.987817,24.4335957 C118.17278,23.6567516 118.746165,23.2683296 119.689476,23.3053221 C120.725268,23.2868258 121.224668,23.7677293 121.187675,24.7665288 L121.187675,26.3017207 C121.169179,26.7271353 121.243164,27.0230759 121.391134,27.1895425 L120.836246,27.1895425 C120.706772,27.0415722 120.651283,26.8751056 120.651283,26.6716464 C120.336846,27.097061 119.837446,27.3005202 119.153083,27.3005202 C118.357743,27.2635276 117.913832,26.9305945 117.87684,26.3017207 C117.895336,25.5618692 118.357743,25.1549509 119.264061,25.0809657 C120.003913,25.0069806 120.447824,24.9144991 120.595794,24.7850251 C120.651283,24.0821662 120.336846,23.749233 119.652483,23.7862256 C119.005113,23.7862256 118.635187,24.0451736 118.542706,24.6000622 Z M120.61429,25.7468321 L120.61429,25.2474323 C120.540305,25.3954026 120.170379,25.487884 119.486017,25.5433729 C118.783158,25.6358543 118.450225,25.8763061 118.468721,26.2832244 C118.487217,26.6716464 118.764661,26.8566093 119.338046,26.8566093 C120.11489,26.8011204 120.540305,26.4311947 120.61429,25.7468321 Z" id="Shape"></path>
                    <path d="M123.333244,23.8972033 C123.129785,23.8972033 122.926326,24.0266773 122.722867,24.2671291 C122.5564,24.4520919 122.482415,24.7665288 122.482415,25.1734472 L122.482415,27.2450313 L121.927527,27.2450313 L121.927527,23.4162999 L122.482415,23.4162999 L122.482415,24.1006625 L122.500911,24.1006625 C122.667378,23.619759 122.963319,23.360811 123.388733,23.3423147 C123.592192,23.3238184 123.814148,23.3793073 124.017607,23.5272776 L123.777155,24.0451736 C123.647681,23.9341959 123.499711,23.8972033 123.333244,23.8972033 Z" id="Path"></path>
                    <path d="M125.830243,23.8047219 C125.071895,23.8047219 124.70197,24.3226179 124.70197,25.3399137 C124.70197,26.3572096 125.071895,26.8566093 125.830243,26.8566093 C126.440621,26.8566093 126.773554,26.5236761 126.829043,25.8578098 L127.402428,25.9872838 C127.254457,26.8936019 126.736561,27.3375128 125.811747,27.3005202 C124.70197,27.2635276 124.128585,26.6161576 124.110088,25.3399137 C124.147081,24.0451736 124.70197,23.3793073 125.793251,23.3238184 C126.625584,23.3423147 127.161976,23.7122405 127.365435,24.4520919 L126.810546,24.6370548 C126.64408,24.1191588 126.329643,23.8417145 125.830243,23.8047219 Z" id="Path"></path>
                    <path d="M130.898226,24.7850251 L130.898226,27.2265351 L130.324841,27.2265351 L130.324841,24.8775066 C130.324841,24.1561513 130.0289,23.8047219 129.455516,23.8047219 C128.771153,23.8972033 128.401227,24.2671291 128.364235,24.8960028 L128.364235,27.2450313 L127.79085,27.2450313 L127.79085,22.010582 L128.364235,22.010582 L128.364235,24.0081811 C128.660175,23.5642702 129.067094,23.3423147 129.58499,23.3238184 C130.491308,23.3053221 130.916722,23.7862256 130.898226,24.7850251 Z" id="Path"></path>
                    <path d="M137.149971,25.4323952 L137.834334,25.5803655 C137.501401,26.708639 136.743053,27.2820239 135.55929,27.3005202 C134.061091,27.2080388 133.265751,26.3572096 133.173269,24.71104 C133.247254,22.9353964 134.061091,21.9920857 135.614779,21.9181006 C136.613579,21.9550931 137.316438,22.4544929 137.741852,23.4347961 L137.094482,23.5827664 C136.780045,22.8244187 136.280646,22.4544929 135.577787,22.4359966 C134.505002,22.5469743 133.931617,23.2868258 133.820639,24.6555511 C133.894625,26.0057801 134.468009,26.7271353 135.540794,26.8196167 C136.373127,26.8196167 136.928016,26.3387133 137.149971,25.4323952 Z" id="Path"></path>
                    <path d="M141.108177,26.0427727 L141.681562,26.190743 C141.478102,26.9490907 140.923214,27.3375128 139.998399,27.3190165 C138.833133,27.2635276 138.222756,26.6161576 138.185763,25.3769063 C138.241252,24.0636699 138.833133,23.3793073 139.961407,23.3423147 C141.071184,23.3793073 141.644569,24.0636699 141.681562,25.3769063 C141.681562,25.4508915 141.681562,25.487884 141.681562,25.5063803 L138.777644,25.5063803 C138.814637,26.3572096 139.203059,26.8196167 139.961407,26.8751056 C140.571784,26.8751056 140.960206,26.5976613 141.108177,26.0427727 Z M138.833133,25.0439731 L141.108177,25.0439731 C141.071184,24.2856254 140.701258,23.878707 139.979903,23.8417145 C139.277044,23.9156996 138.888622,24.3041216 138.833133,25.0439731 Z" id="Shape"></path>
                    <path d="M145.380819,24.7850251 L145.380819,27.2265351 L144.82593,27.2265351 L144.82593,24.8775066 C144.807434,24.1746476 144.511493,23.8232182 143.938109,23.8047219 C143.253746,23.8972033 142.88382,24.2671291 142.809835,24.8960028 L142.809835,27.2265351 L142.254946,27.2450313 L142.254946,23.4162999 L142.809835,23.4162999 L142.809835,23.9896848 C143.105776,23.5457739 143.53119,23.3238184 144.067583,23.3053221 C144.955404,23.3238184 145.380819,23.8047219 145.380819,24.7850251 Z" id="Path"></path>
                    <path d="M147.544885,26.8936019 L147.655862,27.1895425 C147.489396,27.2635276 147.285937,27.3005202 147.082477,27.3005202 C146.546085,27.3190165 146.287137,27.0415722 146.305633,26.4681873 L146.305633,23.8972033 L145.787737,23.8972033 L145.787737,23.4347961 L146.305633,23.4347961 L146.305633,22.4175003 L146.860522,22.1215597 L146.860522,23.4347961 L147.563381,23.4347961 L147.563381,23.8972033 L146.860522,23.8972033 L146.860522,26.449691 C146.842026,26.7826242 146.989996,26.9305945 147.285937,26.9120982 C147.359922,26.9305945 147.452403,26.9120982 147.544885,26.8936019 Z" id="Path"></path>
                    <path d="M150.689253,26.0427727 L151.262638,26.190743 C151.059179,26.9490907 150.504291,27.3375128 149.579476,27.3190165 C148.41421,27.2635276 147.803833,26.6161576 147.76684,25.3769063 C147.822329,24.0636699 148.41421,23.3793073 149.542484,23.3423147 C150.652261,23.3793073 151.225646,24.0636699 151.262638,25.3769063 C151.262638,25.4508915 151.262638,25.487884 151.262638,25.5063803 L148.358721,25.5063803 C148.395714,26.3572096 148.784136,26.8196167 149.542484,26.8751056 C150.152861,26.8751056 150.522787,26.5976613 150.689253,26.0427727 Z M148.41421,25.0439731 L150.689253,25.0439731 C150.652261,24.2856254 150.282335,23.878707 149.56098,23.8417145 C148.839625,23.9156996 148.469699,24.3041216 148.41421,25.0439731 Z" id="Shape"></path>
                    <path d="M153.241741,23.8972033 C153.038282,23.8972033 152.834823,24.0266773 152.631364,24.2671291 C152.464897,24.4520919 152.390912,24.7665288 152.390912,25.1734472 L152.390912,27.2450313 L151.836023,27.2450313 L151.836023,23.4162999 L152.390912,23.4162999 L152.390912,24.1006625 L152.409408,24.1006625 C152.575875,23.619759 152.871815,23.360811 153.29723,23.3423147 C153.500689,23.3238184 153.722645,23.3793073 153.926104,23.5272776 L153.704148,24.0451736 C153.556178,23.9341959 153.389711,23.8972033 153.241741,23.8972033 Z" id="Path"></path>
                </g>
                <g id="法伯科技" transform="translate(0.000000, 0.333333)" fill="#FFFFFF" fill-rule="nonzero">
                    <path d="M26.543595,19.2763116 L26.543595,6.59293174 C26.543595,6.535175 26.5550658,6.47741826 26.5894784,6.44276422 C26.715658,6.28104535 26.899192,6.25794265 27.0368424,6.33880209 L31.2237102,8.79923916 C31.602249,9.03026612 31.8431373,9.44611464 31.8431373,9.8966172 L31.8431373,27.1427794 C31.8431373,27.593282 31.602249,28.0091305 31.2237102,28.2401575 L27.0368424,30.7005945 C26.8762502,30.7930053 26.6812454,30.7352486 26.5894784,30.5850811 C26.5665367,30.5388757 26.543595,30.4695676 26.543595,30.4118108 L26.543595,24.705445 L15.9215686,18.4792686 L5.2995423,24.705445 L5.2995423,30.4233622 C5.2995423,30.4811189 5.28807142,30.5388757 5.25365881,30.5735297 C5.12747923,30.7352486 4.9439453,30.7583513 4.80629485,30.6774918 L0.619427022,28.2170548 C0.240888286,27.9860278 0,27.5701793 0,27.1196767 L0,9.88506585 C0,9.43456329 0.240888286,9.01871477 0.619427022,8.78768781 L15.2562581,0.181933727 C15.6692095,-0.0606445758 16.1739278,-0.0606445758 16.5868791,0.181933727 L20.8999265,2.71167889 C21.1064022,2.82719237 21.2325818,3.05821932 21.2325818,3.30079762 L21.2325818,13.6739079 C21.2325818,13.7316647 21.2211109,13.7894214 21.1866983,13.8240754 C21.0605187,13.9857943 20.8769848,14.008897 20.7393344,13.9280376 L16.1051026,11.2019195 C16.0018647,11.1441628 15.9330395,11.0286493 15.9330395,10.9131358 L15.9330395,5.20677001 L5.43719274,11.3636384 C5.35689665,11.4098438 5.31101317,11.4907032 5.31101317,11.583114 L5.31101317,19.2647602 L15.267729,13.4197783 C15.6806803,13.1772 16.1853987,13.1772 16.59835,13.4197783 L26.543595,19.2763116 Z" id="Path_30_"></path>
                    <path d="M15.8898266,37.2893526 C15.7252383,37.3815075 15.5136247,37.3239107 15.4195743,37.1626396 C15.3960616,37.1165622 15.372549,37.047446 15.372549,36.9898492 L15.372549,20.8627451 L20.8627451,23.9729723 L20.8627451,34.2712802 C20.8627451,34.3864738 20.8039636,34.5016674 20.6864005,34.5592642 L15.8898266,37.2893526" id="Path_29_"></path>
                    <g id="Group" transform="translate(37.333333, 12.078431)">
                        <path d="M15.2112941,6.9340366 L14.7568865,5.43224864 C16.1201093,3.93046068 17.1084458,2.18228563 17.7673368,0.15252534 L19.039678,0.762626699 C18.7443131,1.66604602 18.3580666,2.55773262 17.9036591,3.37902291 L17.9036591,12.5774742 L16.5404363,12.5774742 L16.5404363,5.42051592 C16.1201093,5.94848825 15.6884221,6.45299514 15.2112941,6.9340366 Z M27.3780573,12.4953451 L26.0375549,12.4953451 L26.0375549,11.9204419 L20.6755454,11.9204419 L20.6755454,12.4953451 L19.335043,12.4953451 L19.335043,2.1001566 L21.4139577,2.1001566 C22.0160478,1.71297689 22.4250146,0.75089398 22.7430999,0.0469308738 L24.0381615,0.246387087 C23.9018393,0.856488446 23.6064743,1.71297689 23.2543084,2.1001566 L27.3780573,2.1001566 L27.3780573,12.4953451 Z M26.0261947,6.31220252 L26.0261947,3.42595379 L20.6641852,3.42595379 L20.6641852,6.31220252 L26.0261947,6.31220252 Z M26.0261947,10.582912 L26.0261947,7.59106883 L20.6641852,7.59106883 L20.6641852,10.582912 L26.0261947,10.582912 Z" id="Shape"></path>
                        <g transform="translate(29.422891, 0.117327)" id="Path">
                            <path d="M2.45380099,3.54328097 L2.45380099,2.00629485 C1.89715169,2.08842388 1.31778201,2.15882019 0.727052145,2.20575107 L0.45440759,0.891686602 C2.13571567,0.762626699 3.64662091,0.504506893 4.97576311,0.105594466 L5.46425127,1.41965893 C4.94168254,1.54871883 4.40775363,1.68951146 3.82838395,1.79510592 L3.82838395,3.54328097 L5.45289108,3.54328097 L5.45289108,4.89254359 L3.82838395,4.89254359 L3.82838395,5.35011961 C4.50999533,5.88982466 5.20296691,6.47646058 5.90729867,7.12176009 L5.13480577,8.29503194 C4.62359723,7.63799971 4.19191002,7.11002738 3.82838395,6.71111495 L3.82838395,12.4132161 L2.45380099,12.4132161 L2.45380099,6.82844213 C1.98803321,7.9547831 1.36322277,8.74087524 0.533928919,9.53870009 L0.045440759,8.36542825 C1.06785784,7.34468174 1.80627017,6.18314262 2.29475833,4.89254359 L0.45440759,4.89254359 L0.45440759,3.54328097 L2.45380099,3.54328097 Z"></path>
                            <polygon points="13.2459813 8.97552961 11.6101139 8.96379689 11.6101139 12.4249488 10.235531 12.4249488 10.235531 8.97552961 6.19130342 9.01072776 6.17994323 7.56760339 10.235531 7.56760339 10.235531 0.140792621 11.6101139 0.140792621 11.6101139 7.56760339 13.2459813 7.55587068"></polygon>
                            <path d="M9.23583427,5.86635922 L8.25885795,6.86364029 C7.73628923,6.25353893 6.97515651,5.57304126 6.00954038,4.84561272 L6.97515651,3.8835298 C7.8726115,4.56402747 8.61102384,5.22105971 9.23583427,5.86635922 Z"></path>
                            <path d="M9.57663997,2.72199068 L8.63374422,3.69580631 C8.11117549,3.09743767 7.36140296,2.45213815 6.39578683,1.7833732 L7.36140296,0.821290291 C8.23613757,1.46658981 8.97454991,2.08842388 9.57663997,2.72199068 Z"></path>
                        </g>
                        <path d="M44.6909865,12.4249488 L44.4069818,11.1343498 C44.7364273,11.1930134 45.0431524,11.2164788 45.3612377,11.2164788 C45.6452424,11.2164788 45.7929249,11.0404881 45.7929249,10.7002392 L45.7929249,8.0134467 C45.3498775,8.18943747 44.8954699,8.34196281 44.4524225,8.50622087 L44.1002566,7.13349281 C44.6796263,7.00443291 45.2362756,6.82844213 45.8042851,6.64071864 L45.8042851,3.87179709 L44.361541,3.87179709 L44.361541,2.52253446 L45.8042851,2.52253446 L45.8042851,0.234654369 L47.1334273,0.234654369 L47.1334273,2.52253446 L48.3603278,2.52253446 L48.3603278,3.87179709 L47.1334273,3.87179709 L47.1334273,6.08928087 C47.5537543,5.88982466 48.848816,5.32665417 49.269143,5.08026709 L49.269143,6.44126242 C48.848816,6.66418407 47.5537543,7.23908728 47.1334273,7.43854349 L47.1334273,11.0404881 C47.1334273,11.9673728 46.6903799,12.4249488 45.8270055,12.4249488 L44.6909865,12.4249488 Z M51.7002236,2.00629485 L51.7002236,0.258119806 L53.0293658,0.258119806 L53.0293658,2.00629485 L56.0511763,2.00629485 L56.0511763,3.33209204 L53.0293658,3.33209204 L53.0293658,5.13893068 L55.5513279,5.13893068 L55.5513279,6.37086611 C55.1537213,7.74359417 54.4834701,8.91686602 53.5405743,9.91414708 C54.3244274,10.4890503 55.2900436,10.9935572 56.4147023,11.4511332 L55.7103706,12.6126723 C54.4721099,12.0495018 53.4269724,11.4394005 52.5863184,10.7706355 C51.6093421,11.5332622 50.4165221,12.1550963 49.0192188,12.6596032 L48.3830482,11.4863314 C49.6553894,11.0874189 50.7346075,10.5594466 51.6207023,9.91414708 C50.0984368,8.44755728 49.6213089,6.46472786 49.6213089,6.46472786 L49.6213089,5.1506634 L51.7002236,5.16239611 L51.7002236,3.35555747 L48.6784131,3.35555747 L48.6784131,2.02976029 L51.7002236,2.02976029 L51.7002236,2.00629485 Z M52.5522378,9.06939136 C53.27929,8.31849738 53.8472995,7.43854349 54.2221857,6.44126242 L50.9050103,6.44126242 C51.2003752,7.41507806 51.7570245,8.29503194 52.5522378,9.06939136 Z" id="Shape"></path>
                        <g transform="translate(0.000000, 0.234654)" id="Path">
                            <path d="M2.97636972,5.50264495 L1.9993934,6.4881933 C1.54498581,5.87809194 0.886094801,5.19759427 0.0340805693,4.45843301 L0.999696699,3.4963501 C1.7721896,4.16511505 2.43108061,4.83388 2.97636972,5.50264495 Z"></path>
                            <path d="M4.23735078,7.79052505 C3.68070148,9.45657106 3.04453086,11.0404881 2.37427966,12.5070779 L0.999696699,11.8969765 C1.7721896,10.3951885 2.4424408,8.84646971 2.9990901,7.27428543 L4.23735078,7.79052505 Z"></path>
                            <path d="M4.28279154,2.34654369 L3.31717541,3.34382476 C2.81732706,2.71025796 2.10163511,2.05322573 1.17009955,1.32579718 L2.14707586,0.363714272 C2.98772991,1.03247922 3.69206167,1.68951146 4.28279154,2.34654369 Z"></path>
                            <path d="M9.37215655,0.0117327184 L9.37215655,1.99456214 L12.7461329,1.99456214 L12.7461329,3.34382476 L9.37215655,3.34382476 L9.37215655,5.4087832 L13.0869386,5.4087832 L13.0869386,6.76977854 L8.69054517,6.76977854 C7.9862134,8.48275543 6.79339348,10.5711793 6.79339348,10.5711793 L12.814294,10.5125157 L13.3027822,11.9673728 C13.3027822,11.9673728 7.33868258,11.8265802 5.06664463,12.0612346 L4.7712797,10.8410318 C4.90760198,10.8058337 6.33898589,8.9051333 7.22508069,6.76977854 L4.40775363,6.76977854 L4.40775363,5.4087832 L7.9862134,5.4087832 L7.9862134,3.34382476 L5.03256406,3.34382476 L5.03256406,1.99456214 L7.9862134,1.99456214 L7.9862134,0.0117327184 L9.37215655,0.0117327184 L9.37215655,0.0117327184 Z"></path>
                            <path d="M10.4286542,8.13077388 L11.7691566,8.13077388 C12.1326827,8.99899504 13.6435879,10.6650411 13.6435879,10.6650411 C13.6435879,10.6650411 13.3027822,11.709253 13.3027822,11.9673728 C13.0187775,11.9673728 10.4286542,8.13077388 10.4286542,8.13077388 Z"></path>
                        </g>
                    </g>
                </g>
                <path d="M134.669514,5.66666667 L134.669514,32.3333333 M121.336181,19 L148.002847,19" id="Combined-Shape" stroke="#FFFFFF" stroke-width="0.808080808" opacity="0.889999986" transform="translate(134.669514, 19.000000) rotate(45.000000) translate(-134.669514, -19.000000) "></path>
            </g>
        </g>
    </g>
</svg>