<?xml version="1.0" encoding="UTF-8"?>
<svg width="1024px" height="1024px" viewBox="0 0 1024 1024" version="1.1" xmlns="http://www.w3.org/2000/svg" xmlns:xlink="http://www.w3.org/1999/xlink">
    <!-- Generator: Sketch 61.2 (89653) - https://sketch.com -->
    <title>icon/linkdin copy 2@3x</title>
    <desc>Created with Sketch.</desc>
    <g id="icon/linkdin-copy-2" stroke="none" stroke-width="1" fill="none" fill-rule="evenodd">
        <path d="M512,0 C794.769792,0 1024,229.230208 1024,512 C1024,794.769792 794.769792,1024 512,1024 C229.230208,1024 0,794.769792 0,512 C0,229.230208 229.230208,0 512,0 Z M512,42.6666667 C252.794357,42.6666667 42.6666667,252.794357 42.6666667,512 C42.6666667,771.205643 252.794357,981.333333 512,981.333333 C771.205643,981.333333 981.333333,771.205643 981.333333,512 C981.333333,252.794357 771.205643,42.6666667 512,42.6666667 Z" id="Oval" fill="#D1D2D8" fill-rule="nonzero"></path>
        <g id="linkedIn" transform="translate(298.666667, 298.666667)" fill="#161C39" opacity="0.600000024">
            <path d="M88.5370325,131.807048 L88.5370325,426.666667 L0.878947083,426.666667 L0.878947083,131.807048 L88.5370325,131.807048 Z M328.930267,125.728568 C391.447971,125.728568 419.734233,167.63809 419.734233,257.695576 L419.734233,257.695576 L419.707573,257.695576 L419.707573,426.666667 L340.260768,426.666667 L340.260768,268.946097 C340.260768,229.595934 329.516788,202.669332 295.125385,202.669332 C268.865284,202.669332 260.014163,220.798134 253.135883,238.287095 C250.629843,244.578855 250.016663,253.323336 250.016663,262.067816 L250.016663,262.067816 L250.016663,426.666667 L159.266017,426.666667 L159.266017,230.155795 C159.266017,192.031992 159.879197,159.34683 158.652837,131.807048 L158.652837,131.807048 L238.712822,131.807048 L238.632842,178.488711 L240.499042,178.488711 C253.002583,158.49371 277.609764,125.728568 328.930267,125.728568 Z M50.97309,-5.1159077e-13 C81.6054321,-5.1159077e-13 100.374073,20.6348412 101.013913,47.5614429 C101.013913,73.8215446 81.6054317,91.0439058 49.7200696,91.0439058 C19.7009079,91.0439058 0.292426667,73.8215446 0.292426667,47.5614429 C0.292426667,20.6615012 20.3407479,-5.1159077e-13 50.97309,-5.1159077e-13 Z" id="Combined-Shape"></path>
        </g>
    </g>
</svg>