<?xml version="1.0" encoding="UTF-8"?>
<svg width="101px" height="32px" viewBox="0 0 101 32" version="1.1" xmlns="http://www.w3.org/2000/svg" xmlns:xlink="http://www.w3.org/1999/xlink">
    <!-- Generator: Sketch 61.2 (89653) - https://sketch.com -->
    <title>Group 2</title>
    <desc>Created with Sketch.</desc>
    <g id="Page-1" stroke="none" stroke-width="1" fill="none" fill-rule="evenodd" opacity="0.200000003">
        <g id="homepage/sitemap" transform="translate(-100.000000, -100.000000)" fill="#161C39" fill-rule="nonzero">
            <g id="Group-2" transform="translate(100.000000, 100.000000)">
                <g id="画板">
                    <g id="编组复制">
                        <path d="M23.243956,16.7068132 L23.243956,5.93934066 C23.2426262,5.89240638 23.2575308,5.84645061 23.2861538,5.80923077 C23.3725021,5.68161282 23.5424421,5.64180706 23.6764835,5.7178022 L27.2879121,7.80659341 C27.6192269,7.9987034 27.8239594,8.35196747 27.8259702,8.73494505 L27.8259702,23.3705495 C27.8291084,23.7549069 27.6229839,24.1105726 27.2879121,24.2989011 L23.6764835,26.3876923 C23.5402941,26.4655272 23.3668675,26.4202175 23.2861538,26.2857143 C23.2626395,26.2413223 23.250554,26.1917718 23.250989,26.1415385 L23.250989,21.3028571 L14.1081319,16.0281319 L4.94417582,21.3028571 L4.94417582,26.1591209 C4.94550563,26.2060552 4.93060106,26.2520109 4.90197802,26.2892308 C4.81562975,26.4168487 4.64568978,26.4566545 4.51164835,26.3806593 L0.88967033,24.312967 C0.558355557,24.120857 0.353622973,23.767593 0.351648352,23.3846154 L0.351648352,8.73142857 C0.341969072,8.34081085 0.548988202,7.97683604 0.88967033,7.78549451 L13.5138462,0.485274725 C13.8676407,0.28184553 14.3029088,0.28184553 14.6567033,0.485274725 L18.3771429,2.63384615 C18.555522,2.73514837 18.6656607,2.92453327 18.6654945,3.12967033 L18.6654945,11.9208791 C18.6668243,11.9678134 18.6519197,12.0137692 18.6232967,12.050989 C18.5369484,12.178607 18.3670085,12.2184127 18.232967,12.1424176 L14.2312088,9.83208791 C14.1425643,9.78174823 14.0875805,9.68787342 14.087033,9.58593407 L14.087033,4.77186813 L5.03912088,10.0008791 C4.97134126,10.0382975 4.92949982,10.1098329 4.93010989,10.1872527 L4.93010989,16.7103297 L13.5173626,11.7520879 C13.8711571,11.5486587 14.3064253,11.5486587 14.6602198,11.7520879 L23.243956,16.7068132 Z" id="Path"></path>
                        <path d="M18.6830891,20.3956044 L18.6830891,29.1657143 C18.6840327,29.2680599 18.6286352,29.3626409 18.5389011,29.4118681 L14.4949451,31.7292308 C14.3558803,31.8061919 14.1808004,31.7577323 14.1010989,31.6202198 C14.0775845,31.5758278 14.0654991,31.5262773 14.0659227,31.476044 L14.0659227,17.7617582 L18.6830891,20.3956044 Z" id="Path-2"></path>
                    </g>
                </g>
                <g id="画板-2" transform="translate(32.351648, 10.549451)">
                    <path d="M0.0492307692,10.5986813 L0.20043956,8.66813187 L0.397362637,4.89494505 L0.481758242,2.22241758 C0.481758242,1.93641026 0.481758242,1.64923077 0.481758242,1.36087912 C0.481758242,1.14520147 0.481758242,0.793553114 0.481758242,0.305934066 C1.14520147,0.32 1.6785348,0.327032967 2.08175824,0.327032967 C2.48498168,0.327032967 3.01479853,0.315311355 3.67120879,0.291868132 C4.3440293,0.268424908 4.91487179,0.256703297 5.38373626,0.256703297 C5.88632291,0.239640324 6.38916252,0.282133813 6.88175824,0.383296703 C7.1966011,0.464502364 7.49434617,0.601465099 7.76087912,0.787692308 C8.01292169,0.962238686 8.23199478,1.18012117 8.40791209,1.43120879 C8.58281181,1.68736751 8.71245863,1.97163899 8.79120879,2.27164835 C8.87616317,2.58574249 8.9187382,2.90978583 8.9178022,3.23516484 C8.92498937,3.88456049 8.75607336,4.52376781 8.42901099,5.08483516 C8.11076291,5.63521866 7.6289518,6.07278181 7.05054945,6.3367033 C6.42347817,6.6205275 5.74141842,6.76222301 5.05318681,6.75164835 C4.73706462,6.74719885 4.42185157,6.71661848 4.11076923,6.66021978 C4.07091575,6.42578755 3.99589744,6.08117216 3.88571429,5.62637363 C3.77553114,5.17157509 3.68527473,4.83164835 3.61494505,4.60659341 C3.84647668,4.65284938 4.08214187,4.67523758 4.31824176,4.67340659 C4.72841073,4.71058424 5.13665606,4.5841925 5.45406593,4.32175824 C5.69792017,4.08937016 5.8331354,3.76536386 5.82681319,3.42857143 C5.82923126,3.27210523 5.80054426,3.11671728 5.74241758,2.97142857 C5.68767553,2.83938789 5.59612755,2.7258684 5.47868132,2.6443956 C5.35928831,2.55966937 5.22221645,2.50315729 5.0778022,2.47912088 C4.91275459,2.45208029 4.74570453,2.43913979 4.57846154,2.44043956 C4.39794872,2.44043956 4.20923077,2.44043956 4.01230769,2.44043956 L3.37934066,2.48615385 C3.31369963,3.4567033 3.2632967,4.53509158 3.22813187,5.72131868 C3.16249084,7.88512821 3.12967033,9.18271062 3.12967033,9.61406593 L3.12967033,10.5986813 L1.62813187,10.5986813 L0.0492307692,10.5986813 Z M9.76175824,10.669011 C9.8414652,9.91648352 9.8989011,9.29758242 9.93406593,8.81230769 C10.0043956,7.79721612 10.0770696,6.61802198 10.1520879,5.27472527 C10.19663,4.38622711 10.2306227,3.53289377 10.2540659,2.71472527 C10.2775092,1.89655678 10.2892308,1.10065934 10.2892308,0.327032967 C10.9268864,0.327032967 11.4461538,0.327032967 11.847033,0.327032967 C12.3885714,0.327032967 12.9008059,0.327032967 13.3837363,0.327032967 L13.2254945,2.16263736 C13.199707,2.46505495 13.1598535,3.0792674 13.1059341,4.00527473 C13.2320135,3.83879548 13.3682429,3.68025261 13.5138462,3.53054945 C13.6225298,3.42447388 13.7401844,3.32799715 13.8654945,3.2421978 C13.9887075,3.15580685 14.1193273,3.0804945 14.2558242,3.01714286 C14.4046086,2.95141895 14.5587182,2.89848056 14.7164835,2.8589011 C14.9049382,2.81080513 15.0964408,2.77555925 15.2896703,2.75340659 C15.5032022,2.72757681 15.7180984,2.71465955 15.9331868,2.71472527 C16.350035,2.71370472 16.7655347,2.76210099 17.170989,2.8589011 C17.5461272,2.94287058 17.8957655,3.11527841 18.1907692,3.36175824 C18.4513474,3.57176213 18.6495546,3.849009 18.763956,4.16351648 C18.8675413,4.47769036 18.918629,4.80679076 18.9151648,5.13758242 C18.9151648,5.27355311 18.9151648,5.45406593 18.9151648,5.67912088 C18.9151648,5.90417582 18.8987546,6.18783883 18.8659341,6.53010989 L18.7006593,9.08307692 C18.6795604,9.40190476 18.6678388,9.66564103 18.6654945,9.87428571 C18.6631502,10.0829304 18.6631502,10.3466667 18.6654945,10.6654945 C18.1427106,10.6654945 17.64337,10.6654945 17.1674725,10.6654945 C16.6306227,10.6654945 16.0855678,10.6654945 15.5323077,10.6654945 C15.6167033,9.99267399 15.6917216,9.21787546 15.7573626,8.3410989 C15.8230037,7.46432234 15.8558242,6.81142857 15.8558242,6.38241758 C15.8926943,6.02304623 15.785162,5.6637616 15.5569231,5.38373626 C15.3437482,5.18571927 15.0598675,5.08179865 14.7692308,5.09538462 C14.498958,5.09029813 14.2317361,5.15317386 13.9920879,5.27824176 C13.7782667,5.39621241 13.5970346,5.56536235 13.4646154,5.77054945 C13.3086163,6.0195648 13.1990084,6.29477581 13.1410989,6.58285714 C13.0156698,7.21020371 12.9380839,7.84617305 12.909011,8.48527473 C12.8785348,8.95413919 12.8480586,9.68205128 12.8175824,10.669011 C12.3112088,10.669011 11.8423443,10.669011 11.410989,10.669011 C10.9796337,10.669011 10.4298901,10.6643223 9.76175824,10.6549451 L9.76175824,10.669011 Z M21.0320879,5.09186813 C21.1282051,4.59487179 21.1879853,4.25142857 21.2114286,4.06153846 C21.2348718,3.87164835 21.2747253,3.57626374 21.330989,3.17538462 C22.5544544,2.88614216 23.8050635,2.7270166 25.061978,2.70065934 C25.6111573,2.69530789 26.1586269,2.76270696 26.6901099,2.9010989 C27.1275083,3.00270566 27.5273204,3.22577156 27.8435165,3.54461538 C28.1403277,3.89982013 28.2889281,4.35569595 28.2584615,4.81758242 C28.2584615,5.0989011 28.2209524,5.73186813 28.1459341,6.71648352 C28.0709158,7.7010989 28.0134799,8.99047619 27.9736264,10.5846154 C27.4813187,10.5846154 26.9913553,10.5846154 26.5037363,10.5846154 C26.0161172,10.5846154 25.5132601,10.5846154 24.9951648,10.5846154 C25.0654945,10.0313553 25.1428571,8.88967033 25.2272527,7.15956044 C25.0373626,7.25098901 24.8884982,7.31663004 24.7806593,7.35648352 C24.6728205,7.396337 24.4829304,7.45611722 24.210989,7.53582418 C23.9390476,7.61553114 23.7268864,7.68351648 23.5745055,7.73978022 C23.4309778,7.78943171 23.2958135,7.86057081 23.1736264,7.95076923 C23.0745045,8.01996072 22.9916948,8.1099712 22.930989,8.21450549 C22.8829408,8.30796008 22.8587787,8.41185714 22.8606593,8.51692308 C22.8603892,8.68537547 22.9351456,8.84519943 23.0646154,8.95296703 C23.2516755,9.08868004 23.4814148,9.15235776 23.7116484,9.13230769 C23.8294033,9.13174454 23.9469499,9.12234082 24.0632967,9.10417582 C24.2319739,9.07338442 24.3978143,9.02868984 24.5591209,8.97054945 C24.4137729,9.35736264 24.240293,9.92351648 24.0386813,10.669011 C23.6330987,10.737114 23.2226838,10.7723932 22.8114286,10.7745055 C22.281288,10.79044 21.7531843,10.7020245 21.2571429,10.5142857 C20.8528891,10.3496493 20.5159242,10.0535661 20.3006593,9.67384615 C20.0820596,9.32531164 19.960649,8.92465678 19.9489734,8.51340659 C19.9475397,8.27349142 19.9892289,8.03526726 20.0720879,7.81010989 C20.1631717,7.5686034 20.2939035,7.34398238 20.4589011,7.14549451 C20.6347315,6.92892894 20.8435941,6.7414273 21.0778022,6.58989011 C21.3810228,6.40628484 21.705847,6.26099985 22.0448352,6.15736264 C22.5543251,5.99693408 23.073458,5.86891261 23.5991209,5.77406593 C23.8593407,5.72483516 24.0937729,5.67091575 24.3024176,5.61230769 C24.4619612,5.57397014 24.6183198,5.52341812 24.7701099,5.4610989 C24.8534804,5.42440248 24.9296794,5.37320625 24.9951648,5.30989011 C25.047823,5.25898607 25.089682,5.19799155 25.1182418,5.13054945 C25.1438929,5.06684178 25.1570261,4.99878767 25.1569231,4.93010989 C25.1616896,4.75044263 25.0688547,4.5822635 24.9142857,4.49054945 C24.698684,4.37489812 24.4552213,4.32133633 24.210989,4.33582418 C23.1150216,4.3981287 22.0387578,4.65409851 21.0320879,5.09186813 L21.0320879,5.09186813 Z M29.6756044,10.5986813 L29.9112088,7.25802198 L29.9885714,5.33802198 C29.9885714,4.99106227 29.9885714,4.63941392 29.9885714,4.28307692 C29.9885714,3.92673993 29.9885714,3.47311355 29.9885714,2.9221978 C30.5980952,2.9221978 31.0821978,2.9221978 31.4408791,2.9221978 C31.8605128,2.9221978 32.3422711,2.9221978 32.8861538,2.9221978 L32.8545055,3.77318681 C33.0056562,3.59895586 33.167742,3.43452097 33.3397802,3.28087912 C33.4733504,3.16872894 33.61832,3.07090395 33.7723077,2.98901099 C33.9317544,2.9014941 34.1020001,2.83528744 34.2786813,2.79208791 C34.4595464,2.74915317 34.6448801,2.72790473 34.8307692,2.72876458 C35.0344845,2.73106903 35.2373253,2.75583449 35.4356044,2.80263736 C35.4356044,3.34886447 35.4484982,3.80014652 35.4742857,4.15648352 L35.527033,5.31692308 C35.2737297,5.24055967 35.0109208,5.20030965 34.7463736,5.19736264 C34.4790991,5.19065672 34.2129853,5.23481013 33.9621978,5.32747253 C33.7409463,5.41572892 33.541702,5.55135902 33.3784615,5.72483516 C33.2008076,5.91727718 33.0633266,6.14322423 32.9740659,6.38945055 C32.8474687,6.80010111 32.7765068,7.22587283 32.7630769,7.65538462 C32.7232234,8.23208791 32.7032967,8.89201465 32.7032967,9.63516484 C32.7032967,9.89538462 32.7138462,10.2189011 32.7349451,10.6057143 C32.2449817,10.6057143 31.752674,10.6057143 31.258022,10.6057143 C30.76337,10.6057143 30.2358974,10.60337 29.6756044,10.5986813 Z M36.2901099,10.5986813 C36.4307692,9.01626374 36.5479853,7.17245421 36.6417582,5.06725275 C36.7355311,2.96205128 36.7882784,1.37611722 36.8,0.309450549 C37.3813919,0.309450549 37.9264469,0.309450549 38.4351648,0.309450549 C38.9438828,0.309450549 39.4303297,0.309450549 39.8945055,0.309450549 C39.7843223,1.09245421 39.7034432,1.95399267 39.6518681,2.89406593 C40.109011,2.81904762 40.4606593,2.76864469 40.7068132,2.74285714 C40.9498069,2.71754116 41.1939333,2.70463063 41.4382418,2.70417582 C42.1166068,2.68211944 42.7921081,2.80188917 43.4215385,3.05582418 C43.9870348,3.31409679 44.4560967,3.74499357 44.7613187,4.28659341 C45.1214982,4.93010799 45.3001635,5.65935414 45.2782418,6.39648352 C45.2871394,7.19089823 45.1202228,7.97744812 44.7894505,8.69978022 C44.5160403,9.33834618 44.059631,9.8816323 43.4778022,10.2610989 C42.6645438,10.7306411 41.7061617,10.8822283 40.7876923,10.6865934 C40.3536913,10.5908678 39.9501679,10.3891061 39.6131868,10.0993407 C39.4465753,9.94701028 39.2903298,9.78371606 39.1454945,9.61054945 L39.1138462,10.5740659 C38.5769963,10.5740659 38.1280586,10.5740659 37.767033,10.5740659 L36.2901099,10.5986813 Z M39.4549451,5.04967033 C39.4150916,5.88424908 39.3951648,6.39413919 39.3951648,6.57934066 C39.3845219,6.95734764 39.4271377,7.33497119 39.5217582,7.7010989 C39.5998668,7.97110677 39.7687968,8.20586979 40,8.36571429 C40.2306753,8.53055844 40.5076987,8.61797469 40.7912088,8.61538462 C41.076209,8.62072784 41.3551927,8.53308252 41.5859341,8.36571429 C41.8280913,8.18037633 42.0093272,7.9268909 42.1063736,7.6378022 C42.2259764,7.31603013 42.2867239,6.97536778 42.2857143,6.63208791 C42.308138,6.1699462 42.1548735,5.71643432 41.8567033,5.36263736 C41.5370859,5.02946513 41.0866527,4.85443969 40.6259341,4.8843956 C40.2268442,4.89138534 39.8300854,4.94688433 39.4443956,5.04967033 L39.4549451,5.04967033 Z M53.9076923,8.32351648 C53.8420513,8.62593407 53.71663,9.35384615 53.5314286,10.5072527 C52.9476923,10.6221245 52.4565568,10.698315 52.058022,10.7358242 C51.6594872,10.7733333 51.2562637,10.7920879 50.8483516,10.7920879 C50.2950091,10.7959711 49.7422685,10.7548096 49.1956044,10.669011 C48.7389424,10.602167 48.2981427,10.4532481 47.8945055,10.2294505 C47.540779,10.0283292 47.2291555,9.76088225 46.9767033,9.44175824 C46.719937,9.10806596 46.5289969,8.72857243 46.4140659,8.32351648 C46.2853482,7.89098823 46.220198,7.44204379 46.2206569,6.99076923 C46.2222203,6.34180539 46.3537447,5.69972713 46.6074725,5.10241758 C46.8201241,4.55057836 47.1598603,4.05663576 47.5991209,3.66065934 C48.0070945,3.3127584 48.4876765,3.06045286 49.0057143,2.9221978 C49.5349372,2.77656482 50.0814353,2.70322525 50.6303297,2.704123 C51.1839624,2.70196253 51.7356806,2.76930286 52.2725275,2.90461538 C52.7662353,3.02464592 53.2220112,3.26643684 53.5982418,3.60791209 C53.9429728,3.9138249 54.2084254,4.29873112 54.3718681,4.72967033 C54.5277686,5.16260211 54.6051721,5.61987774 54.6004396,6.08 C54.5968079,6.40116059 54.5638505,6.7213183 54.501978,7.03648352 L49.2096703,7.03648352 C49.2096703,7.11619048 49.2096703,7.18886447 49.2096703,7.25450549 C49.17512,7.72913596 49.3962683,8.18617598 49.7898901,8.45362637 C50.2106955,8.71730976 50.7000792,8.85066681 51.1964835,8.83692308 C51.5777959,8.83221395 51.9579212,8.79337762 52.3323077,8.72087912 C52.8604792,8.6157478 53.3828018,8.48311307 53.8971429,8.32351648 L53.9076923,8.32351648 Z M49.2483516,5.86197802 L51.7731868,5.86197802 C51.7731868,5.77758242 51.7731868,5.70608059 51.7731868,5.64747253 C51.7796172,5.41904909 51.7313927,5.19239373 51.6325275,4.98637363 C51.5463797,4.81126398 51.4039872,4.67010966 51.2281319,4.58549451 C51.0421871,4.49881402 50.8389744,4.45552611 50.6338462,4.4589011 C50.4833424,4.45848891 50.3337478,4.48223408 50.1907692,4.52923077 C50.0504413,4.5746517 49.9194204,4.64492658 49.803956,4.7367033 C49.6911537,4.8256927 49.593739,4.93261127 49.5156044,5.05318681 C49.4440775,5.16244539 49.3873213,5.28068756 49.3468132,5.40483516 C49.3008873,5.55715059 49.26448,5.71217518 49.2378022,5.86901099 L49.2483516,5.86197802 Z M55.578022,10.5775824 L55.8136264,7.23692308 L55.890989,5.31692308 C55.890989,4.96996337 55.890989,4.61831502 55.890989,4.26197802 C55.890989,3.90564103 55.890989,3.45201465 55.890989,2.9010989 C56.5005128,2.9010989 56.9846154,2.9010989 57.3432967,2.9010989 C57.7629304,2.9010989 58.2446886,2.9010989 58.7885714,2.9010989 L58.7569231,3.75208791 C58.9080738,3.57785696 59.0701596,3.41342207 59.2421978,3.25978022 C59.375768,3.14763004 59.5207376,3.04980505 59.6747253,2.96791209 C59.834172,2.8803952 60.0044177,2.81418854 60.1810989,2.77098901 C60.361964,2.72805427 60.5472976,2.70680583 60.7331868,2.70766568 C60.9369021,2.70997013 61.1397429,2.73473559 61.338022,2.78153846 C61.338022,3.32776557 61.3509158,3.77904762 61.3767033,4.13538462 L61.4294505,5.29582418 C61.1761473,5.21946076 60.9133384,5.17921075 60.6487912,5.17626374 C60.3815166,5.16955782 60.1154028,5.21371123 59.8646154,5.30637363 C59.6433638,5.39463002 59.4441196,5.53026012 59.2808791,5.70373626 C59.1032252,5.89617827 58.9657441,6.12212533 58.8764835,6.36835165 C58.7498863,6.77900221 58.6789243,7.20477393 58.6654945,7.63428571 C58.625641,8.21098901 58.6057143,8.87091575 58.6057143,9.61406593 C58.6057143,9.87428571 58.6162637,10.1978022 58.6373626,10.5846154 C58.1473993,10.5846154 57.6550916,10.5846154 57.1604396,10.5846154 C56.6657875,10.5846154 56.1359707,10.589304 55.570989,10.5986813 L55.578022,10.5775824 Z M62.1995604,10.450989 C62.1784615,10.2306227 62.1585348,9.99619048 62.1397802,9.74769231 C62.1210256,9.49919414 62.0882051,9.16395604 62.0413187,8.74197802 L61.9815385,8.20043956 C62.3940561,8.36576774 62.8155242,8.50782245 63.243956,8.62593407 C63.5612674,8.71440656 63.8886441,8.76168118 64.218022,8.76659341 C64.4205926,8.7723771 64.6229804,8.74988957 64.8193407,8.69978022 C64.9540325,8.67190061 65.0768374,8.60312987 65.170989,8.50285714 C65.2363486,8.43025674 65.2737436,8.33676916 65.2764835,8.23912088 C65.2747805,8.15298884 65.2465353,8.06948142 65.1956044,8 C65.0947899,7.87659497 64.9762941,7.76876377 64.843956,7.68 C64.4313553,7.37758242 64.0679853,7.1032967 63.7538462,6.85714286 C63.4975919,6.66251865 63.2619316,6.44217627 63.0505495,6.19956044 C62.8996826,6.01428434 62.7808304,5.80510445 62.6989011,5.58065934 C62.6146635,5.35587524 62.5729294,5.1173949 62.5758242,4.87736264 C62.5738947,4.46183095 62.6963649,4.05522988 62.9274725,3.70989011 C63.1813979,3.33698796 63.5527408,3.05971862 63.9824176,2.9221978 C64.5320648,2.74588575 65.107317,2.66268811 65.6843956,2.67604396 C66.5845175,2.69504529 67.4817036,2.78558701 68.3674725,2.94681319 L68.487033,5.0567033 C67.9284379,4.82943913 67.3318268,4.71011691 66.7287912,4.70505495 C66.4354099,4.68831738 66.1415792,4.72892814 65.8637363,4.82461538 C65.7052477,4.87840463 65.598065,5.02648607 65.5964835,5.19384615 C65.5967548,5.24813822 65.6075008,5.3018678 65.6281319,5.35208791 C65.654186,5.41122572 65.6911707,5.46491313 65.7371429,5.51032967 C65.7979215,5.57202993 65.863796,5.6284938 65.9340659,5.67912088 L66.5037363,6.08351648 C66.8061538,6.29450549 67.0405861,6.46798535 67.207033,6.60395604 C67.4457434,6.78341877 67.6628674,6.98992257 67.8540659,7.21934066 C68.0030772,7.40070795 68.1218218,7.60494877 68.2057143,7.82417582 C68.2839012,8.0406284 68.3231877,8.26920402 68.3217582,8.49934066 C68.3250572,8.84496437 68.2351664,9.1850916 68.0615385,9.48395604 C67.8711712,9.79873111 67.6005346,10.0572316 67.2773626,10.232967 C66.9248233,10.4349977 66.5408859,10.5764483 66.1415385,10.6514286 C65.7253384,10.7298676 65.3026461,10.7687223 64.8791209,10.7675017 C64.5111566,10.7630901 64.1437133,10.7384374 63.7784615,10.6936264 C63.3049084,10.6608059 62.7762637,10.5810989 62.1925275,10.4545055 L62.1995604,10.450989 Z" id="Pharbers"></path>
                </g>
            </g>
        </g>
    </g>
</svg>