<?xml version="1.0" encoding="UTF-8"?>
<svg width="185px" height="60px" viewBox="0 0 185 60" version="1.1" xmlns="http://www.w3.org/2000/svg" xmlns:xlink="http://www.w3.org/1999/xlink">
    <!-- Generator: Sketch 63.1 (92452) - https://sketch.com -->
    <title>Combined-Shape</title>
    <desc>Created with Sketch.</desc>
    <g id="Symbols" stroke="none" stroke-width="1" fill="none" fill-rule="evenodd">
        <g id="img_logo_boyunhui" fill="#161C39" fill-rule="nonzero">
            <path d="M39.329925,0 L44.009688,4.891847 L56.655005,4.891847 L59.841227,7.986689 L59.841227,60 L37.338536,60 L37.338536,52.512479 L40.723897,49.21797 L47.295479,49.21797 L47.295479,38.136439 L37.238967,38.136439 L37.238967,30.648918 L40.624327,27.354409 L47.295479,27.354409 L47.295479,15.673877 L32.360065,15.673877 L32.360065,60 L23.000538,60 L19.913886,56.805324 L19.913886,4.891847 L32.360065,4.891847 L32.360065,0 L39.329925,0 Z M182.510764,29.950083 L182.510764,37.637271 L179.424112,40.732113 L160.207212,40.732113 L141.089882,60 L125.258342,60 L144.574812,40.732113 L135.215285,40.732113 L135.215285,33.044925 L138.301938,29.950083 L182.510764,29.950083 Z M14.88563,0 L14.88563,56.805324 L11.749193,60 L4.978471,60 L4.978471,22.362729 L0,27.254576 L0,11.680532 L11.749193,0 L14.88563,0 Z M177.532293,45.024958 L185,52.212978 L185,59.950083 L146.864909,59.950083 L157.618407,49.118136 L165.88267,49.118136 L161.700753,45.024958 L177.532293,45.024958 Z M119.383746,24.159734 L122.470398,27.254576 L122.470398,34.941764 L95.088805,34.941764 L80.949946,49.118136 L97.578041,49.118136 L108.928956,59.900166 L68.304629,59.900166 L65.118407,56.805324 L65.118407,49.118136 L79.356835,34.941764 L65.815393,34.941764 L62.629171,31.846922 L62.629171,24.159734 L119.383746,24.159734 Z M115.002691,44.925125 L126.353606,55.806988 L122.470398,59.800333 L114.504844,59.900166 L99.171152,44.925125 L115.002691,44.925125 Z M163.393434,0 L184.701292,21.863561 L182.510764,24.958403 L143.18084,24.958403 L153.336921,14.875208 L162.198601,14.875208 L155.32831,7.886855 L128.245425,34.941764 L125.258342,34.941764 L125.258342,22.762063 L147.561895,0 L163.393434,0 Z M111.916039,4.891847 L115.002691,7.986689 L115.002691,15.673877 L73.2831,15.673877 L70.196448,12.579035 L70.196448,4.891847 L111.916039,4.891847 Z" id="Combined-Shape"></path>
        </g>
    </g>
</svg>