<?xml version="1.0" encoding="UTF-8"?>
<svg width="101px" height="32px" viewBox="0 0 101 32" version="1.1" xmlns="http://www.w3.org/2000/svg" xmlns:xlink="http://www.w3.org/1999/xlink">
    <!-- Generator: Sketch 61.2 (89653) - https://sketch.com -->
    <title>Group 4</title>
    <desc>Created with Sketch.</desc>
    <defs>
        <linearGradient x1="47.4673754%" y1="65.6277658%" x2="47.4673754%" y2="30.3933898%" id="linearGradient-1">
            <stop stop-color="#ECB218" stop-opacity="0" offset="0%"></stop>
            <stop stop-color="#ECB218" offset="100%"></stop>
        </linearGradient>
        <linearGradient x1="72.5537634%" y1="61.8225373%" x2="107.784178%" y2="94.7400446%" id="linearGradient-2">
            <stop stop-color="#ECB218" stop-opacity="0" offset="0%"></stop>
            <stop stop-color="#ECB218" offset="100%"></stop>
        </linearGradient>
        <linearGradient x1="57.7822663%" y1="47.0715931%" x2="22.524949%" y2="39.0380343%" id="linearGradient-3">
            <stop stop-color="#ECB218" stop-opacity="0" offset="0%"></stop>
            <stop stop-color="#ECB218" offset="100%"></stop>
        </linearGradient>
    </defs>
    <g id="Page-1" stroke="none" stroke-width="1" fill="none" fill-rule="evenodd">
        <g id="b-/-02-nav" transform="translate(-100.000000, -24.000000)" fill-rule="nonzero">
            <g id="Group-4" transform="translate(100.000000, 24.000000)">
                <g id="Group-3">
                    <path d="M22.8926329,16.3741104 L22.8926329,5.60663783 C22.8913031,5.55970356 22.9062076,5.51374778 22.9348307,5.47652794 C23.021179,5.34890999 23.1911189,5.30910423 23.3251604,5.38509937 L26.9365889,7.47389058 C27.2679037,7.66600057 27.4726363,8.01926464 27.474647,8.40224223 L27.474647,23.0378466 C27.4777852,23.4222041 27.2716607,23.7778698 26.9365889,23.9661983 L23.3251604,26.0549895 C23.188971,26.1328244 23.0155443,26.0875147 22.9348307,25.9530115 C22.9113163,25.9086194 22.8992309,25.859069 22.8996658,25.8088356 L22.8996658,20.9701543 L13.7568087,15.695429 L4.59285266,20.9701543 L4.59285266,25.826418 C4.59418247,25.8733523 4.5792779,25.9193081 4.55065486,25.9565279 C4.46430658,26.0841459 4.29436662,26.1239516 4.16032519,26.0479565 L0.538347168,23.9802642 C0.207032395,23.7881542 0.00229981138,23.4348901 0.000325189632,23.0519126 L0.000325189632,8.39872574 C-0.00935408961,8.00810802 0.19766504,7.64413321 0.538347168,7.45279168 L13.162523,0.152571896 C13.5163175,-0.0508572987 13.9515856,-0.0508572987 14.3053801,0.152571896 L18.0258197,2.30114332 C18.2041988,2.40244554 18.3143375,2.59183044 18.3141713,2.7969675 L18.3141713,11.5881763 C18.3155012,11.6351106 18.3005966,11.6810663 18.2719735,11.7182862 C18.1856253,11.8459041 18.0156853,11.8857099 17.8816439,11.8097148 L13.8798856,9.49938508 C13.7912411,9.4490454 13.7362573,9.3551706 13.7357098,9.25323124 L13.7357098,4.4391653 L4.68779772,9.66817629 C4.6200181,9.70559466 4.57817666,9.77713003 4.57878673,9.85454992 L4.57878673,16.3776268 L13.1660395,11.4193851 C13.519834,11.2159559 13.9551021,11.2159559 14.3088966,11.4193851 L22.8926329,16.3741104 Z" id="Path" fill="#F5C924"></path>
                    <path d="M18.3317659,20.0629016 L18.3317659,28.8330115 C18.3327095,28.9353571 18.2773121,29.0299381 18.1875779,29.0791653 L14.1436219,31.3965279 C14.0045571,31.4734891 13.8294772,31.4250295 13.7497757,31.287517 C13.7262614,31.2431249 13.7141759,31.1935745 13.7145996,31.1433411 L13.7145996,17.4290554 L18.3317659,20.0629016 Z" id="Path-2" fill="#F5C924"></path>
                    <path d="M13.7357098,4.4391653 L17.3717538,2.32927519 C17.5666036,2.21593793 17.8071846,2.21544634 18.002496,2.32798635 C18.1978074,2.44052636 18.3180295,2.6489157 18.3176886,2.87433014 L18.3176886,10.9235609 L13.7462593,9.11960486 L13.7357098,4.4391653 Z" id="Path-3" fill="url(#linearGradient-1)"></path>
                    <polygon id="Path-4" fill="url(#linearGradient-2)" points="22.9137318 16.3776268 22.9137318 20.9701543 13.7568087 15.6813631 15.5466988 12.1191653"></polygon>
                    <path d="M13.7357098,15.6813631 L19.977468,19.2857587 L21.7673582,17.4888356 C22.0306129,17.2242305 22.1565304,16.8526527 22.1083716,16.4825181 C22.0602128,16.1123834 21.8434042,15.7853983 21.5212043,15.5969675 L18.5040615,13.8387257 C18.0119858,13.551236 17.40317,13.551236 16.9110944,13.8387257" id="Path-5" fill="url(#linearGradient-3)"></path>
                </g>
                <path d="M32.049556,20.815429 L32.2007648,18.8848796 L32.3976878,15.1116928 L32.4820834,12.4391653 C32.4820834,12.153158 32.4820834,11.8659785 32.4820834,11.5776268 C32.4820834,11.3619492 32.4820834,11.0103008 32.4820834,10.5226818 C33.1455267,10.5367477 33.67886,10.5437807 34.0820834,10.5437807 C34.4853069,10.5437807 35.0151237,10.5320591 35.671534,10.5086159 C36.3443545,10.4851726 36.915197,10.473451 37.3840615,10.473451 C37.8866481,10.456388 38.3894877,10.4988815 38.8820834,10.6000444 C39.1969263,10.6812501 39.4946714,10.8182128 39.7612043,11.00444 C40.0132469,11.1789864 40.23232,11.3968689 40.4082373,11.6479565 C40.583137,11.9041152 40.7127838,12.1883867 40.791534,12.4883961 C40.8764884,12.8024902 40.9190634,13.1265336 40.9181274,13.4519126 C40.9253146,14.1013082 40.7563986,14.7405155 40.4293362,15.3015829 C40.1110881,15.8519664 39.629277,16.2895295 39.0508746,16.553451 C38.4238034,16.8372752 37.7417436,16.9789707 37.053512,16.9683961 C36.7373898,16.9639466 36.4221768,16.9333662 36.1110944,16.8769675 C36.0712409,16.6425353 35.9962226,16.2979199 35.8860395,15.8431213 C35.7758563,15.3883228 35.6855999,15.0483961 35.6152702,14.8233411 C35.8468019,14.8695971 36.0824671,14.8919853 36.3185669,14.8901543 C36.7287359,14.927332 37.1369813,14.8009402 37.4543911,14.538506 C37.6982454,14.3061179 37.8334606,13.9821116 37.8271384,13.6453191 C37.8295565,13.4888529 37.8008694,13.333465 37.7427428,13.1881763 C37.6880007,13.0561356 37.5964527,12.9426161 37.4790065,12.8611433 C37.3596135,12.7764171 37.2225416,12.719905 37.0781274,12.6958686 C36.9130798,12.668828 36.7460297,12.6558875 36.5787867,12.6571873 C36.3982739,12.6571873 36.209556,12.6571873 36.0126329,12.6571873 L35.3796658,12.7029016 C35.3140248,13.673451 35.2636219,14.7518393 35.2284571,15.9380664 C35.162816,18.1018759 35.1299955,19.3994583 35.1299955,19.8308137 L35.1299955,20.815429 L33.6284571,20.815429 L32.049556,20.815429 Z M41.7620834,20.8857587 C41.8417904,20.1332312 41.8992263,19.5143301 41.9343911,19.0290554 C42.0047208,18.0139638 42.0773948,16.8347697 42.1524131,15.491473 C42.1969552,14.6029748 42.2309479,13.7496415 42.2543911,12.931473 C42.2778343,12.1133045 42.289556,11.3174071 42.289556,10.5437807 C42.9272116,10.5437807 43.446479,10.5437807 43.8473582,10.5437807 C44.3888966,10.5437807 44.9011311,10.5437807 45.3840615,10.5437807 L45.2258197,12.3793851 C45.2000321,12.6818027 45.1601787,13.2960151 45.1062593,14.2220224 C45.2323386,14.0555432 45.3685681,13.8970003 45.5141713,13.7472972 C45.622855,13.6412216 45.7405095,13.5447449 45.8658197,13.4589455 C45.9890326,13.3725546 46.1196525,13.2972422 46.2561494,13.2338906 C46.4049338,13.1681667 46.5590433,13.1152283 46.7168087,13.0756488 C46.9052634,13.0275529 47.096766,12.992307 47.2899955,12.9701543 C47.5035273,12.9443245 47.7184236,12.9314073 47.933512,12.931473 C48.3503602,12.9304524 48.7658599,12.9788487 49.1713142,13.0756488 C49.5464524,13.1596183 49.8960906,13.3320261 50.1910944,13.578506 C50.4516726,13.7885098 50.6498798,14.0657567 50.7642812,14.3802642 C50.8678665,14.6944381 50.9189542,15.0235385 50.91549,15.3543301 C50.91549,15.4903008 50.91549,15.6708137 50.91549,15.8958686 C50.91549,16.1209235 50.8990798,16.4045865 50.8662593,16.7468576 L50.7009845,19.2998246 C50.6798856,19.6186525 50.668164,19.8823887 50.6658197,20.0910334 C50.6634754,20.2996781 50.6634754,20.5634144 50.6658197,20.8822422 C50.1430358,20.8822422 49.6436952,20.8822422 49.1677977,20.8822422 C48.6309479,20.8822422 48.085893,20.8822422 47.5326329,20.8822422 C47.6170285,20.2094217 47.6920468,19.4346232 47.7576878,18.5578466 C47.8233289,17.6810701 47.8561494,17.0281763 47.8561494,16.5991653 C47.8930195,16.2397939 47.7854872,15.8805093 47.5572483,15.600484 C47.3440734,15.402467 47.0601927,15.2985464 46.769556,15.3121323 C46.4992832,15.3070459 46.2320613,15.3699216 45.9924131,15.4949895 C45.7785919,15.6129601 45.5973598,15.7821101 45.4649406,15.9872972 C45.3089415,16.2363125 45.1993336,16.5115235 45.1414241,16.7996049 C45.015995,17.4269514 44.9384091,18.0629208 44.9093362,18.7020224 C44.87886,19.1708869 44.8483838,19.898799 44.8179076,20.8857587 C44.311534,20.8857587 43.8426695,20.8857587 43.4113142,20.8857587 C42.9799589,20.8857587 42.4302153,20.8810701 41.7620834,20.8716928 L41.7620834,20.8857587 Z M53.0324131,15.3086159 C53.1285303,14.8116195 53.1883105,14.4681763 53.2117538,14.2782862 C53.235197,14.0883961 53.2750505,13.7930115 53.3313142,13.3921323 C54.5547796,13.1028899 55.8053887,12.9437643 57.0623032,12.9174071 C57.6114825,12.9120556 58.1589521,12.9794547 58.6904351,13.1178466 C59.1278335,13.2194534 59.5276456,13.4425193 59.8438417,13.7613631 C60.1406529,14.1165678 60.2892533,14.5724437 60.2587867,15.0343301 C60.2587867,15.3156488 60.2212776,15.9486159 60.1462593,16.9332312 C60.0712409,17.9178466 60.013805,19.2072239 59.9739516,20.8013631 C59.4816439,20.8013631 58.9916805,20.8013631 58.5040615,20.8013631 C58.0164424,20.8013631 57.5135853,20.8013631 56.99549,20.8013631 C57.0658197,20.248103 57.1431823,19.106418 57.2275779,17.3763082 C57.0376878,17.4677367 56.8888234,17.5333778 56.7809845,17.5732312 C56.6731457,17.6130847 56.4832556,17.6728649 56.2113142,17.7525719 C55.9393728,17.8322789 55.7272116,17.9002642 55.5748307,17.9565279 C55.431303,18.0061794 55.2961387,18.0773185 55.1739516,18.167517 C55.0748297,18.2367084 54.99202,18.3267189 54.9313142,18.4312532 C54.883266,18.5247078 54.8591039,18.6286049 54.8609845,18.7336708 C54.8607144,18.9021232 54.9354708,19.0619472 55.0649406,19.1697148 C55.2520007,19.3054278 55.4817399,19.3691055 55.7119735,19.3490554 C55.8297285,19.3484923 55.947275,19.3390885 56.0636219,19.3209235 C56.2322991,19.2901321 56.3981395,19.2454376 56.5594461,19.1872972 C56.4140981,19.5741104 56.2406182,20.1402642 56.0390065,20.8857587 C55.6334239,20.9538617 55.223009,20.989141 54.8117538,20.9912532 C54.2816132,21.0071877 53.7535095,20.9187722 53.257468,20.7310334 C52.8532143,20.566397 52.5162494,20.2703138 52.3009845,19.8905939 C52.0823848,19.5420594 51.9609742,19.1414045 51.9492986,18.7301543 C51.9478649,18.4902391 51.9895541,18.252015 52.0724131,18.0268576 C52.1634969,17.7853511 52.2942287,17.5607301 52.4592263,17.3622422 C52.6350567,17.1456767 52.8439193,16.958175 53.0781274,16.8066378 C53.381348,16.6230326 53.7061722,16.4777476 54.0451604,16.3741104 C54.5546503,16.2136818 55.0737832,16.0856603 55.5994461,15.9908137 C55.8596658,15.9415829 56.0940981,15.8876635 56.3027428,15.8290554 C56.4622864,15.7907179 56.6186449,15.7401658 56.7704351,15.6778466 C56.8538056,15.6411502 56.9300046,15.589954 56.99549,15.5266378 C57.0481482,15.4757338 57.0900071,15.4147393 57.1185669,15.3472972 C57.1442181,15.2835895 57.1573513,15.2155354 57.1572483,15.1468576 C57.1620148,14.9671903 57.0691799,14.7990112 56.9146109,14.7072972 C56.6990092,14.5916458 56.4555465,14.538084 56.2113142,14.5525719 C55.1153467,14.6148764 54.039083,14.8708462 53.0324131,15.3086159 L53.0324131,15.3086159 Z M61.6759296,20.815429 L61.911534,17.4747697 L61.9888966,15.5547697 C61.9888966,15.20781 61.9888966,14.8561616 61.9888966,14.4998246 C61.9888966,14.1434876 61.9888966,13.6898613 61.9888966,13.1389455 C62.5984204,13.1389455 63.082523,13.1389455 63.4412043,13.1389455 C63.860838,13.1389455 64.3425963,13.1389455 64.886479,13.1389455 L64.8548307,13.9899345 C65.0059814,13.8157036 65.1680672,13.6512687 65.3401054,13.4976268 C65.4736756,13.3854767 65.6186452,13.2876517 65.7726329,13.2057587 C65.9320796,13.1182418 66.1023253,13.0520352 66.2790065,13.0088356 C66.4598716,12.9659009 66.6452052,12.9446524 66.8310944,12.9455123 C67.0348097,12.9478168 67.2376505,12.9725822 67.4359296,13.0193851 C67.4359296,13.5656122 67.4488234,14.0168942 67.4746109,14.3732312 L67.5273582,15.5336708 C67.2740549,15.4573074 67.011246,15.4170574 66.7466988,15.4141104 C66.4794242,15.4074044 66.2133104,15.4515579 65.962523,15.5442202 C65.7412715,15.6324766 65.5420272,15.7681067 65.3787867,15.9415829 C65.2011328,16.1340249 65.0636517,16.3599719 64.9743911,16.6061983 C64.8477939,17.0168488 64.776832,17.4426205 64.7634021,17.8721323 C64.7235486,18.4488356 64.7036219,19.1087624 64.7036219,19.8519126 C64.7036219,20.1121323 64.7141713,20.4356488 64.7352702,20.822462 C64.2453069,20.822462 63.7529992,20.822462 63.2583472,20.822462 C62.7636952,20.822462 62.2362226,20.8201177 61.6759296,20.815429 Z M68.2904351,20.815429 C68.4310944,19.2330115 68.5483105,17.3892019 68.6420834,15.2840005 C68.7358563,13.178799 68.7886036,11.5928649 68.8003252,10.5261983 C69.3817171,10.5261983 69.9267721,10.5261983 70.43549,10.5261983 C70.944208,10.5261983 71.4306549,10.5261983 71.8948307,10.5261983 C71.7846475,11.3092019 71.7037684,12.1707404 71.6521933,13.1108137 C72.1093362,13.0357953 72.4609845,12.9853924 72.7071384,12.9596049 C72.9501321,12.9342889 73.1942585,12.9213783 73.4385669,12.9209235 C74.116932,12.8988672 74.7924333,13.0186369 75.4218637,13.2725719 C75.98736,13.5308445 76.4564219,13.9617413 76.7616439,14.5033411 C77.1218233,15.1468557 77.3004887,15.8761019 77.2785669,16.6132312 C77.2874646,17.407646 77.1205479,18.1941958 76.7897757,18.9165279 C76.5163655,19.5550939 76.0599562,20.09838 75.4781274,20.4778466 C74.664869,20.9473888 73.7064869,21.098976 72.7880175,20.9033411 C72.3540164,20.8076155 71.9504931,20.6058538 71.613512,20.3160884 C71.4469005,20.163758 71.290655,20.0004638 71.1458197,19.8272972 L71.1141713,20.7908137 C70.5773215,20.7908137 70.1283838,20.7908137 69.7673582,20.7908137 L68.2904351,20.815429 Z M71.4552702,15.266418 C71.4154168,16.1009968 71.39549,16.6108869 71.39549,16.7960884 C71.384847,17.1740954 71.4274629,17.5517189 71.5220834,17.9178466 C71.600192,18.1878545 71.769122,18.4226175 72.0003252,18.582462 C72.2310005,18.7473062 72.5080238,18.8347224 72.791534,18.8321323 C73.0765342,18.8374756 73.3555179,18.7498302 73.5862593,18.582462 C73.8284165,18.397124 74.0096524,18.1436386 74.1066988,17.8545499 C74.2263016,17.5327779 74.2870491,17.1921155 74.2860395,16.8488356 C74.3084631,16.3866939 74.1551987,15.933182 73.8570285,15.5793851 C73.537411,15.2462129 73.0869779,15.0711874 72.6262593,15.1011433 C72.2271694,15.1081331 71.8304106,15.1636321 71.4447208,15.266418 L71.4552702,15.266418 Z M85.9080175,18.5402642 C85.8423765,18.8426818 85.7169552,19.5705939 85.5317538,20.7240005 C84.9480175,20.8388723 84.456882,20.9150627 84.0583472,20.9525719 C83.6598124,20.9900811 83.2565889,21.0088356 82.8486768,21.0088356 C82.2953343,21.0127189 81.7425937,20.9715573 81.1959296,20.8857587 C80.7392676,20.8189147 80.2984679,20.6699958 79.8948307,20.4461983 C79.5411042,20.2450769 79.2294807,19.97763 78.9770285,19.658506 C78.7202622,19.3248137 78.5293221,18.9453202 78.4143911,18.5402642 C78.2856734,18.107736 78.2205231,17.6587915 78.2209821,17.207517 C78.2225455,16.5585531 78.3540699,15.9164749 78.6077977,15.3191653 C78.8204493,14.7673261 79.1601854,14.2733835 79.5994461,13.8774071 C80.0074197,13.5295061 80.4880017,13.2772006 81.0060395,13.1389455 C81.5352624,12.9933125 82.0817605,12.919973 82.6306549,12.9208707 C83.1842876,12.9187102 83.7360058,12.9860506 84.2728527,13.1213631 C84.7665605,13.2413936 85.2223364,13.4831846 85.5985669,13.8246598 C85.943298,14.1305726 86.2087506,14.5154788 86.3721933,14.946418 C86.5280938,15.3793498 86.6054972,15.8366255 86.6007648,16.2967477 C86.5971331,16.6179083 86.5641757,16.938066 86.5023032,17.2532312 L81.2099955,17.2532312 C81.2099955,17.3329382 81.2099955,17.4056122 81.2099955,17.4712532 C81.1754451,17.9458837 81.3965935,18.4029237 81.7902153,18.6703741 C82.2110207,18.9340575 82.7004044,19.0674145 83.1968087,19.0536708 C83.5781211,19.0489617 83.9582463,19.0101253 84.3326329,18.9376268 C84.8608044,18.8324955 85.383127,18.6998608 85.897468,18.5402642 L85.9080175,18.5402642 Z M81.2486768,16.0787257 L83.773512,16.0787257 C83.773512,15.9943301 83.773512,15.9228283 83.773512,15.8642202 C83.7799424,15.6357968 83.7317179,15.4091415 83.6328527,15.2031213 C83.5467049,15.0280117 83.4043124,14.8868574 83.2284571,14.8022422 C83.0425123,14.7155617 82.8392995,14.6722738 82.6341713,14.6756488 C82.4836676,14.6752366 82.334073,14.6989818 82.1910944,14.7459785 C82.0507665,14.7913994 81.9197456,14.8616743 81.8042812,14.953451 C81.6914789,15.0424404 81.5940642,15.149359 81.5159296,15.2699345 C81.4444027,15.3791931 81.3876465,15.4974353 81.3471384,15.6215829 C81.3012125,15.7738983 81.2648052,15.9289229 81.2381274,16.0857587 L81.2486768,16.0787257 Z M87.5783472,20.7943301 L87.8139516,17.4536708 L87.8913142,15.5336708 C87.8913142,15.1867111 87.8913142,14.8350627 87.8913142,14.4787257 C87.8913142,14.1223887 87.8913142,13.6687624 87.8913142,13.1178466 C88.500838,13.1178466 88.9849406,13.1178466 89.3436219,13.1178466 C89.7632556,13.1178466 90.2450138,13.1178466 90.7888966,13.1178466 L90.7572483,13.9688356 C90.908399,13.7946047 91.0704848,13.6301698 91.242523,13.4765279 C91.3760932,13.3643778 91.5210628,13.2665528 91.6750505,13.1846598 C91.8344972,13.0971429 92.0047429,13.0309363 92.1814241,12.9877367 C92.3622892,12.944802 92.5476228,12.9235535 92.733512,12.9244134 C92.9372273,12.9267179 93.1400681,12.9514833 93.3383472,12.9982862 C93.3383472,13.5445133 93.3512409,13.9957953 93.3770285,14.3521323 L93.4297757,15.5125719 C93.1764725,15.4362085 92.9136636,15.3959585 92.6491164,15.3930115 C92.3818418,15.3863055 92.115728,15.430459 91.8649406,15.5231213 C91.643689,15.6113777 91.4444448,15.7470078 91.2812043,15.920484 C91.1035503,16.112926 90.9660693,16.338873 90.8768087,16.5850994 C90.7502115,16.9957499 90.6792495,17.4215216 90.6658197,17.8510334 C90.6259662,18.4277367 90.6060395,19.0876635 90.6060395,19.8308137 C90.6060395,20.0910334 90.6165889,20.4145499 90.6376878,20.8013631 C90.1477245,20.8013631 89.6554168,20.8013631 89.1607648,20.8013631 C88.6661127,20.8013631 88.1362959,20.8060517 87.5713142,20.815429 L87.5783472,20.7943301 Z M94.1998856,20.6677367 C94.1787867,20.4473704 94.15886,20.2129382 94.1401054,19.96444 C94.1213508,19.7159419 94.0885303,19.3807038 94.0416439,18.9587257 L93.9818637,18.4171873 C94.3943813,18.5825155 94.8158494,18.7245702 95.2442812,18.8426818 C95.5615926,18.9311543 95.8889693,18.9784289 96.2183472,18.9833411 C96.4209178,18.9891248 96.6233056,18.9666373 96.8196658,18.9165279 C96.9543576,18.8886483 97.0771625,18.8198776 97.1713142,18.7196049 C97.2366738,18.6470045 97.2740688,18.5535169 97.2768087,18.4558686 C97.2751057,18.3697366 97.2468605,18.2862291 97.1959296,18.2167477 C97.0951151,18.0933427 96.9766193,17.9855115 96.8442812,17.8967477 C96.4316805,17.5943301 96.0683105,17.3200444 95.7541713,17.0738906 C95.4979171,16.8792664 95.2622568,16.658924 95.0508746,16.4163082 C94.9000078,16.2310321 94.7811556,16.0218522 94.6992263,15.7974071 C94.6149887,15.572623 94.5732546,15.3341426 94.5761494,15.0941104 C94.5742199,14.6785787 94.6966901,14.2719776 94.9277977,13.9266378 C95.1817231,13.5537357 95.553066,13.2764663 95.9827428,13.1389455 C96.53239,12.9626335 97.1076422,12.8794358 97.6847208,12.8927917 C98.5848427,12.911793 99.4820288,13.0023347 100.367798,13.1635609 L100.487358,15.273451 C99.928763,15.0461868 99.332152,14.9268646 98.7291164,14.9218027 C98.4357351,14.9050651 98.1419043,14.9456759 97.8640615,15.0413631 C97.7055729,15.0951523 97.5983902,15.2432338 97.5968087,15.4105939 C97.59708,15.4648859 97.607826,15.5186155 97.6284571,15.5688356 C97.6545112,15.6279734 97.6914959,15.6816609 97.737468,15.7270774 C97.7982467,15.7887776 97.8641212,15.8452415 97.9343911,15.8958686 L98.5040615,16.3002642 C98.806479,16.5112532 99.0409113,16.6847331 99.2073582,16.8207038 C99.4460686,17.0001665 99.6631926,17.2066703 99.8543911,17.4360884 C100.003402,17.6174557 100.122147,17.8216965 100.206039,18.0409235 C100.284226,18.2573761 100.323513,18.4859517 100.322083,18.7160884 C100.325382,19.0617121 100.235492,19.4018393 100.061864,19.7007038 C99.8714964,20.0154788 99.6008597,20.2739793 99.2776878,20.4497148 C98.9251485,20.6517454 98.5412111,20.7931961 98.1418637,20.8681763 C97.7256635,20.9466153 97.3029713,20.98547 96.8794461,20.9842495 C96.5114818,20.9798378 96.1440385,20.9551851 95.7787867,20.9103741 C95.3052336,20.8775536 94.7765889,20.7978466 94.1928527,20.6712532 L94.1998856,20.6677367 Z" id="Pharbers" fill="#191919"></path>
            </g>
        </g>
    </g>
</svg>