<?xml version="1.0" encoding="UTF-8"?>
<svg width="58px" height="48px" viewBox="0 0 58 48" version="1.1" xmlns="http://www.w3.org/2000/svg" xmlns:xlink="http://www.w3.org/1999/xlink">
    <!-- Generator: Sketch 62 (91390) - https://sketch.com -->
    <title>“</title>
    <desc>Created with Sketch.</desc>
    <g id="Page-1" stroke="none" stroke-width="1" fill="none" fill-rule="evenodd" opacity="0.600000024">
        <g id="h-01-04-行业活动-详情-南京-480" transform="translate(-242.000000, -1587.000000)" fill="#F5C924" fill-rule="nonzero">
            <g id="Group-9" transform="translate(24.000000, 1512.000000)">
                <path d="M264.507042,123 C267.71831,123 270.253521,121.971429 272.28169,120.085714 C274.309859,118.028571 275.492958,115.457143 275.492958,112.371429 C275.492958,109.285714 274.478873,106.885714 272.619718,104.828571 C270.591549,102.771429 268.056338,101.914286 265.183099,101.914286 C263.492958,101.914286 262.140845,102.085714 261.464789,102.428571 C261.464789,98.3142857 262.647887,94.5428571 265.183099,91.2857143 C267.887324,87.5142857 271.43662,84.9428571 276,83.5714286 L276,75 C268.56338,76.8857143 262.816901,80.6571429 258.422535,86.3142857 C254.028169,91.8 252,98.4857143 252,106.2 C252,111 253.014085,115.114286 255.211268,118.2 C257.577465,121.285714 260.619718,123 264.507042,123 Z M230.507042,123 C233.887324,123 236.591549,121.971429 238.619718,120.085714 C240.478873,118.028571 241.492958,115.457143 241.492958,112.371429 C241.492958,109.285714 240.478873,106.885714 238.450704,104.828571 C236.422535,102.771429 234.056338,101.914286 231.352113,101.914286 C229.492958,101.914286 228.140845,102.085714 227.464789,102.428571 C227.464789,98.3142857 228.647887,94.5428571 231.352113,91.1142857 C233.887324,87.5142857 237.43662,84.9428571 242,83.5714286 L242,75 C234.56338,76.8857143 228.816901,80.6571429 224.591549,86.3142857 C220.197183,91.8 218,98.4857143 218,106.2 C218,111.171429 219.014085,115.114286 221.380282,118.2 C223.577465,121.285714 226.619718,123 230.507042,123 Z" id="“"></path>
            </g>
        </g>
    </g>
</svg>