<?xml version="1.0" encoding="UTF-8"?>
<svg width="228px" height="228px" viewBox="0 0 228 228" version="1.1" xmlns="http://www.w3.org/2000/svg" xmlns:xlink="http://www.w3.org/1999/xlink">
    <!-- Generator: Sketch 63.1 (92452) - https://sketch.com -->
    <title>Shape</title>
    <desc>Created with Sketch.</desc>
    <g id="弹窗" stroke="none" stroke-width="1" fill="none" fill-rule="evenodd">
        <g id="j-01-01-报名弹窗-1200" transform="translate(-486.000000, -252.000000)" fill="#161C39" fill-rule="nonzero">
            <path d="M590.5,375.5 L590.5,480 L486,480 L486,375.5 L590.5,375.5 Z M676,375.5 L676,423 L695,423 L695,375.5 L714,375.5 L714,442 L657,442 L657,394.5 L628.5,394.5 L628.5,480 L609.5,480 L609.5,375.5 L676,375.5 Z M676,461 L676,480 L657,480 L657,461 L676,461 Z M714,461 L714,480 L695,480 L695,461 L714,461 Z M571.5,394.5 L505,394.5 L505,461 L571.5,461 L571.5,394.5 Z M552.5,413.5 L552.5,442 L524,442 L524,413.5 L552.5,413.5 Z M590.5,252 L590.5,356.5 L486,356.5 L486,252 L590.5,252 Z M714,252 L714,356.5 L609.5,356.5 L609.5,252 L714,252 Z M571.5,271 L505,271 L505,337.5 L571.5,337.5 L571.5,271 Z M695,271 L628.5,271 L628.5,337.5 L695,337.5 L695,271 Z M552.5,290 L552.5,318.5 L524,318.5 L524,290 L552.5,290 Z M676,290 L676,318.5 L647.5,318.5 L647.5,290 L676,290 Z" id="Shape"></path>
        </g>
    </g>
</svg>