<?xml version="1.0" encoding="UTF-8"?>
<svg width="1764px" height="1736px" viewBox="0 0 1764 1736" version="1.1" xmlns="http://www.w3.org/2000/svg" xmlns:xlink="http://www.w3.org/1999/xlink">
    <!-- Generator: Sketch 61.2 (89653) - https://sketch.com -->
    <title>c 01 Max Copy</title>
    <desc>Created with Sketch.</desc>
    <defs>
        <linearGradient x1="34.1186494%" y1="14.3645822%" x2="58.583335%" y2="94.068788%" id="linearGradient-1">
            <stop stop-color="#FFFFFF" offset="0%"></stop>
            <stop stop-color="#FFFFFF" stop-opacity="0" offset="100%"></stop>
        </linearGradient>
    </defs>
    <g id="c-01-Max-Copy" stroke="none" stroke-width="1" fill="none" fill-rule="evenodd" opacity="0.0199999996">
        <g id="bg-zhuangshi" fill="url(#linearGradient-1)" fill-rule="nonzero">
            <g id="bg-zhuangshi-copy">
                <path d="M730,992 L978,1131.92994 L978,1597.86489 C978.050684,1603.30226 975.075142,1608.32713 970.255288,1610.94245 L753.043904,1734.05838 C745.574374,1738.14715 736.170379,1735.5726 731.889404,1728.26689 C730.626387,1725.90845 729.977244,1723.27595 730,1720.60717 L730,992 Z M760.227823,72.1334925 L958.202437,186.672213 C967.694469,192.072557 973.555248,202.168523 973.546405,213.104225 L973.546405,681.756925 C973.617168,684.258956 972.824055,686.708824 971.300946,688.692985 C966.706122,695.496202 957.663158,697.618217 950.530453,693.566973 L737.586114,570.405044 C732.869101,567.721473 729.943264,562.717078 729.91413,557.282768 L729.91413,300.648549 L248.450348,579.403176 C244.843612,581.397921 242.617116,585.211417 242.649579,589.338613 L242.649579,937.078917 L699.600437,672.758793 C718.426795,661.914137 741.588586,661.914137 760.414945,672.758793 L1217.17868,936.891455 L1217.17868,362.885628 C1217.10792,360.383597 1217.90103,357.933729 1219.42414,355.949568 C1224.01896,349.146351 1233.06193,347.024336 1240.19463,351.07558 L1432.36848,462.427462 C1449.99863,472.6687 1460.893,491.500941 1461,511.917187 L1461,1292.1302 C1461.16699,1312.62001 1450.19855,1331.58028 1432.36848,1341.61993 L1240.19463,1452.97181 C1232.94763,1457.12113 1223.71913,1454.70571 1219.42414,1447.53544 C1218.17288,1445.16893 1217.52978,1442.52743 1217.55292,1439.84953 L1217.55292,1181.90309 L731.036859,900.711467 L243.398066,1181.90309 L243.398066,1440.78684 C243.468828,1443.28887 242.675716,1445.73874 241.152607,1447.7229 C236.557782,1454.52612 227.514819,1456.64813 220.382113,1452.59689 L27.6469034,1342.36977 C10.0167516,1332.12853 -0.87762084,1313.29629 -0.982695783,1292.88005 L-0.982695783,511.729726 C-1.49775631,490.90619 9.51828936,471.502968 27.6469034,461.302695 L699.413315,72.1334925 C718.239674,61.2888358 741.401464,61.2888358 760.227823,72.1334925 Z" id="Combined-Shape-Copy"></path>
                <path d="M1032,928 L1280,1067.92994 L1280,1533.86489 C1280.05068,1539.30226 1277.07514,1544.32713 1272.25529,1546.94245 L1055.0439,1670.05838 C1047.57437,1674.14715 1038.17038,1671.5726 1033.8894,1664.26689 C1032.62639,1661.90845 1031.97724,1659.27595 1032,1656.60717 L1032,928 Z M1062.22782,8.13349254 L1260.20244,122.672213 C1269.69447,128.072557 1275.55525,138.168523 1275.5464,149.104225 L1275.5464,617.756925 C1275.61717,620.258956 1274.82406,622.708824 1273.30095,624.692985 C1268.70612,631.496202 1259.66316,633.618217 1252.53045,629.566973 L1039.58611,506.405044 C1034.8691,503.721473 1031.94326,498.717078 1031.91413,493.282768 L1031.91413,236.648549 L550.450348,515.403176 C546.843612,517.397921 544.617116,521.211417 544.649579,525.338613 L544.649579,873.078917 L1001.60044,608.758793 C1020.4268,597.914137 1043.58859,597.914137 1062.41494,608.758793 L1519.17868,872.891455 L1519.17868,298.885628 C1519.10792,296.383597 1519.90103,293.933729 1521.42414,291.949568 C1526.01896,285.146351 1535.06193,283.024336 1542.19463,287.07558 L1734.36848,398.427462 C1751.99863,408.6687 1762.893,427.500941 1763,447.917187 L1763,1228.1302 C1763.16699,1248.62001 1752.19855,1267.58028 1734.36848,1277.61993 L1542.19463,1388.97181 C1534.94763,1393.12113 1525.71913,1390.70571 1521.42414,1383.53544 C1520.17288,1381.16893 1519.52978,1378.52743 1519.55292,1375.84953 L1519.55292,1117.90309 L1033.03686,836.711467 L545.398066,1117.90309 L545.398066,1376.78684 C545.468828,1379.28887 544.675716,1381.73874 543.152607,1383.7229 C538.557782,1390.52612 529.514819,1392.64813 522.382113,1388.59689 L329.646903,1278.36977 C312.016752,1268.12853 301.122379,1249.29629 301.017304,1228.88005 L301.017304,447.729726 C300.502244,426.90619 311.518289,407.502968 329.646903,397.302695 L1001.41331,8.13349254 C1020.23967,-2.71116418 1043.40146,-2.71116418 1062.22782,8.13349254 Z" id="Combined-Shape-Copy-2"></path>
            </g>
        </g>
    </g>
</svg>