<?xml version="1.0" standalone="no"?><!DOCTYPE svg PUBLIC "-//W3C//DTD SVG 1.1//EN" "http://www.w3.org/Graphics/SVG/1.1/DTD/svg11.dtd"><svg t="1568955702007" class="icon" viewBox="0 0 1024 1024" version="1.1" xmlns="http://www.w3.org/2000/svg" p-id="1362" xmlns:xlink="http://www.w3.org/1999/xlink" width="200" height="200"><defs><style type="text/css"></style></defs><path d="M46.545455 46.545455m93.090909 0l744.727272 0q93.090909 0 93.090909 93.090909l0 744.727272q0 93.090909-93.090909 93.090909l-744.727272 0q-93.090909 0-93.090909-93.090909l0-744.727272q0-93.090909 93.090909-93.090909Z" fill="#3172E0" p-id="1363"></path><path d="M7.773091 139.170909A131.677091 131.677091 0 0 1 139.170909 7.819636h745.565091a131.677091 131.677091 0 0 1 131.444364 131.444364v745.565091a131.677091 131.677091 0 0 1-131.444364 131.444364H139.217455A131.677091 131.677091 0 0 1 7.773091 884.829091V139.217455z m77.544727 0v745.658182c0 29.509818 24.250182 53.853091 53.899637 53.853091h745.56509c29.556364 0 53.899636-24.250182 53.899637-53.899637V139.217455c0-29.556364-24.250182-53.899636-53.899637-53.899637H139.217455c-29.556364 0-53.899636 24.250182-53.899637 53.899637z" fill="#3172E0" p-id="1364"></path><path d="M334.149818 457.122909A77.591273 77.591273 0 1 0 224.349091 566.923636l155.182545 155.136c30.254545 30.254545 79.406545 30.254545 109.707637 0l310.318545-310.318545a77.591273 77.591273 0 0 0-109.754182-109.707636l-255.441454 255.441454L334.196364 457.122909z" fill="#FFFFFF" p-id="1365"></path></svg>