<?xml version="1.0" standalone="no"?><!DOCTYPE svg PUBLIC "-//W3C//DTD SVG 1.1//EN" "http://www.w3.org/Graphics/SVG/1.1/DTD/svg11.dtd"><svg t="1570776540140" class="icon" viewBox="0 0 1024 1024" version="1.1" xmlns="http://www.w3.org/2000/svg" p-id="2880" xmlns:xlink="http://www.w3.org/1999/xlink" width="200" height="200"><defs><style type="text/css"></style></defs><path d="M256 896c-68.168 0-123.89-53.287-127.783-120.479L128 768l-0.038-248.79-1.669 1.75c-15.38 15.38-39.793 16.564-56.563 3.55l-4.023-3.55c-15.381-15.38-16.564-39.793-3.55-56.563l3.55-4.024 355.783-355.47c47.988-47.987 124.599-49.906 174.876-5.758l6.144 5.759 355.783 355.47c16.663 16.662 16.663 43.924 0 60.586-15.38 15.38-39.793 16.564-56.563 3.55l-4.023-3.55-1.745-1.75L896 768c0 68.168-53.287 123.89-120.479 127.783L768 896H256z m229.85-734.306l-4.02 3.55-268.535 268.59 0.038 334.166c0 21.881 16.471 39.915 37.691 42.38l4.976 0.287h170.667v-192c0-47.129 38.205-85.334 85.333-85.334s85.333 38.205 85.333 85.334v192H768c21.881 0 39.915-16.471 42.38-37.691l0.287-4.976-0.038-334.165-268.46-268.592c-15.38-15.38-39.582-16.563-56.32-3.549z" p-id="2881"></path></svg>