<?xml version="1.0" standalone="no"?><!DOCTYPE svg PUBLIC "-//W3C//DTD SVG 1.1//EN" "http://www.w3.org/Graphics/SVG/1.1/DTD/svg11.dtd"><svg t="1569310562326" class="icon" viewBox="0 0 1024 1024" version="1.1" xmlns="http://www.w3.org/2000/svg" p-id="2850" xmlns:xlink="http://www.w3.org/1999/xlink" width="200" height="200"><defs><style type="text/css"></style></defs><path d="M512 896c212.077 0 384-171.923 384-384S724.077 128 512 128 128 299.923 128 512s171.923 384 384 384z m0-170.667c23.316 0 42.284 18.735 42.66 41.962l0.007 0.705c0 23.316-18.735 42.284-41.962 42.66l-0.705 0.007c-23.316 0-42.284-18.735-42.66-41.962l-0.007-0.705c0-23.316 18.735-42.284 41.962-42.66l0.705-0.007z m40.062-464.762c61.61 13.995 111.701 63.915 125.91 125.483 20.739 89.929-29.611 170.867-105.677 199.635l-2.313 0.855c-8.704 3.115-14.89 10.88-14.89 20.139v33.323c0 23.552-19.073 42.666-42.668 42.666-23.552 0-42.666-19.114-42.666-42.666v-85.888c0.338-23.063 18.824-41.736 41.55-42.107l0.69-0.005c47.061 0 85.333-38.315 85.333-85.334 0-47.061-38.272-85.333-85.333-85.333-47.104 0-85.359 39.381-85.316 86.485-0.646 23.019-19.518 41.51-42.682 41.51-22.283 0-40.595-17.112-42.503-38.903l-0.046-0.739a53.889 53.889 0 0 1-0.118-3.025c0-107.357 99.048-191.528 210.729-166.096z" p-id="2851"></path></svg>