<svg id="LOGO" xmlns="http://www.w3.org/2000/svg" viewBox="0 0 845.38 159.01"><defs><style>.cls-1{fill:#00499d;}</style></defs><title>UCB (Inspired by patients, Driven by science) (1)</title><path class="cls-1" d="M268.6,70.87H272v56H268.6Z" transform="translate(-70.87 -70.39)"/><path class="cls-1" d="M283.77,86.87h3.36v7a16.77,16.77,0,0,1-.32,3.28H287a18.44,18.44,0,0,1,17-11.28c10.4,0,13.2,6.16,13.2,15.6v25.36h-3.36V102.71c0-7-.88-13.52-9.84-13.52a17,17,0,0,0-16.16,12.72,19.87,19.87,0,0,0-.64,5.44v19.52h-3.36Z" transform="translate(-70.87 -70.39)"/><path class="cls-1" d="M325.3,119.51a17.42,17.42,0,0,0,12.4,5c4.88,0,9.2-2.56,9.2-7.52,0-10.16-22-7.28-22-20.32,0-7.12,6-10.8,12.8-10.8,8.16,0,11.84,4.32,11.84,4.32l-2,2.72s-3.28-3.76-10.08-3.76c-4.56,0-9,2.08-9,7.28,0,10.4,22,7.28,22,20.56,0,6.4-5.44,10.8-12.8,10.8-9.68,0-14.48-5.76-14.48-5.76Z" transform="translate(-70.87 -70.39)"/><path class="cls-1" d="M357.6,86.87H361v4.8a20.36,20.36,0,0,1-.24,3.2h.16s3.28-9,14.4-9c10.72,0,17.28,8.56,17.28,21,0,12.72-7.44,21-17.76,21a15.28,15.28,0,0,1-14-9h-.16a17.88,17.88,0,0,1,.32,3.52v20.56H357.6Zm17.2,37.68c7.84,0,14.24-6.48,14.24-17.68,0-10.8-5.76-17.68-13.92-17.68-7.36,0-14.24,5.2-14.24,17.76C360.89,115.83,365.84,124.55,374.81,124.55Z" transform="translate(-70.87 -70.39)"/><path class="cls-1" d="M400.28,70.87h4v5.84h-4Zm.32,16H404v40H400.6Z" transform="translate(-70.87 -70.39)"/><path class="cls-1" d="M414.2,86.87h3.36v7.6a16.78,16.78,0,0,1-.32,3.28h.16c2-6.16,6.48-11.2,12.8-11.2a12.6,12.6,0,0,1,2.32.24v3.36a13,13,0,0,0-1.84-.16c-6.24,0-10.16,5.28-11.92,11.2a28.44,28.44,0,0,0-1.2,8.4v17.28H414.2Z" transform="translate(-70.87 -70.39)"/><path class="cls-1" d="M452.5,85.91c10.88,0,16.32,8.56,16.32,18.24,0,.88-.16,2.16-.16,2.16H436.58c0,11.6,7.84,18.24,17.12,18.24a18.11,18.11,0,0,0,12.4-5l1.84,2.8a21.8,21.8,0,0,1-14.24,5.52c-11.28,0-20.64-8.16-20.64-20.88C433.06,93.43,442.26,85.91,452.5,85.91Zm12.8,17.28C464.9,93.43,459.06,89,452.42,89c-7.36,0-14.16,4.8-15.6,14.16Z" transform="translate(-70.87 -70.39)"/><path class="cls-1" d="M492.11,85.91c10.08,0,13.84,9,13.84,9h.16a16.77,16.77,0,0,1-.32-3.28V70.87h3.36v56h-3.36v-5a13,13,0,0,1,.32-3h-.16a15.31,15.31,0,0,1-14.48,9c-10.72,0-17.28-8.56-17.28-21C474.19,94.15,481.63,85.91,492.11,85.91Zm-.48,38.64c7.36,0,14.24-5.2,14.24-17.76,0-8.88-4.56-17.6-13.92-17.6-7.84,0-14.24,6.48-14.24,17.68C477.71,117.67,483.47,124.55,491.63,124.55Z" transform="translate(-70.87 -70.39)"/><path class="cls-1" d="M542.18,70.87h3.36v20.8a16.77,16.77,0,0,1-.32,3.28h.16a15.3,15.3,0,0,1,14.48-9c10.72,0,17.28,8.56,17.28,21,0,12.72-7.44,21-17.92,21-10.08,0-13.84-9-13.84-9h-.16a17.88,17.88,0,0,1,.32,3.52v4.56h-3.36Zm17.2,53.68c7.84,0,14.24-6.48,14.24-17.68,0-10.8-5.76-17.68-13.92-17.68-7.36,0-14.24,5.2-14.24,17.76C545.47,115.83,550,124.55,559.39,124.55Z" transform="translate(-70.87 -70.39)"/><path class="cls-1" d="M579,138.55a8.61,8.61,0,0,0,5,1.92c3.84,0,6.24-3.44,7.84-7.2l2.88-6.64L578.07,86.87h3.6l13.2,31.92c.8,1.92,1.44,3.76,1.44,3.76h.16s.56-1.84,1.36-3.76L611,86.87h3.6l-20.56,49.36c-1.76,4.16-5.12,7.44-10.16,7.44a10.84,10.84,0,0,1-6.48-2.24Z" transform="translate(-70.87 -70.39)"/><path class="cls-1" d="M639.35,86.39h7.12v3.44a28.38,28.38,0,0,1-.16,3h.16s3.44-7.36,13.6-7.36c10.88,0,17.76,8.64,17.76,21.2,0,12.88-7.76,21.2-18.32,21.2a14.09,14.09,0,0,1-12.4-6.64H647s.16,1.44.16,3.52v18.16h-7.76Zm19,34.8c6.4,0,11.68-5.28,11.68-14.48,0-8.8-4.72-14.48-11.44-14.48-6.08,0-11.68,4.24-11.68,14.56C646.87,114,650.87,121.19,658.31,121.19Z" transform="translate(-70.87 -70.39)"/><path class="cls-1" d="M705.19,101.59H707v-.72c0-6.64-3.76-8.88-8.88-8.88a20.54,20.54,0,0,0-11.28,3.92l-3.2-5.68a25.4,25.4,0,0,1,15.12-4.8c10.24,0,16,5.6,16,15.84v25.6h-7.2V123a30.36,30.36,0,0,1,.16-3.2h-.16a14,14,0,0,1-13,8c-7,0-13.76-4.24-13.76-12.32C680.79,102.15,698.39,101.59,705.19,101.59Zm-9,20c6.56,0,10.8-6.88,10.8-12.88v-1.28h-2c-5.84,0-16.4.4-16.4,7.68C688.63,118.39,691.19,121.59,696.23,121.59Z" transform="translate(-70.87 -70.39)"/><path class="cls-1" d="M723.74,93.19h-5.28V86.95H724V75.27h7.52V86.95h9.76v6.24H731.5v18c0,8.08,5.68,9.12,8.64,9.12a9.34,9.34,0,0,0,1.84-.16V127a21.24,21.24,0,0,1-2.72.16c-5.2,0-15.52-1.6-15.52-15.12Z" transform="translate(-70.87 -70.39)"/><path class="cls-1" d="M746.43,70.39h7.84v7.92h-7.84Zm.08,16h7.76v40.48h-7.76Z" transform="translate(-70.87 -70.39)"/><path class="cls-1" d="M780.65,85.43c11.44,0,17.52,8.48,17.52,19,0,1-.24,3.36-.24,3.36H768.41c.4,8.88,6.72,13.36,13.92,13.36a19.3,19.3,0,0,0,12-4.72l3.2,5.68a24.1,24.1,0,0,1-15.68,5.76c-12.72,0-21.44-9.2-21.44-21.2C760.41,93.75,769.13,85.43,780.65,85.43Zm9.6,16.48c-.24-7-4.56-10.32-9.76-10.32-5.92,0-10.72,3.68-11.84,10.32Z" transform="translate(-70.87 -70.39)"/><path class="cls-1" d="M804.56,86.39h7.52v5.36a28.37,28.37,0,0,1-.16,3h.16a16.48,16.48,0,0,1,15.2-9.28c9.52,0,13.92,5.2,13.92,15.52v25.92h-7.76V102.71c0-5.68-1.2-10.16-7.68-10.16a13.25,13.25,0,0,0-12.8,9.92,19.15,19.15,0,0,0-.64,5.44v19h-7.76Z" transform="translate(-70.87 -70.39)"/><path class="cls-1" d="M850.23,93.19h-5.28V86.95h5.52V75.27H858V86.95h9.76v6.24H858v18c0,8.08,5.68,9.12,8.64,9.12a9.35,9.35,0,0,0,1.84-.16V127a21.27,21.27,0,0,1-2.72.16c-5.2,0-15.52-1.6-15.52-15.12Z" transform="translate(-70.87 -70.39)"/><path class="cls-1" d="M875,116.39a17.36,17.36,0,0,0,11.6,4.72c3.36,0,6.72-1.76,6.72-5,0-7.44-20.8-5.92-20.8-19.12,0-7.36,6.56-11.52,14.64-11.52,8.88,0,13,4.48,13,4.48l-3.12,5.84a14.81,14.81,0,0,0-10-3.6c-3.36,0-6.64,1.44-6.64,5,0,7.28,20.8,5.68,20.8,19,0,6.72-5.76,11.76-14.64,11.76a21.77,21.77,0,0,1-15.36-5.92Z" transform="translate(-70.87 -70.39)"/><path class="cls-1" d="M908.08,118.63h8.16v8.24h-8.16Z" transform="translate(-70.87 -70.39)"/><path class="cls-1" d="M268.6,156.6h17.6c16.64,0,27.92,10.24,27.92,28s-11.28,28-27.92,28H268.6Zm17,52.8c14.88,0,24.88-8.72,24.88-24.8s-10-24.8-24.88-24.8H272v49.6Z" transform="translate(-70.87 -70.39)"/><path class="cls-1" d="M323.27,172.6h3.36v7.6a16.78,16.78,0,0,1-.32,3.28h.16c2-6.16,6.48-11.2,12.8-11.2a12.57,12.57,0,0,1,2.32.24v3.36a13,13,0,0,0-1.84-.16c-6.24,0-10.16,5.28-11.92,11.2a28.43,28.43,0,0,0-1.2,8.4V212.6h-3.36Z" transform="translate(-70.87 -70.39)"/><path class="cls-1" d="M346.42,156.6h4v5.84h-4Zm.32,16h3.36v40h-3.36Z" transform="translate(-70.87 -70.39)"/><path class="cls-1" d="M355,172.6h3.6L371,204c.72,1.92,1.36,4.32,1.36,4.32h.16s.64-2.4,1.36-4.32l12.32-31.36h3.52L374,212.6h-3.2Z" transform="translate(-70.87 -70.39)"/><path class="cls-1" d="M410,171.64c10.88,0,16.32,8.56,16.32,18.24,0,.88-.16,2.16-.16,2.16H394.09c0,11.6,7.84,18.24,17.12,18.24a18.11,18.11,0,0,0,12.4-5l1.84,2.8a21.8,21.8,0,0,1-14.24,5.52c-11.28,0-20.64-8.16-20.64-20.88C390.57,179.16,399.77,171.64,410,171.64Zm12.8,17.28c-.4-9.76-6.24-14.16-12.88-14.16-7.36,0-14.16,4.8-15.6,14.16Z" transform="translate(-70.87 -70.39)"/><path class="cls-1" d="M434.15,172.6h3.36v7a16.77,16.77,0,0,1-.32,3.28h.16a18.44,18.44,0,0,1,17-11.28c10.4,0,13.2,6.16,13.2,15.6V212.6h-3.36V188.44c0-7-.88-13.52-9.84-13.52a17,17,0,0,0-16.16,12.72,19.91,19.91,0,0,0-.64,5.44V212.6h-3.36Z" transform="translate(-70.87 -70.39)"/><path class="cls-1" d="M500,156.6h3.36v20.8a16.77,16.77,0,0,1-.32,3.28h.16a15.3,15.3,0,0,1,14.48-9c10.72,0,17.28,8.56,17.28,21,0,12.72-7.44,21-17.92,21-10.08,0-13.84-9-13.84-9H503a17.89,17.89,0,0,1,.32,3.52v4.56H500Zm17.2,53.68c7.84,0,14.24-6.48,14.24-17.68,0-10.8-5.76-17.68-13.92-17.68-7.36,0-14.24,5.2-14.24,17.76C503.27,201.56,507.83,210.28,517.19,210.28Z" transform="translate(-70.87 -70.39)"/><path class="cls-1" d="M536.75,224.28a8.61,8.61,0,0,0,5,1.92c3.84,0,6.24-3.44,7.84-7.2l2.88-6.64L535.88,172.6h3.6l13.2,31.92c.8,1.92,1.44,3.76,1.44,3.76h.16s.56-1.84,1.36-3.76l13.2-31.92h3.6L551.88,222c-1.76,4.16-5.12,7.44-10.16,7.44a10.84,10.84,0,0,1-6.48-2.24Z" transform="translate(-70.87 -70.39)"/><path class="cls-1" d="M597.64,202.12a17.36,17.36,0,0,0,11.6,4.72c3.36,0,6.72-1.76,6.72-5,0-7.44-20.8-5.92-20.8-19.12,0-7.36,6.56-11.52,14.64-11.52,8.88,0,13,4.48,13,4.48l-3.12,5.84a14.81,14.81,0,0,0-10-3.6c-3.36,0-6.64,1.44-6.64,5,0,7.28,20.8,5.68,20.8,19,0,6.72-5.76,11.76-14.64,11.76a21.77,21.77,0,0,1-15.36-5.92Z" transform="translate(-70.87 -70.39)"/><path class="cls-1" d="M648.23,171.16c10.16,0,15.2,5.92,15.2,5.92l-3.68,5.44a16.4,16.4,0,0,0-11.2-4.64c-8.16,0-14.08,6.08-14.08,14.4s5.92,14.56,14.32,14.56a18.34,18.34,0,0,0,12.48-5.44l3.12,5.68a22.18,22.18,0,0,1-16.16,6.48c-12.72,0-21.68-9-21.68-21.2C626.55,180.36,635.51,171.16,648.23,171.16Z" transform="translate(-70.87 -70.39)"/><path class="cls-1" d="M669.12,156.12H677V164h-7.84Zm.08,16H677V212.6H669.2Z" transform="translate(-70.87 -70.39)"/><path class="cls-1" d="M703.34,171.16c11.44,0,17.52,8.48,17.52,19,0,1-.24,3.36-.24,3.36H691.1c.4,8.88,6.72,13.36,13.92,13.36a19.3,19.3,0,0,0,12-4.72l3.2,5.68a24.1,24.1,0,0,1-15.68,5.76c-12.72,0-21.44-9.2-21.44-21.2C683.1,179.48,691.82,171.16,703.34,171.16Zm9.6,16.48c-.24-7-4.56-10.32-9.76-10.32-5.92,0-10.72,3.68-11.84,10.32Z" transform="translate(-70.87 -70.39)"/><path class="cls-1" d="M727.25,172.12h7.52v5.36a28.37,28.37,0,0,1-.16,3h.16a16.48,16.48,0,0,1,15.2-9.28c9.52,0,13.92,5.2,13.92,15.52V212.6h-7.76V188.44c0-5.68-1.2-10.16-7.68-10.16a13.26,13.26,0,0,0-12.8,9.92,19.15,19.15,0,0,0-.64,5.44v19h-7.76Z" transform="translate(-70.87 -70.39)"/><path class="cls-1" d="M791.21,171.16c10.16,0,15.2,5.92,15.2,5.92l-3.68,5.44a16.4,16.4,0,0,0-11.2-4.64c-8.16,0-14.08,6.08-14.08,14.4s5.92,14.56,14.32,14.56a18.34,18.34,0,0,0,12.48-5.44l3.12,5.68a22.18,22.18,0,0,1-16.16,6.48c-12.72,0-21.68-9-21.68-21.2C769.53,180.36,778.49,171.16,791.21,171.16Z" transform="translate(-70.87 -70.39)"/><path class="cls-1" d="M829.22,171.16c11.44,0,17.52,8.48,17.52,19,0,1-.24,3.36-.24,3.36H817c.4,8.88,6.72,13.36,13.92,13.36a19.3,19.3,0,0,0,12-4.72l3.2,5.68a24.1,24.1,0,0,1-15.68,5.76c-12.72,0-21.44-9.2-21.44-21.2C809,179.48,817.7,171.16,829.22,171.16Zm9.6,16.48c-.24-7-4.56-10.32-9.76-10.32-5.92,0-10.72,3.68-11.84,10.32Z" transform="translate(-70.87 -70.39)"/><path class="cls-1" d="M853,204.36h8.16v8.24H853Z" transform="translate(-70.87 -70.39)"/><path class="cls-1" d="M212.6,70.87V130.7a71.76,71.76,0,0,0-59.83-59.83Zm-81.9,0H70.87V130.7A71.76,71.76,0,0,1,130.7,70.87m-59.83,81.9V212.6H130.7a71.76,71.76,0,0,1-59.83-59.83m81.9,59.83H212.6V152.77a71.77,71.77,0,0,1-59.83,59.83M175,137.94V127.81H152.75v27.84H175V145.53H162.87v-7.59Zm21,0h-7.85v7.59H196Zm9.37,17.71H178.05V112.12h10.12v15.69h17.21Zm-56-27.84h-7.19V70.87h-.91v56.94h-2v17.72h-7.34V127.81h-9.37v27.84h18.73V212.6h.91V155.65h7.19Z" transform="translate(-70.87 -70.39)"/></svg>