<?xml version="1.0" encoding="UTF-8"?>
<svg width="59px" height="50px" viewBox="0 0 59 50" version="1.1" xmlns="http://www.w3.org/2000/svg" xmlns:xlink="http://www.w3.org/1999/xlink">
    <!-- Generator: Sketch 63.1 (92452) - https://sketch.com -->
    <title>Shape</title>
    <desc>Created with Sketch.</desc>
    <g id="Symbols" stroke="none" stroke-width="1" fill="none" fill-rule="evenodd">
        <g id="tag/text-copy" transform="translate(-11.000000, -15.000000)" fill="#161C39" fill-rule="nonzero">
            <path d="M16.2644436,47 L16.6226048,47.0040895 C17.911985,47.0340792 18.9387137,47.2290123 19.7027909,47.5888889 C20.5363296,47.9814815 21.1279932,48.5814815 21.4777818,49.3888889 C21.7957714,50.1228956 21.9692203,51.0742271 21.9981284,52.2428834 L22.0024647,52.6 L22.0024647,59.1555556 L21.9981284,59.5208448 C21.9692203,60.7170493 21.7957714,61.6989899 21.4777818,62.4666667 C21.1279932,63.3111111 20.5437719,63.9444444 19.7251178,64.3666667 C18.9746849,64.7537037 17.9803612,64.9633488 16.7421469,64.9956019 L16.3984052,65 L12,65 L12,47 L16.2644436,47 Z M31.1692642,47 L34.7862269,65 L31.7274375,65 L31.0129757,60.8444444 L27.8648786,60.8444444 L27.1280899,65 L24.0246466,65 L27.6416093,47 L31.1692642,47 Z M44.3102573,47 L44.3102573,49.4222222 L41.4970642,49.4222222 L41.4970642,65 L38.1926785,65 L38.1926785,49.4222222 L35.3125045,49.4222222 L35.3125045,47 L44.3102573,47 Z M52.3830373,47 L56,65 L52.9412106,65 L52.2267488,60.8444444 L49.0786517,60.8444444 L48.341863,65 L45.2384197,65 L48.8553824,47 L52.3830373,47 Z M16.2644436,49.3333333 L15.2820587,49.3333333 L15.2820587,62.7111111 L16.3090975,62.7111111 C17.0384439,62.7111111 17.5668479,62.5851852 17.8943095,62.3333333 C18.2217712,62.0814815 18.4301559,61.7296296 18.5194636,61.2777778 C18.5988482,60.8761317 18.6429508,60.301829 18.6517713,59.5548697 L18.6534252,59.2666667 L18.6534252,52.3777778 L18.6514957,52.1182442 C18.6412051,51.445176 18.5897521,50.9242798 18.4971366,50.5555556 C18.3929443,50.1407407 18.1733962,49.8333333 17.8384922,49.6333333 C17.5407998,49.4555556 17.0931586,49.3567901 16.4955687,49.337037 L16.2644436,49.3333333 Z M29.4277637,51.2 L28.1997825,58.7555556 L30.6557448,58.7555556 L29.4277637,51.2 Z M50.6415368,51.2 L49.4135556,58.7555556 L51.8695179,58.7555556 L50.6415368,51.2 Z M42.1133682,15 C43.9678144,15 45.2955978,15.4771084 46.0967186,16.4313253 C46.8477693,17.3259036 47.246765,18.6207549 47.2937056,20.3158791 L47.2983997,20.660241 L47.2983997,27.253012 L47.2936622,27.5975433 C47.2462869,29.2943618 46.8435968,30.6036145 46.0855919,31.5253012 C45.2770534,32.5084337 43.9529788,33 42.1133682,33 C40.2440864,33 38.9088852,32.5120482 38.1077644,31.5361446 C37.3567137,30.6212349 36.957718,29.3092291 36.9107774,27.6001271 L36.9060833,27.253012 L36.9060833,20.660241 L36.9107774,20.3158791 C36.957718,18.6207549 37.3567137,17.3259036 38.1077644,16.4313253 C38.9088852,15.4771084 40.2440864,15 42.1133682,15 Z M18.1210733,15.1951807 L21.7261167,32.7614458 L18.6774072,32.7614458 L17.9652999,28.7060241 L14.8275769,28.7060241 L14.0932162,32.7614458 L11,32.7614458 L14.6050434,15.1951807 L18.1210733,15.1951807 Z M28.6151193,15.1951807 L28.9509966,15.1997108 C30.4935002,15.241992 31.6870713,15.580241 32.5317097,16.2144578 C33.4366794,16.8939759 33.8891643,18.0578313 33.8891643,19.7060241 C33.8891643,20.7759036 33.6666307,21.6108434 33.2215637,22.2108434 C32.7764966,22.8108434 32.1311493,23.1759036 31.2855218,23.3060241 C33.3625016,23.6963855 34.4009914,25.1421687 34.4009914,27.6433735 C34.4009914,29.3349398 33.9781777,30.6108434 33.1325502,31.4710843 C32.3397745,32.2775602 31.1884242,32.7060006 29.6784994,32.7564053 L29.3717334,32.7614458 L24.1644485,32.7614458 L24.1644485,15.1951807 L28.6151193,15.1951807 Z M52.3181206,15.1951807 L54.6992295,27.6216867 L56.9468183,15.1951807 L59.9065144,15.1951807 L56.2792176,32.7614458 L53.0524813,32.7614458 L49.4251845,15.1951807 L52.3181206,15.1951807 Z M69.9554933,15.1951807 L69.9554933,17.4506024 L65.6605959,17.4506024 L65.6605959,22.5036145 L69.0431058,22.5036145 L69.0431058,24.7373494 L65.6605959,24.7373494 L65.6605959,30.5710843 L70,30.5710843 L70,32.7614458 L62.3893529,32.7614458 L62.3893529,15.1951807 L69.9554933,15.1951807 Z M42.1133682,17.3421687 C41.3715897,17.3421687 40.8745981,17.5626506 40.6223934,18.0036145 C40.3982115,18.3955823 40.273666,18.9446229 40.2487569,19.6507363 L40.2440864,19.9228916 L40.2440864,28.0120482 L40.2487569,28.2888889 C40.273666,29.0071397 40.3982115,29.5654618 40.6223934,29.9638554 C40.8745981,30.4120482 41.3715897,30.6361446 42.1133682,30.6361446 C42.8403111,30.6361446 43.3298849,30.4120482 43.5820896,29.9638554 C43.8062715,29.5654618 43.930817,29.0071397 43.9557261,28.2888889 L43.9603966,28.0120482 L43.9603966,19.9228916 L43.9558635,19.6463186 C43.931687,18.9294958 43.8108046,18.3783133 43.5932162,17.9927711 C43.3484293,17.5590361 42.8551466,17.3421687 42.1133682,17.3421687 Z M28.592866,24.5855422 L27.4356916,24.5855422 L27.4356916,30.5060241 L28.7041328,30.5060241 C29.6684448,30.5060241 30.3360454,30.2819277 30.7069346,29.8337349 C31.0778239,29.3855422 31.2632685,28.6481928 31.2632685,27.6216867 C31.2632685,26.5662651 31.0592794,25.7963855 30.6513013,25.3120482 C30.2773213,24.8680723 29.6696038,24.6275853 28.8281489,24.5905873 L28.592866,24.5855422 Z M16.3853117,19.2939759 L15.1613772,26.6674699 L17.6092462,26.6674699 L16.3853117,19.2939759 Z M28.1032922,17.4289157 L27.4356916,17.4289157 L27.4356916,22.373494 L28.5706126,22.373494 C29.5200891,22.373494 30.1691452,22.1674699 30.5177811,21.7554217 C30.866417,21.3433735 31.040735,20.6746988 31.040735,19.7493976 C31.040735,18.853012 30.8144925,18.2421687 30.3620077,17.9168675 C29.9472299,17.6186747 29.2800156,17.4571536 28.3603648,17.4323042 L28.1032922,17.4289157 Z" id="Shape"></path>
        </g>
    </g>
</svg>