<?xml version="1.0" encoding="UTF-8"?>
<svg width="54px" height="48px" viewBox="0 0 54 48" version="1.1" xmlns="http://www.w3.org/2000/svg" xmlns:xlink="http://www.w3.org/1999/xlink">
    <!-- Generator: Sketch 63.1 (92452) - https://sketch.com -->
    <title>Combined Shape</title>
    <desc>Created with Sketch.</desc>
    <g id="Symbols" stroke="none" stroke-width="1" fill="none" fill-rule="evenodd">
        <g id="PHOW-Data-Display-/-tag-/-event-type-/-boyun-conf" transform="translate(-9.000000, -12.000000)" fill="#ffffff" fill-rule="nonzero">
            <g id="Group">
                <path d="M35.410061,50.9367367 L35.410061,52.3796537 L28.9207317,52.3796537 C27.7820122,54.6827713 26.7804878,56.3476755 25.902439,57.3743665 C28.070122,57.2217503 30.2378049,56.9858888 32.3780488,56.6806564 C31.9527439,55.9175753 31.5,55.1406199 31.0060976,54.3497904 L31.0060976,54.3497904 L32.1585366,53.6283319 C33.3932927,55.487475 34.3536585,57.1107566 35.0396341,58.4843027 L35.0396341,58.4843027 L33.75,59.4 C33.5442073,58.9282771 33.3246951,58.4704285 33.0777439,57.9987056 C30.347561,58.3871832 27.3704268,58.6924157 24.1463415,58.9282771 L24.1463415,58.9282771 L23.7759146,57.4576117 C23.9268293,57.4021149 24.0365854,57.3604923 24.1189024,57.3049955 C24.9420732,56.6945306 26.0121951,55.0573747 27.3292683,52.3796537 L27.3292683,52.3796537 L22.9664634,52.3796537 L22.9664634,50.9367367 L35.410061,50.9367367 Z M12.1554878,46.3998726 L13.4862805,47.0380859 C13.1707317,47.9815316 12.7728659,48.897229 12.2926829,49.7574295 L12.2926829,49.7574295 L12.2926829,59.3167548 L10.8658537,59.3167548 L10.8658537,51.8801824 C10.4268293,52.4074021 9.97408537,52.9346218 9.48018293,53.4340931 L9.48018293,53.4340931 L9,51.8801824 C10.4268293,50.3262718 11.4695122,48.5087513 12.1554878,46.3998726 L12.1554878,46.3998726 Z M16.5045732,46.3998726 L17.972561,46.6079856 C17.8353659,47.2461989 17.6295732,47.8566638 17.382622,48.4116319 L17.382622,48.4116319 L21.1006098,48.4116319 L21.1006098,59.2057612 L19.6875,59.2057612 L19.6875,58.6091705 L15.2012195,58.6091705 L15.2012195,59.2057612 L13.7881098,59.2057612 L13.7881098,48.4116319 L15.9695122,48.4116319 C16.2164634,47.7595444 16.3948171,47.0935827 16.5045732,46.3998726 L16.5045732,46.3998726 Z M43.6417683,51.4084596 L43.6417683,53.6005835 C44.8765244,53.1288606 46.0564024,52.4767731 47.1814024,51.6581952 L47.1814024,51.6581952 L48.0045732,52.8236282 C46.4542683,53.7948223 45,54.530155 43.6417683,55.0296263 L43.6417683,55.0296263 L43.6417683,56.999763 C43.6417683,57.4714859 43.847561,57.7073473 44.2728659,57.7073473 L44.2728659,57.7073473 L46.5914634,57.7073473 C46.9207317,57.7073473 47.1539634,57.5963537 47.304878,57.4021149 C47.4969512,57.1940019 47.6341463,56.5557886 47.6890244,55.4736008 L47.6890244,55.4736008 L49.0472561,55.9314495 C48.910061,57.4576117 48.6768293,58.3594348 48.320122,58.6369189 C47.9908537,58.9144029 47.5106707,59.0531449 46.8521341,59.0531449 L46.8521341,59.0531449 L43.8338415,59.0531449 C42.75,59.0531449 42.214939,58.4704285 42.214939,57.3049955 L42.214939,57.3049955 L42.214939,51.4084596 L43.6417683,51.4084596 Z M62.7530488,51.1587239 L62.7530488,52.5600183 L58.6920732,52.5600183 C58.2393293,54.391413 57.7591463,55.8482042 57.2515244,56.9442662 C58.4588415,56.79165 59.6112805,56.6112854 60.7088415,56.3892981 C60.3795732,55.5290976 60.0228659,54.6827713 59.6387195,53.8780675 L59.6387195,53.8780675 L60.9146341,53.4479673 C61.6966463,54.9741295 62.3963415,56.7361532 63,58.7201641 L63,58.7201641 L61.6143293,59.0531449 C61.4771341,58.5814221 61.339939,58.1374476 61.1890244,57.6934731 C59.8719512,57.957083 57.8277439,58.2623154 55.0564024,58.6230447 L55.0564024,58.6230447 L54.6996951,57.2494987 C55.2484756,57.1662535 55.6189024,56.9581404 55.7835366,56.6112854 C56.304878,55.6539654 56.785061,54.3081678 57.2240854,52.5600183 L57.2240854,52.5600183 L54.7957317,52.5600183 L54.7957317,51.1587239 L62.7530488,51.1587239 Z M39.7317073,50.548259 L39.7317073,56.3338013 C40.1295732,55.9730721 40.554878,55.5845944 41.007622,55.1406199 L41.007622,55.1406199 L41.3780488,56.583537 C40.472561,57.4437375 39.5259146,58.2206928 38.5106707,58.9144029 L38.5106707,58.9144029 L37.9756098,57.6241021 C38.2088415,57.4159891 38.3323171,57.1662535 38.3323171,56.861021 L38.3323171,56.861021 L38.3323171,51.9356792 L36.535061,51.9356792 L36.535061,50.548259 L39.7317073,50.548259 Z M53.1768293,46.5247404 L53.1768293,49.9794167 L54.4801829,49.9794167 L54.4801829,51.3945854 L53.1768293,51.3945854 L53.1768293,55.4319782 C53.7256098,55.2099909 54.2606707,54.9741295 54.7957317,54.7105197 L54.7957317,54.7105197 L54.7957317,56.2228077 C53.464939,56.861021 52.0381098,57.4159891 50.5289634,57.8599636 L50.5289634,57.8599636 L50.1310976,56.3199271 C50.679878,56.2089335 51.214939,56.0701915 51.7362805,55.9175753 L51.7362805,55.9175753 L51.7362805,51.3945854 L50.3094512,51.3945854 L50.3094512,49.9794167 L51.7362805,49.9794167 L51.7362805,46.5247404 L53.1768293,46.5247404 Z M19.6875,54.113929 L15.2012195,54.113929 L15.2012195,57.2217503 L19.6875,57.2217503 L19.6875,54.113929 Z M19.6875,49.7851779 L15.2012195,49.7851779 L15.2012195,52.7820056 L19.6875,52.7820056 L19.6875,49.7851779 Z M45.4801829,46.427621 C46.2347561,48.0925252 47.5518293,49.5493165 49.4176829,50.7979947 L49.4176829,50.7979947 L48.6219512,52.0189244 C46.9207317,50.8673657 45.6722561,49.452197 44.8490854,47.7872928 C43.8612805,49.6464359 42.6265244,51.0893529 41.1448171,52.1160439 L41.1448171,52.1160439 L40.3490854,50.8812399 C42.0228659,49.7435553 43.2987805,48.2590157 44.2042683,46.427621 L44.2042683,46.427621 Z M38.4009146,46.5386146 C39.2789634,47.2184505 40.0198171,47.8982864 40.6234756,48.5642481 L40.6234756,48.5642481 L39.6356707,49.5770649 C39.1143293,48.9388516 38.3597561,48.2590157 37.3856707,47.5375571 L37.3856707,47.5375571 Z M62.0121951,47.3710667 L62.0121951,48.7723611 L55.3993902,48.7723611 L55.3993902,47.3710667 L62.0121951,47.3710667 Z M34.1753049,47.1213311 L34.1753049,48.5226255 L24.2972561,48.5226255 L24.2972561,47.1213311 L34.1753049,47.1213311 Z M41.7798924,28.4477793 C43.375306,29.2372452 43.6370536,30.7407373 42.5367683,32.1581875 C42.3648487,32.3792053 42.1267401,32.5459881 41.8791759,32.688304 L41.7709741,32.7495223 L41.6595487,32.8110464 L41.5502723,32.869818 L41.4382023,32.9288954 C40.8220425,33.2489771 40.1736841,33.5161305 39.5015138,33.7253824 L39.3235915,33.7795286 L39.2223202,33.808736 L39.0678612,33.851706 L38.9717474,33.8770905 L38.8104116,33.9181745 C38.7485206,33.9336702 38.6861997,33.9483504 38.6238789,33.9626227 L38.5508131,33.978934 L38.3681485,34.0184889 L38.3681485,34.0184889 L38.2907847,34.0339846 C38.2306129,34.046218 38.1700112,34.0580437 38.1094096,34.0690538 L37.9389406,34.09872 L37.847662,34.1139098 L37.7702982,34.1257355 C37.7079774,34.1351145 37.6456565,34.1449013 37.5833357,34.1534647 L37.522734,34.1612126 C37.3654276,34.1823153 37.2069124,34.2002067 37.0477323,34.2148869 L36.8883508,34.2284966 C36.8569755,34.2309433 36.8256002,34.2342055 36.7942249,34.2362444 L36.6425058,34.2456234 C36.6012451,34.2480701 36.5604142,34.2505168 36.5195833,34.2525557 L36.4483979,34.255716 L36.3768901,34.2582647 C36.3326208,34.2598958 36.2883515,34.2615269 36.2440822,34.2627503 L35.9668619,34.2664203 L35.8995447,34.2661654 L35.8319051,34.2656047 C35.7841974,34.265197 35.7360599,34.2643814 35.6883522,34.2635658 L35.5559741,34.2598958 L35.4085531,34.2541868 C35.3655732,34.2525557 35.3221635,34.2505168 35.2787538,34.2480701 L35.1270348,34.2386911 L35.0002441,34.2297199 L34.8425079,34.2162631 C34.8021068,34.2125931 34.7612759,34.208923 34.7208748,34.2048452 L34.6374938,34.195976 L34.4406459,34.173446 L34.3473796,34.1611106 L34.1599872,34.1355223 C34.0662911,34.1216577 33.9721651,34.1069775 33.8784689,34.0906663 C30.9102776,33.5813466 28.4161544,32.0325906 26.7360704,29.9121243 C32.4876396,34.8634131 37.29623,26.2302609 41.7798924,28.4477793 Z M47.2942458,23.0914482 C47.3599766,24.0642383 47.3124808,25.0611141 47.1398845,26.0646803 C47.033443,26.682877 46.8837465,27.2805564 46.6941874,27.8559344 L46.6951262,27.8111547 C46.6974303,27.2634119 46.4545255,21.9474903 35.9322138,26.1740784 L35.5928932,26.3122266 C24.1650654,31.0263115 24.7057542,24.7979567 24.7057542,24.7979567 C24.6400234,23.8251666 24.6875192,22.8282908 24.8601155,21.8247246 C24.966557,21.2065279 25.1162535,20.6088484 25.3058126,20.0334705 L25.3041607,20.0781136 C25.2931546,20.6241887 25.452191,25.9240379 36.0648436,21.7147626 L36.7493063,21.4395852 C47.9222637,17.0058353 47.2942458,23.0914482 47.2942458,23.0914482 Z M36.3116478,12.6023957 L36.4440259,12.6060656 L36.5914469,12.6117745 L36.7212462,12.6178911 L36.7212462,12.6178911 L36.8729652,12.6272699 L36.9997559,12.6362409 L37.1574921,12.6496974 C37.1978932,12.6533674 37.2387241,12.6570373 37.2791252,12.6611151 L37.3625062,12.6699841 L37.5593541,12.6925136 L37.6526204,12.7048488 L37.8400128,12.7308443 C37.9337089,12.7447086 38.0278349,12.7593885 38.1215311,12.7756994 C41.0897224,13.2850086 43.5838456,14.8337326 45.2639296,16.9541551 C39.5123604,12.0029685 34.7033402,20.6359426 30.2201076,18.4180622 C28.624694,17.6286126 28.3629464,16.1251514 29.4632317,14.7077306 C29.6351513,14.4867173 29.8732599,14.3199379 30.1208241,14.1776249 L30.2290259,14.1164079 L30.3404513,14.0548851 L30.4497277,13.9961147 L30.5617977,13.9370385 C31.1779575,13.6169635 31.8263159,13.3498156 32.4984862,13.140568 L32.6764085,13.0864229 L32.7776798,13.0572161 L32.9321388,13.014247 L33.0282526,12.9888631 L33.1895884,12.9477799 C33.2514794,12.9322845 33.3138003,12.9176046 33.3761211,12.9033326 L33.4491869,12.8870216 C33.5097886,12.8731573 33.57082,12.8601086 33.6318515,12.8474676 L33.7092153,12.8319722 C33.7693871,12.819739 33.8299888,12.8079135 33.8905904,12.7969037 L34.0610594,12.7672381 L34.152338,12.7520486 L34.2297018,12.7402231 C34.2920226,12.7308443 34.3543435,12.7210578 34.4166643,12.7124945 L34.477266,12.7047468 C34.6345724,12.6836446 34.7930876,12.6657535 34.9522677,12.6510736 L35.1116492,12.6374642 L35.2057751,12.6297165 L35.2057751,12.6297165 L35.3574942,12.6203377 C35.3987549,12.6178911 35.4395858,12.6154444 35.4804167,12.6134056 L35.5516021,12.6102453 L35.6231099,12.6076967 C35.6673792,12.6060656 35.7116485,12.6044345 35.7559178,12.6032112 L35.894313,12.6007646 L36.1680949,12.6003568 C36.2158026,12.6007646 36.2639401,12.6015801 36.3116478,12.6023957 Z" id="Combined-Shape"></path>
            </g>
        </g>
    </g>
</svg>