<?xml version="1.0" encoding="UTF-8"?>
<svg width="97px" height="20px" viewBox="0 0 97 20" version="1.1" xmlns="http://www.w3.org/2000/svg" xmlns:xlink="http://www.w3.org/1999/xlink">
    <!-- Generator: Sketch 63.1 (92452) - https://sketch.com -->
    <title>Combined Shape</title>
    <desc>Created with Sketch.</desc>
    <g id="home" stroke="none" stroke-width="1" fill="none" fill-rule="evenodd">
        <g id="home/_section/events(openning-soon)" transform="translate(-290.000000, -95.000000)" fill="#FFFFFF" fill-rule="nonzero">
            <path d="M305.005865,109.595431 C306.398407,110.328716 306.626871,111.725215 305.666497,113.041795 C305.516438,113.247085 305.308607,113.401999 305.092523,113.534187 L304.99808,113.591049 L304.900824,113.648195 L304.805443,113.702784 L304.707623,113.757657 C304.169814,114.054961 303.6039,114.303103 303.017202,114.497464 L302.861904,114.547757 L302.773511,114.574886 L302.638692,114.614798 L302.5548,114.638376 L302.41398,114.676536 L302.251167,114.717822 L302.251167,114.717822 L302.187392,114.732972 C302.134496,114.74585 302.081225,114.75797 302.027955,114.769712 L301.960428,114.784105 C301.907908,114.795468 301.855012,114.806452 301.802117,114.816679 L301.653324,114.844234 L301.573653,114.858343 L301.506126,114.869327 L301.342938,114.895083 L301.342938,114.895083 L301.290042,114.902279 C301.152739,114.92188 301.01438,114.938498 300.875441,114.952134 L300.736327,114.964775 C300.708941,114.967048 300.681555,114.970078 300.65417,114.971972 L300.587956,114.976611 L300.521743,114.980683 C300.485729,114.982956 300.45009,114.985228 300.414451,114.987122 L300.352318,114.990057 L300.289903,114.992425 L300.173982,114.996591 L300.173982,114.996591 L300.053185,114.998864 L299.932013,115 L299.873256,114.999763 L299.814217,114.999242 L299.688919,114.997349 L299.688919,114.997349 L299.573374,114.99394 L299.444698,114.988637 C299.407184,114.987122 299.369294,114.985228 299.331404,114.982956 L299.198978,114.974244 L299.08831,114.965911 L299.01947,114.959946 L298.950631,114.953412 L298.844465,114.942807 L298.844465,114.942807 L298.771686,114.934569 L298.599869,114.913642 L298.518463,114.902184 L298.354899,114.878417 C298.273117,114.865539 298.19096,114.851904 298.109178,114.836753 C295.518419,114.363678 293.341446,112.925136 291.875,110.955569 C296.895205,115.554509 301.09234,107.535717 305.005865,109.595431 Z M350.19,103.036 L350.19,104.908 L341.676,104.908 C340.182,107.896 338.868,110.056 337.716,111.388 C340.56,111.19 343.404,110.884 346.212,110.488 C345.654,109.498 345.06,108.49 344.412,107.464 L344.412,107.464 L345.924,106.528 C347.544,108.94 348.804,111.046 349.704,112.828 L349.704,112.828 L348.012,114.016 C347.742,113.404 347.454,112.81 347.13,112.198 C343.548,112.702 339.642,113.098 335.412,113.404 L335.412,113.404 L334.926,111.496 C335.124,111.424 335.268,111.37 335.376,111.298 C336.456,110.506 337.86,108.382 339.588,104.908 L339.588,104.908 L333.864,104.908 L333.864,103.036 L350.19,103.036 Z M319.68,97.15 L321.426,97.978 C321.012,99.202 320.49,100.39 319.86,101.506 L319.86,101.506 L319.86,113.908 L317.988,113.908 L317.988,104.26 C317.412,104.944 316.818,105.628 316.17,106.276 L316.17,106.276 L315.54,104.26 C317.412,102.244 318.78,99.886 319.68,97.15 L319.68,97.15 Z M325.386,97.15 L327.312,97.42 C327.132,98.248 326.862,99.04 326.538,99.76 L326.538,99.76 L331.416,99.76 L331.416,113.764 L329.562,113.764 L329.562,112.99 L323.676,112.99 L323.676,113.764 L321.822,113.764 L321.822,99.76 L324.684,99.76 C325.008,98.914 325.242,98.05 325.386,97.15 L325.386,97.15 Z M386.064,103.324 L386.064,105.142 L380.736,105.142 C380.142,107.518 379.512,109.408 378.846,110.83 C380.43,110.632 381.942,110.398 383.382,110.11 C382.95,108.994 382.482,107.896 381.978,106.852 L381.978,106.852 L383.652,106.294 C384.678,108.274 385.596,110.56 386.388,113.134 L386.388,113.134 L384.57,113.566 C384.39,112.954 384.21,112.378 384.012,111.802 C382.284,112.144 379.602,112.54 375.966,113.008 L375.966,113.008 L375.498,111.226 C376.218,111.118 376.704,110.848 376.92,110.398 C377.604,109.156 378.234,107.41 378.81,105.142 L378.81,105.142 L375.624,105.142 L375.624,103.324 L386.064,103.324 Z M360.99,103.648 L360.99,106.492 C362.61,105.88 364.158,105.034 365.634,103.972 L365.634,103.972 L366.714,105.484 C364.68,106.744 362.772,107.698 360.99,108.346 L360.99,108.346 L360.99,110.902 C360.99,111.514 361.26,111.82 361.818,111.82 L361.818,111.82 L364.86,111.82 C365.292,111.82 365.598,111.676 365.796,111.424 C366.048,111.154 366.228,110.326 366.3,108.922 L366.3,108.922 L368.082,109.516 C367.902,111.496 367.596,112.666 367.128,113.026 C366.696,113.386 366.066,113.566 365.202,113.566 L365.202,113.566 L361.242,113.566 C359.82,113.566 359.118,112.81 359.118,111.298 L359.118,111.298 L359.118,103.648 L360.99,103.648 Z M355.86,102.532 L355.86,110.038 C356.382,109.57 356.94,109.066 357.534,108.49 L357.534,108.49 L358.02,110.362 C356.832,111.478 355.59,112.486 354.258,113.386 L354.258,113.386 L353.556,111.712 C353.862,111.442 354.024,111.118 354.024,110.722 L354.024,110.722 L354.024,104.332 L351.666,104.332 L351.666,102.532 L355.86,102.532 Z M373.5,97.312 L373.5,101.794 L375.21,101.794 L375.21,103.63 L373.5,103.63 L373.5,108.868 C374.22,108.58 374.922,108.274 375.624,107.932 L375.624,107.932 L375.624,109.894 C373.878,110.722 372.006,111.442 370.026,112.018 L370.026,112.018 L369.504,110.02 C370.224,109.876 370.926,109.696 371.61,109.498 L371.61,109.498 L371.61,103.63 L369.738,103.63 L369.738,101.794 L371.61,101.794 L371.61,97.312 L373.5,97.312 Z M329.562,107.158 L323.676,107.158 L323.676,111.19 L329.562,111.19 L329.562,107.158 Z M309.974975,104.348342 C310.033028,105.158602 309.99108,105.988925 309.838644,106.82482 C309.744636,107.339731 309.612426,107.837553 309.445009,108.316799 L309.445459,108.238622 C309.431744,107.609463 309.00388,103.482435 299.940132,106.91594 L299.640447,107.031007 C289.547494,110.957484 290.025025,105.769734 290.025025,105.769734 C289.966972,104.959474 290.00892,104.129151 290.161356,103.293257 C290.255364,102.778345 290.387574,102.280523 290.554991,101.801277 L290.553532,101.838461 L290.553513,101.9037 C290.566447,102.605702 291.027186,106.579406 300.057269,103.201666 L300.66178,102.972464 C310.529635,99.2794854 309.974975,104.348342 309.974975,104.348342 Z M329.562,101.542 L323.676,101.542 L323.676,105.43 L329.562,105.43 L329.562,101.542 Z M363.402,97.186 C364.392,99.346 366.12,101.236 368.568,102.856 L368.568,102.856 L367.524,104.44 C365.292,102.946 363.654,101.11 362.574,98.95 C361.278,101.362 359.658,103.234 357.714,104.566 L357.714,104.566 L356.67,102.964 C358.866,101.488 360.54,99.562 361.728,97.186 L361.728,97.186 Z M354.114,97.33 C355.266,98.212 356.238,99.094 357.03,99.958 L357.03,99.958 L355.734,101.272 C355.05,100.444 354.06,99.562 352.782,98.626 L352.782,98.626 Z M300.186081,95.0026513 L300.301626,95.0060601 L300.430302,95.0113627 C300.467816,95.0128777 300.505706,95.0147715 300.543596,95.017044 L300.676022,95.0257554 L300.78669,95.034088 L300.924369,95.0465869 C300.959633,95.0499957 300.995272,95.0534045 301.030535,95.057192 L301.103314,95.06543 L301.275131,95.0863562 L301.356537,95.0978135 L301.520101,95.1219592 C301.601883,95.1348368 301.68404,95.148472 301.765822,95.1636222 C304.356581,95.6366875 306.533554,97.0751997 308,99.0447267 C302.979795,94.4458812 298.782285,102.464507 294.869135,100.404458 C293.476593,99.6711877 293.248129,98.2747174 294.208503,96.9581643 C294.358562,96.752879 294.566393,96.5979681 294.782477,96.4657826 L294.87692,96.408922 L294.974176,96.3517773 L295.069557,96.2971892 L295.167377,96.242317 C295.705186,95.9450194 296.2711,95.6968826 296.857798,95.5025257 L297.013096,95.4522337 L297.101489,95.4251054 L297.236308,95.385194 L297.3202,95.3616165 L297.46102,95.3234569 C297.515041,95.3090642 297.569437,95.295429 297.623833,95.2821726 L297.687608,95.2670224 C297.740504,95.2541447 297.793775,95.2420246 297.847045,95.2302832 L297.914572,95.2158905 C297.967092,95.2045278 298.019988,95.1935439 298.072883,95.1833175 L298.221676,95.1557631 L298.301347,95.1416544 L298.368874,95.1306705 C298.42327,95.1219592 298.477666,95.112869 298.532062,95.1049152 L298.584958,95.0977188 C298.722261,95.0781183 298.86062,95.0615004 298.999559,95.0478652 L299.138673,95.0352242 C299.166059,95.0329517 299.193445,95.0299217 299.22083,95.0280279 L299.287044,95.0233881 L299.353257,95.0193165 C299.389271,95.017044 299.42491,95.0147715 299.460549,95.0128777 L299.522682,95.0099423 L299.585097,95.0075751 L299.701018,95.0034088 L299.701018,95.0034088 L299.821815,95.0011363 L300.060783,95.0007575 C300.102424,95.0011363 300.14444,95.0018938 300.186081,95.0026513 Z M385.092,98.41 L385.092,100.228 L376.416,100.228 L376.416,98.41 L385.092,98.41 Z M348.57,98.086 L348.57,99.904 L335.61,99.904 L335.61,98.086 L348.57,98.086 Z" id="Combined-Shape"></path>
        </g>
    </g>
</svg>