<?xml version="1.0" encoding="UTF-8"?>
<svg width="1024px" height="1024px" viewBox="0 0 1024 1024" version="1.1" xmlns="http://www.w3.org/2000/svg" xmlns:xlink="http://www.w3.org/1999/xlink">
    <!-- Generator: Sketch 60.1 (88133) - https://sketch.com -->
    <title>&gt;&gt;icon  / icon_cross-mini copy@1x</title>
    <desc>Created with Sketch.</desc>
    <g id="&gt;&gt;icon--/-icon_cross-mini-copy" stroke="none" stroke-width="1" fill="none" fill-rule="evenodd">
        <rect id="Rectangle" x="0" y="0" width="1024" height="1024"></rect>
        <path d="M791.80471,232.19529 C802.731763,243.122344 802.731763,260.838598 791.80471,271.765652 L551.57,512 L791.80471,752.234348 C802.731763,763.161402 802.731763,780.877656 791.80471,791.80471 C780.877656,802.731763 763.161402,802.731763 752.234348,791.80471 L512,551.57 L271.765652,791.80471 C260.838598,802.731763 243.122344,802.731763 232.19529,791.80471 C221.268237,780.877656 221.268237,763.161402 232.19529,752.234348 L472.43,512 L232.19529,271.765652 C221.268237,260.838598 221.268237,243.122344 232.19529,232.19529 C243.122344,221.268237 260.838598,221.268237 271.765652,232.19529 L512,472.43 L752.234348,232.19529 C763.161402,221.268237 780.877656,221.268237 791.80471,232.19529 Z" id="o" fill="#6B778C"></path>
    </g>
</svg>