<?xml version="1.0" standalone="no"?><!DOCTYPE svg PUBLIC "-//W3C//DTD SVG 1.1//EN" "http://www.w3.org/Graphics/SVG/1.1/DTD/svg11.dtd"><svg t="1576148302981" class="icon" viewBox="0 0 1024 1024" version="1.1" xmlns="http://www.w3.org/2000/svg" p-id="1543" xmlns:xlink="http://www.w3.org/1999/xlink" width="200" height="200"><defs><style type="text/css"></style></defs><path d="M810.666 810.667C810.47 857.829 772.271 896 725.083 896H298.917c-47.145 0-85.387-38.286-85.583-85.333h597.332z m42.666-128c-0.195 47.162-38.286 85.333-85.08 85.333H255.747c-46.868 0-84.884-38.286-85.08-85.333h682.666zM810.876 128C857.89 128 896 166.483 896 213.697v340.606C896 601.632 857.915 640 810.876 640H213.124C166.11 640 128 601.517 128 554.303V213.697C128 166.368 166.085 128 213.124 128h597.752z m-0.21 85.697l-597.542-0.364 0.21 340.97 597.542 0.364-0.21-340.97z" p-id="1544"></path></svg>