<?xml version="1.0" encoding="UTF-8"?>
<svg width="1024px" height="1024px" viewBox="0 0 1024 1024" version="1.1" xmlns="http://www.w3.org/2000/svg" xmlns:xlink="http://www.w3.org/1999/xlink">
    <!-- Generator: Sketch 60 (88103) - https://sketch.com -->
    <title>我的数据</title>
    <desc>Created with Sketch.</desc>
    <g id="我的数据" stroke="none" stroke-width="1" fill="none" fill-rule="evenodd">
        <path d="M768,640 C838.692446,640 896,697.307554 896,768 C896,838.692446 838.692446,896 768,896 C712.267998,896 664.85513,860.381542 647.283443,810.666667 L376.716556,810.666667 C359.14487,860.381542 311.732003,896 256,896 C185.307552,896 128,838.692446 128,768 C128,697.307554 185.307552,640 256,640 C311.732003,640 359.14487,675.618458 376.716556,725.333333 L647.283443,725.333333 C664.85513,675.618458 712.267998,640 768,640 Z M832,384 C867.346224,384 896,412.653776 896,448 C896,483.346224 867.346224,512 832,512 L405.333333,512 C369.987109,512 341.333333,483.346224 341.333333,448 C341.333333,412.653776 369.987109,384 405.333333,384 L832,384 Z M746.666667,128 C782.012891,128 810.666667,156.653776 810.666667,192 C810.666667,227.346224 782.012891,256 746.666667,256 L192,256 C156.653776,256 128,227.346224 128,192 C128,156.653776 156.653776,128 192,128 L746.666667,128 Z" id="形状" fill="#505F79"></path>
    </g>
</svg>