<?xml version="1.0" encoding="UTF-8"?>
<svg width="24px" height="24px" viewBox="0 0 24 24" version="1.1" xmlns="http://www.w3.org/2000/svg" xmlns:xlink="http://www.w3.org/1999/xlink">
    <!-- Generator: Sketch 57.1 (83088) - https://sketch.com -->
    <title>icon/icon_training@2x</title>
    <desc>Created with Sketch.</desc>
    <g id="icon/icon_training" stroke="none" stroke-width="1" fill="none" fill-rule="evenodd">
        <path d="M20.016,7.19167075 C19.3285714,7.19766523 18.6385714,7.20365973 17.952,7.18824534 C16.2170129,8.90137064 14.492694,10.6252469 12.7791429,12.3597742 C13.0217143,13.3874004 12.1937143,14.5058003 11.1068572,14.403894 C10.0105714,14.3859106 9.228,13.0842507 9.74400001,12.1080058 C10.0534286,11.3749658 10.8874286,11.1129211 11.6262857,11.1968439 C13.344,9.46957552 15.0754286,7.75087069 16.7922857,6.01932052 C16.7837143,5.34365629 16.7957143,4.66713571 16.8051429,3.99147148 C18.1465714,2.67182815 19.4674286,1.32563781 20.8062857,0 C20.8148571,0.760443395 20.8028572,1.52088679 20.7968571,2.28047384 C21.2142857,2.46459021 21.5331428,2.76773994 21.6882857,3.2001993 C22.4605714,3.2001993 23.2285714,3.19420482 24,3.19763023 C22.6765714,4.53440065 21.3428572,5.8574694 20.016,7.19167075 L20.016,7.19167075 Z M17.0931429,10.3079472 C17.9631429,12.2878404 17.6991429,14.7044747 16.4442857,16.4651409 C15.2614286,18.1804204 13.1965714,19.2388754 11.1102857,19.1909195 C8.73857144,19.1874941 6.44828572,17.733403 5.436,15.5873769 C4.34057143,13.3814059 4.68,10.5631411 6.27685714,8.69114867 C8.01514285,6.53912811 11.1754286,5.80608809 13.7091429,6.88167019 C13.284,7.31412955 12.8485714,7.73802536 12.4097143,8.15849576 C9.68399999,7.38092525 6.63428571,9.47813909 6.44228573,12.3178128 C6.04885716,15.2148624 8.79257144,17.9500608 11.6862857,17.5467175 C14.5174286,17.357463 16.6157143,14.3045568 15.8288571,11.5822037 C16.2462857,11.148888 16.6662857,10.7258486 17.0931429,10.3079472 Z M9.56400001,3.36290677 C6.19628572,3.91011773 3.24257145,6.4132439 2.14885715,9.64941011 C0.951428571,12.9737809 1.82228572,16.9061639 4.28657143,19.4281298 C7.30971429,22.6822795 12.6531429,23.3254022 16.3517143,20.8642375 C20.106,18.5683492 21.7628571,13.540688 20.184,9.43960308 C20.5988571,9.02769625 21.0128571,8.6157894 21.4302857,8.207308 C22.3997143,10.427837 22.6765714,12.9549411 22.1177143,15.3201941 C21.2262857,19.3835994 17.8671429,22.7602078 13.818,23.6893532 C10.1768571,24.5876698 6.12342858,23.5035241 3.43714286,20.8796519 C1.48285715,19.0402009 0.312857151,16.4805553 0,13.8301361 L0,11.8459611 C0.339428571,8.207308 2.49771428,4.79045086 5.70942858,3.02635919 C8.75057145,1.28367642 12.5965714,1.1517977 15.7894286,2.56735281 C15.3814286,2.98439777 14.97,3.39887369 14.556,3.81334959 C12.9565714,3.27555854 11.2362857,3.05033712 9.56400001,3.36290677 Z" id="Shape" fill="#FFFFFF" fill-rule="nonzero"></path>
    </g>
</svg>