<?xml version="1.0" encoding="UTF-8"?>
<svg width="24px" height="24px" viewBox="0 0 24 24" version="1.1" xmlns="http://www.w3.org/2000/svg" xmlns:xlink="http://www.w3.org/1999/xlink">
    <!-- Generator: Sketch 57.1 (83088) - https://sketch.com -->
    <title>icon/icon_case@2x</title>
    <desc>Created with Sketch.</desc>
    <g id="icon/icon_case" stroke="none" stroke-width="1" fill="none" fill-rule="evenodd">
        <path d="M23.4991974,14.4396575 C23.7303371,14.3216032 24,14.4790089 24,14.7544689 L24,14.7544689 L24,16.4465804 C24,16.6039861 23.9229534,16.7220404 23.8073836,16.8007433 L23.8073836,16.8007433 L12.5200642,23.3724321 C12.1733547,23.5691893 11.788122,23.5691893 11.4414125,23.3724321 L11.4414125,23.3724321 L0.192616378,16.8007433 C0.0770465565,16.7220404 0,16.6039861 0,16.4465804 L0,16.4465804 L0,14.7544689 C0,14.4790089 0.3081862,14.3216032 0.539325844,14.4396575 L0.539325844,14.4396575 L11.788122,21.0113463 C11.9422151,21.0900492 12.1348315,21.0900492 12.2889245,21.0113463 L12.2889245,21.0113463 Z M23.9922058,10.1155299 L24,10.1944689 L24,11.8865804 C24,12.012505 23.9506109,12.1132446 23.8715884,12.1887994 L23.807074,12.2407433 L12.5401929,18.8124321 C12.2315113,18.9873274 11.8923425,19.0067602 11.5768859,18.8707305 L11.4598071,18.8124321 L0.192926051,12.2407433 C0.100321551,12.177781 0.0324115782,12.0896338 0.00895176927,11.9763017 L0,11.8865804 L0,10.1944689 C0,9.94655488 0.250032158,9.79426485 0.468810292,9.85234756 L0.540192928,9.87965746 L11.807074,16.4513463 C11.9305466,16.5143086 12.0787138,16.5269011 12.2120643,16.4891237 L12.3086817,16.4513463 L23.4983923,9.87965746 C23.7067524,9.77340859 23.9463666,9.89028236 23.9922058,10.1155299 Z M12.3583952,0.0445505856 L12.4288557,0.0873191478 L23.5862687,6.49072342 C23.7921725,6.62870923 23.8150507,6.92001263 23.6549033,7.09206902 L23.5862687,7.1504681 L12.3902487,13.5926809 C12.257882,13.6924742 12.0687867,13.7067304 11.9202118,13.6354494 L11.8497513,13.5926809 L0.653731341,7.1504681 C0.447827529,7.0124823 0.424949328,6.72117889 0.585096737,6.54912251 L0.653731341,6.49072342 L11.8883582,0.0873191478 C12.0207249,-0.012474164 12.2098203,-0.0267303514 12.3583952,0.0445505856 Z" id="Combined-Shape" fill="#FFFFFF" fill-rule="nonzero"></path>
    </g>
</svg>