<?xml version="1.0" encoding="UTF-8"?>
<svg width="24px" height="24px" viewBox="0 0 24 24" version="1.1" xmlns="http://www.w3.org/2000/svg" xmlns:xlink="http://www.w3.org/1999/xlink">
    <!-- Generator: Sketch 57.1 (83088) - https://sketch.com -->
    <title>icon/icon_simulation@2x</title>
    <desc>Created with Sketch.</desc>
    <g id="icon/icon_simulation" stroke="none" stroke-width="1" fill="none" fill-rule="evenodd">
        <path d="M5.53252688,20.9339786 C4.69943809,20.9339786 4.02438458,20.2645409 4.02438458,19.4384626 C4.02438458,18.612726 4.69943811,17.9429466 5.53252688,17.9429466 C6.36527098,17.9429466 7.04084157,18.612726 7.04084157,19.4384626 C7.04101387,20.2645409 6.36527098,20.9339786 5.53252688,20.9339786 Z M9.05187026,15.0224626 L2.01352816,15.0224626 C1.4572165,15.0224626 1,15.3992883 1,15.9506904 L1,22.9269181 C1,23.4779786 1.45738883,24 2.01352816,24 L21.1213172,24 C21.6764225,24 22.1343284,23.4778078 22.1343284,22.9269181 L22.1343284,15.9506904 C22.1343284,15.3992883 21.6764225,15.0224626 21.1213172,15.0224626 L14.0817687,15.0224626 C13.5263188,15.0224626 13.0765129,14.5059075 13.0765129,13.9557011 L13.0765129,9.70881138 C13.0765129,9.15826334 13.5099465,8.57116015 13.9795715,8.27683985 C15.2488513,7.48321709 16.0929698,6.08387189 16.0929698,4.48586477 C16.0929698,2.0086548 14.0672922,0 11.5673365,0 C9.06789784,0 7.04101387,2.0086548 7.04101387,4.48603559 C7.04101387,6.0840427 7.88530471,7.48321709 9.15441224,8.27701066 C9.62455419,8.57064766 10.0574708,9.15792169 10.0574708,9.7089822 L10.0574708,13.9558719 C10.0574708,14.5059075 9.60800959,15.0224626 9.05187026,15.0224626 L9.05187026,15.0224626 Z" id="Shape" fill="#FFFFFF" fill-rule="nonzero"></path>
    </g>
</svg>