<?xml version="1.0" encoding="UTF-8"?>
<svg width="20px" height="20px" viewBox="0 0 20 20" version="1.1" xmlns="http://www.w3.org/2000/svg" xmlns:xlink="http://www.w3.org/1999/xlink">
    <title>&gt;&gt;DataEntry / Checkbox / Checkbox / Checked@2x</title>
    <g id="&gt;&gt;DataEntry-/-Checkbox-/-Checkbox-/-Checked" stroke="none" stroke-width="1" fill="none" fill-rule="evenodd">
        <g id="check_box-24px">
            <polygon id="Path" points="0 0 20 0 20 20 0 20"></polygon>
            <path d="M16,3 L4,3 C3.44771525,3 3,3.44771525 3,4 L3,16 C3,16.5522847 3.44771525,17 4,17 L16,17 C16.5522847,17 17,16.5522847 17,16 L17,4 C17,3.44771525 16.5522847,3 16,3 Z M14.7130988,7.14644661 C14.8866652,7.32001296 14.9059503,7.58943736 14.7709543,7.7843055 L14.7130988,7.85355339 L8.70477272,13.8618795 L6.14644661,11.3035534 C5.95118446,11.1082912 5.95118446,10.7917088 6.14644661,10.5964466 C6.32001296,10.4228803 6.58943736,10.4035951 6.7843055,10.5385912 L6.85355339,10.5964466 L8.70479874,12.4476124 L14.0059921,7.14644661 C14.1795584,6.97288026 14.4489828,6.95359511 14.6438509,7.08859116 L14.7130988,7.14644661 Z" id="Combined-Shape" fill="#7163C5"></path>
        </g>
    </g>
</svg>