<?xml version="1.0" encoding="UTF-8"?>
<svg width="20px" height="20px" viewBox="0 0 20 20" version="1.1" xmlns="http://www.w3.org/2000/svg" xmlns:xlink="http://www.w3.org/1999/xlink">
    <title>&gt;&gt;DataEntry / Checkbox / Checkbox / Unchecked resting@2x</title>
    <g id="&gt;&gt;DataEntry-/-Checkbox-/-Checkbox-/-Unchecked-resting" stroke="none" stroke-width="1" fill="none" fill-rule="evenodd">
        <g id="Group">
            <rect id="Container" x="0" y="0" width="20" height="20"></rect>
            <path d="M16,3 L4,3 C3.44771525,3 3,3.44771525 3,4 L3,16 C3,16.5522847 3.44771525,17 4,17 L16,17 C16.5522847,17 17,16.5522847 17,16 L17,4 C17,3.44771525 16.5522847,3 16,3 Z" id="box" fill="#F9F9FD"></path>
        </g>
        <path d="M16,3.5 C16.1380712,3.5 16.2630712,3.55596441 16.3535534,3.64644661 C16.4440356,3.73692881 16.5,3.86192881 16.5,4 L16.5,4 L16.5,16 C16.5,16.1380712 16.4440356,16.2630712 16.3535534,16.3535534 C16.2630712,16.4440356 16.1380712,16.5 16,16.5 L16,16.5 L4,16.5 C3.86192881,16.5 3.73692881,16.4440356 3.64644661,16.3535534 C3.55596441,16.2630712 3.5,16.1380712 3.5,16 L3.5,16 L3.5,4 C3.5,3.86192881 3.55596441,3.73692881 3.64644661,3.64644661 L3.64644661,3.64644661 Z" id="box-copy" stroke="#E1DFE9"></path>
    </g>
</svg>