<?xml version="1.0" standalone="no"?><!DOCTYPE svg PUBLIC "-//W3C//DTD SVG 1.1//EN" "http://www.w3.org/Graphics/SVG/1.1/DTD/svg11.dtd"><svg t="1567587825376" class="icon" viewBox="0 0 1024 1024" version="1.1" xmlns="http://www.w3.org/2000/svg" p-id="9909" xmlns:xlink="http://www.w3.org/1999/xlink" width="200" height="200"><defs><style type="text/css"></style></defs><path d="M591.393 170.85c105.73 4.766 188.268 91.684 189.395 199.446 1.122 107.305-77.111 195.97-179.566 203.897-21.267 1.644-42.821 2.635-63.6 7.088-96.43 20.66-169.03 104.53-178.634 204.969-0.975 10.192-0.127 20.633-1.74 30.685-3.425 21.338-18.92 36.035-36.865 36.398-19.461 0.367-36.488-15.96-38.309-39.439-1.12-14.45-0.186-29.398 2.087-43.742C299.456 673.657 346.738 598.6 427.92 546.66a668.753 668.753 0 0 0 21.433-14.318c0.998-0.695 1.258-2.509 3.831-8.046-46.261-47.84-69.24-103.914-62.984-171.32 9.175-98.857 89.424-177.012 183.422-182.051l8.851-0.257 8.921 0.182zM754.66 634.593c16.18-13.115 37.346-11.873 56.876 5.59C864.574 687.61 890.697 745.127 896 811.139c-0.614 5.161-0.156 11.594-2.295 17.317-5.85 15.653-18.751 24.9-38.288 24.878-20.08-0.022-35.627-13.33-36.436-34.777-1.99-52.828-23.516-98.076-63.81-137.971-17.768-17.592-16.108-33.35-0.51-45.992zM327.991 208.815c9.744 1.349 21.308 11.068 26.619 20.68 7.398 13.393 3.79 28.6-9.292 38.139-6.618 4.826-14.576 7.453-21.246 12.212-53.447 38.137-57.46 115.715-8.396 160.246 4.094 3.715 8.508 7.153 13.147 9.992 21.266 13.005 28.683 33.006 26.5 58.76-2.191 25.873-17.303 36.318-37.974 44.434-58.882 23.132-99.61 67.026-118.358 132.844-4.693 16.478-5.599 34.257-8.058 51.472-3.838 26.877-16.091 41.227-34.212 39.789-18.22-1.447-29.46-17.067-28.683-44.584 2.621-92.82 40.86-164.319 111.235-215.808 9.947-7.278 20.331-13.843 30.433-20.876 0.89-0.62 1.187-2.257 2.167-4.25-8.207-10.95-17.22-21.717-24.944-33.49-52.11-79.427-30.1-190.898 47.508-238.695 7.214-4.443 15.804-8.835 24.008-10.445l4.862-0.61 4.684 0.19zM585.03 245.7c-68.312 0.006-122.938 54.565-124.26 124.108-1.358 71.432 53.368 130.365 122.262 131.656 68.54 1.287 126.142-56.663 126.639-127.4 0.5-71.519-54.7-128.37-124.641-128.364z" p-id="9910"></path></svg>