<?xml version="1.0" standalone="no"?><!DOCTYPE svg PUBLIC "-//W3C//DTD SVG 1.1//EN" "http://www.w3.org/Graphics/SVG/1.1/DTD/svg11.dtd"><svg t="1567587822031" class="icon" viewBox="0 0 1024 1024" version="1.1" xmlns="http://www.w3.org/2000/svg" p-id="9783" xmlns:xlink="http://www.w3.org/1999/xlink" width="200" height="200"><defs><style type="text/css"></style></defs><path d="M598.588 644.61c22.08-41.59 66.903-102.24 100.423-135.775l30.937-30.952c43.933-43.907 50.422-112.56 16.522-163.657-8.079-12.177-30.624-32.656-36.638-36.644C688.488 263.43 663.519 256 638.036 256c-34.338 0-67.192 13.315-91.991 38.079l-40.548 40.567c-33.455 33.47-94.668 77.646-136.578 98.597l-74.241 37.113 258.956 258.926 44.954-84.672z m39.448-473.943c41.472 0 82.987 11.946 118.955 35.797 0.853-1.11 1.834-2.133 2.816-3.157 16.853-16.811 44.117-16.811 60.928 0 16.81 16.853 16.81 44.117 0 60.885a38.995 38.995 0 0 1-3.158 2.859C873.087 350.72 864 464.555 790.271 538.24l-30.927 30.941c-33.37 33.386-77.367 94.312-98.632 136.806l-64.404 128.701c-10.624 21.333-32.981 24.917-49.963 7.979L181.29 477.653c-16.938-16.938-13.141-39.424 7.979-50.005l128.728-64.35c42.178-21.085 103.284-65.104 136.793-98.629l30.927-30.941c42.07-42.027 97.195-63.061 152.32-63.061zM276.693 633.152l120.704 120.704c-33.322 33.323-87.381 33.323-120.704 0-33.322-33.323-33.322-87.381 0-120.704z" p-id="9784"></path></svg>