<?xml version="1.0" standalone="no"?><!DOCTYPE svg PUBLIC "-//W3C//DTD SVG 1.1//EN" "http://www.w3.org/Graphics/SVG/1.1/DTD/svg11.dtd"><svg t="1567587804339" class="icon" viewBox="0 0 1024 1024" version="1.1" xmlns="http://www.w3.org/2000/svg" p-id="9531" xmlns:xlink="http://www.w3.org/1999/xlink" width="200" height="200"><defs><style type="text/css"></style></defs><path d="M512 725.333c47.128 0 85.333 38.205 85.333 85.334C597.333 857.795 559.128 896 512 896s-85.333-38.205-85.333-85.333c0-47.129 38.205-85.334 85.333-85.334z m0-298.666c47.128 0 85.333 38.205 85.333 85.333S559.128 597.333 512 597.333 426.667 559.128 426.667 512s38.205-85.333 85.333-85.333zM512 128c47.128 0 85.333 38.205 85.333 85.333 0 47.129-38.205 85.334-85.333 85.334s-85.333-38.205-85.333-85.334C426.667 166.205 464.872 128 512 128z" p-id="9532"></path></svg>