<?xml version="1.0" standalone="no"?><!DOCTYPE svg PUBLIC "-//W3C//DTD SVG 1.1//EN" "http://www.w3.org/Graphics/SVG/1.1/DTD/svg11.dtd"><svg t="1567587771158" class="icon" viewBox="0 0 1024 1024" version="1.1" xmlns="http://www.w3.org/2000/svg" p-id="9279" xmlns:xlink="http://www.w3.org/1999/xlink" width="200" height="200"><defs><style type="text/css"></style></defs><path d="M426.667 554.667c23.564 0 42.666 19.102 42.666 42.666v213.334c0 23.564-19.102 42.666-42.666 42.666H213.333c-23.564 0-42.666-19.102-42.666-42.666V597.333c0-23.564 19.102-42.666 42.666-42.666h213.334z m384 0c23.564 0 42.666 19.102 42.666 42.666v213.334c0 23.564-19.102 42.666-42.666 42.666H597.333c-23.564 0-42.666-19.102-42.666-42.666V597.333c0-23.564 19.102-42.666 42.666-42.666h213.334z m-384-384c23.564 0 42.666 19.102 42.666 42.666v213.334c0 23.564-19.102 42.666-42.666 42.666H213.333c-23.564 0-42.666-19.102-42.666-42.666V213.333c0-23.564 19.102-42.666 42.666-42.666h213.334z m384 0c23.564 0 42.666 19.102 42.666 42.666v213.334c0 23.564-19.102 42.666-42.666 42.666H597.333c-23.564 0-42.666-19.102-42.666-42.666V213.333c0-23.564 19.102-42.666 42.666-42.666h213.334z" p-id="9280"></path></svg>