<?xml version="1.0" standalone="no"?><!DOCTYPE svg PUBLIC "-//W3C//DTD SVG 1.1//EN" "http://www.w3.org/Graphics/SVG/1.1/DTD/svg11.dtd"><svg t="1567587828389" class="icon" viewBox="0 0 1024 1024" version="1.1" xmlns="http://www.w3.org/2000/svg" p-id="10035" xmlns:xlink="http://www.w3.org/1999/xlink" width="200" height="200"><defs><style type="text/css"></style></defs><path d="M428.908 142.645c11.962 34.515 44.535 59.364 83.154 59.364 38.664 0 71.193-24.849 83.198-59.408 3.62-10.46 14.654-16.86 25.335-13.859 30.719 8.695 59.937 21.053 87.17 36.457 9.18 5.208 12.579 16.64 8.65 26.35-6.929 17.08-8.738 36.81-3.354 57.245 7.857 29.704 32.176 53.935 61.924 61.615 20.347 5.208 39.988 3.399 56.98-3.575 9.755-3.972 21.187-0.574 26.395 8.607 15.624 27.453 28.115 56.892 36.898 87.964 3.001 10.637-3.443 21.716-13.903 25.335-34.515 12.005-59.364 44.534-59.364 83.198 0 38.664 24.849 71.192 59.408 83.198 10.46 3.619 16.86 14.653 13.859 25.29a393.928 393.928 0 0 1-32.132 79.137c-5.296 9.843-17.61 13.153-27.717 8.386-26.394-12.49-59.718-12.402-93.791 10.152-5.164 3.398-9.931 8.21-13.33 13.33-23.304 35.397-22.465 70.044-8.43 96.88 5.164 9.842 2.251 22.244-7.37 27.85-28.601 16.64-59.453 29.836-91.982 38.973-10.637 3-21.583-3.399-25.158-13.815-11.872-34.692-44.534-59.717-83.286-59.717s-71.413 25.025-83.286 59.717c-3.575 10.46-14.52 16.816-25.158 13.815-32.97-9.27-64.219-22.643-93.084-39.591-9.534-5.606-12.491-17.876-7.415-27.718 13.859-26.791 14.52-61.262-8.74-96.527-3.398-5.12-8.165-9.887-13.329-13.285-33.588-22.157-66.602-22.554-92.864-10.505-10.107 4.634-22.289 1.28-27.541-8.518-13.285-24.894-24.099-51.332-31.911-79.005-2.957-10.549 3.31-21.495 13.594-25.202 34.074-12.27 58.437-44.579 58.437-82.845 0-38.267-24.363-70.575-58.393-82.845-10.284-3.752-16.595-14.698-13.594-25.246 8.74-31.073 21.186-60.556 36.766-88.01 5.164-9.091 16.551-12.534 26.262-8.65 16.86 6.709 36.28 8.43 56.495 3.001 30.851-8.253 55.524-34.338 62.365-65.499 4.149-18.978 2.163-37.163-4.325-53.096-3.884-9.49-0.133-20.612 8.739-25.688 27.585-15.757 57.201-28.336 88.45-37.163 10.637-3.001 21.715 3.443 25.378 13.903z m83.154 155.96c-117.84 0-213.333 95.492-213.333 213.333 0 117.798 95.492 213.333 213.333 213.333s213.334-95.535 213.334-213.333c0-117.841-95.493-213.334-213.334-213.334z m0 85.333c70.705 0 128 57.295 128 128 0 70.679-57.295 128-128 128-70.704 0-128-57.321-128-128 0-70.705 57.296-128 128-128z" p-id="10036"></path></svg>