<?xml version="1.0" standalone="no"?><!DOCTYPE svg PUBLIC "-//W3C//DTD SVG 1.1//EN" "http://www.w3.org/Graphics/SVG/1.1/DTD/svg11.dtd"><svg t="1567587808382" class="icon" viewBox="0 0 1024 1024" version="1.1" xmlns="http://www.w3.org/2000/svg" p-id="9657" xmlns:xlink="http://www.w3.org/1999/xlink" width="200" height="200"><defs><style type="text/css"></style></defs><path d="M563.76 139.243l6.94 3.718 223.933 132.442c31.673 18.733 55.551 58.879 58.412 96.641l0.288 7.514v264.884c0 37.466-22 78.723-52.493 100.142l-6.207 4.013L570.7 881.039c-31.533 18.65-77.144 19.834-110.46 3.718l-6.942-3.718-223.932-132.442c-31.673-18.733-55.551-58.879-58.412-96.641l-0.288-7.514V379.558c0-37.466 22-78.723 52.493-100.142l6.207-4.013L453.3 142.961c31.533-18.65 77.144-19.834 110.46-3.718z m-63.808 78.565l-3.6 1.543-223.931 132.442c-6.184 3.657-13.527 15.736-15.266 24.33l-0.382 3.435v264.884c0 7.315 6.54 19.868 12.935 25.708l2.713 2.057 223.931 132.442c6.057 3.582 19.503 4.111 27.696 1.543l3.6-1.543 223.931-132.442c6.184-3.657 13.527-15.736 15.266-24.33l0.382-3.435V379.558c0-7.315-6.54-19.868-12.935-25.708l-2.713-2.057-223.931-132.442c-6.057-3.582-19.503-4.111-27.696-1.543zM512 341.333c94.257 0 170.667 76.41 170.667 170.667S606.257 682.667 512 682.667 341.333 606.257 341.333 512 417.743 341.333 512 341.333z m0 85.334c-47.128 0-85.333 38.205-85.333 85.333s38.205 85.333 85.333 85.333 85.333-38.205 85.333-85.333-38.205-85.333-85.333-85.333z" p-id="9658"></path></svg>