<?xml version="1.0" standalone="no"?><!DOCTYPE svg PUBLIC "-//W3C//DTD SVG 1.1//EN" "http://www.w3.org/Graphics/SVG/1.1/DTD/svg11.dtd"><svg t="1567587669744" class="icon" viewBox="0 0 1024 1024" version="1.1" xmlns="http://www.w3.org/2000/svg" p-id="6652" xmlns:xlink="http://www.w3.org/1999/xlink" width="200" height="200"><defs><style type="text/css"></style></defs><path d="M385.907 170.667c40.629 0 85.728 32.273 100.993 72.775l18.803 49.89 1.774 5.335h312.076c42.22 0 76.447 33.036 76.447 73.655v407.356c0 40.679-34.491 73.655-76.447 73.655H204.447c-42.22 0-76.447-33.036-76.447-73.655V249.072c0-43.302 32.995-78.405 73.564-78.405h184.343zM789.333 384H234.667c-11.782 0-21.334 9.551-21.334 21.333 0 11.782 9.552 21.334 21.334 21.334h554.666c11.782 0 21.334-9.552 21.334-21.334S801.115 384 789.333 384z" p-id="6653"></path></svg>