<?xml version="1.0" standalone="no"?><!DOCTYPE svg PUBLIC "-//W3C//DTD SVG 1.1//EN" "http://www.w3.org/Graphics/SVG/1.1/DTD/svg11.dtd"><svg t="1567587800710" class="icon" viewBox="0 0 1024 1024" version="1.1" xmlns="http://www.w3.org/2000/svg" p-id="9405" xmlns:xlink="http://www.w3.org/1999/xlink" width="200" height="200"><defs><style type="text/css"></style></defs><path d="M625.778 739.556h113.778V284.444H625.778v455.112zM512 219.762c0-27.114 19.33-49.095 42.54-49.095h256.253c23.495 0 42.54 21.94 42.54 49.095v584.476c0 27.114-19.33 49.095-42.54 49.095H554.54c-23.494 0-42.54-21.94-42.54-49.095V219.762zM379.196 739.556c29.603 0 53.932 22.367 56.691 51.375l0.261 5.513c0 31.42-25.455 56.89-56.952 56.89H227.619c-31.454 0-56.952-25.252-56.952-56.89 0-31.418 25.455-56.888 56.952-56.888h151.577z m0-189.63c29.603 0 53.932 22.368 56.691 51.376l0.261 5.513c0 31.419-25.455 56.889-56.952 56.889H227.619c-31.454 0-56.952-25.251-56.952-56.89 0-31.418 25.455-56.888 56.952-56.888h151.577z m0-189.63c29.603 0 53.932 22.368 56.691 51.376l0.261 5.513c0 31.42-25.455 56.89-56.952 56.89H227.619c-31.454 0-56.952-25.252-56.952-56.89 0-31.419 25.455-56.889 56.952-56.889h151.577z m0-189.63c29.603 0 53.932 22.368 56.691 51.377l0.261 5.513c0 31.418-25.455 56.888-56.952 56.888H227.619c-31.454 0-56.952-25.25-56.952-56.888 0-31.42 25.455-56.89 56.952-56.89h151.577z" p-id="9406"></path></svg>