<?xml version="1.0" standalone="no"?><!DOCTYPE svg PUBLIC "-//W3C//DTD SVG 1.1//EN" "http://www.w3.org/Graphics/SVG/1.1/DTD/svg11.dtd"><svg t="1574131843418" class="icon" viewBox="0 0 1024 1024" version="1.1" xmlns="http://www.w3.org/2000/svg" p-id="10812" xmlns:xlink="http://www.w3.org/1999/xlink" width="200" height="200"><defs><style type="text/css"></style></defs><path d="M688.957 618.083c19.6 19.602 19.6 51.284 0 70.885-9.775 9.776-22.608 14.688-35.44 14.688-12.833 0-25.666-4.912-35.44-14.688l-106.32-106.327-106.37 106.327c-9.776 9.776-22.608 14.688-35.44 14.688-12.833 0-25.616-4.912-35.44-14.688-19.55-19.6-19.55-51.283 0-70.885l106.32-106.327-106.32-106.327c-19.55-19.6-19.55-51.333 0-70.884 19.599-19.601 51.33-19.601 70.88 0l106.37 106.327 106.32-106.327c19.6-19.601 51.28-19.601 70.88 0 19.6 19.55 19.6 51.283 0 70.884l-106.32 106.327 106.32 106.327z" p-id="10813"></path></svg>