<?xml version="1.0" encoding="UTF-8"?>
<svg width="32px" height="32px" viewBox="0 0 32 32" version="1.1" xmlns="http://www.w3.org/2000/svg" xmlns:xlink="http://www.w3.org/1999/xlink">
    <title>local / icon / avatar_plugin-default</title>
    <g id="local-/-icon-/-avatar_plugin-default" stroke="none" stroke-width="1" fill="none" fill-rule="evenodd">
        <rect id="Rectangle" fill="#C7C6D0" x="0" y="0" width="32" height="32" rx="2"></rect>
        <g id="local-/-icon-/-plugin-2" transform="translate(6.000000, 6.000000)" fill="#FFFFFF">
            <path d="M9.89435386,2 C11.2895089,2 12.4205055,3.05063845 12.4205055,4.34666667 C12.4205055,5.01923966 12.1159186,5.62572712 11.6278919,6.05358956 C11.3025407,6.3388312 12.6894793,6.33874578 15.7887077,6.05333333 C16.0703465,9.19408885 16.0704307,10.5996113 15.7889606,10.2699007 C15.3667553,9.77533479 14.7682868,9.46666667 14.1046066,9.46666667 C12.8257145,9.46666667 11.7889676,10.6128177 11.7889676,12.0266667 C11.7889676,13.4405156 12.8257145,14.5866667 14.1046066,14.5866667 C14.7682868,14.5866667 15.3667553,14.2779985 15.7889606,13.7834326 C16.0704307,13.453722 16.0703465,14.8592445 15.7887077,18 L4,18 L4,6.05333333 C7.09922841,6.33874578 8.48616704,6.3388312 8.16081587,6.05358956 C7.67278912,5.62572712 7.36820221,5.01923966 7.36820221,4.34666667 C7.36820221,3.05063845 8.49919883,2 9.89435386,2 Z" id="Path"></path>
        </g>
    </g>
</svg>