<?xml version="1.0" encoding="UTF-8"?>
<svg width="24px" height="24px" viewBox="0 0 24 24" version="1.1" xmlns="http://www.w3.org/2000/svg" xmlns:xlink="http://www.w3.org/1999/xlink">
    <title>Artboard</title>
    <g id="Artboard" stroke="none" stroke-width="1" fill="none" fill-rule="evenodd">
        <g id="Group" transform="translate(5.000000, 2.000000)">
            <path d="M1,0 L7,0 L7,0 L8,0 L14,6 L14,10 L14,19 C14,19.5522847 13.5522847,20 13,20 L1,20 C0.44771525,20 6.76353751e-17,19.5522847 0,19 L0,1 C-6.76353751e-17,0.44771525 0.44771525,1.01453063e-16 1,0 Z" id="Rectangle" fill="#E1DFE9"></path>
            <path d="M8,0 L14,6 L9,6 C8.44771525,6 8,5.55228475 8,5 L8,0 L8,0 Z" id="Path" fill="#A3A1AB"></path>
        </g>
        <path d="M7.88393447,16.9957727 L8.27028993,16.0035416 L8.65957233,16.9957727 L9.54057987,16.9957727 L8.79128442,15.3771774 L9.51423745,13.8288286 L8.63615685,13.8288286 L8.267363,14.7683749 L7.91320382,13.8288286 L7.03219629,13.8288286 L7.74929544,15.3771774 L7,16.9957727 L7.88393447,16.9957727 Z M10.9616488,16.9957727 L10.9616488,12.5 L10.1303992,12.5 L10.1303992,16.9957727 L10.9616488,16.9957727 Z M12.8246849,17.0543114 C13.1700633,17.0543114 13.4490978,16.9684546 13.6617884,16.7967411 C13.8744791,16.6250275 13.9808244,16.3977022 13.9808244,16.1147651 C13.9808244,15.8708539 13.9110658,15.6723101 13.7715485,15.5191338 C13.6320313,15.3659575 13.393486,15.2269281 13.0559128,15.1020455 C12.8237093,15.0025297 12.6763869,14.9259416 12.6139456,14.8722811 C12.5515043,14.8186206 12.5202837,14.7566671 12.5202837,14.6864207 C12.5202837,14.5888562 12.5485774,14.5127559 12.6051648,14.4581197 C12.6617522,14.4034836 12.7339499,14.3761655 12.821758,14.3761655 C13.0363999,14.3761655 13.1437209,14.5049507 13.1437209,14.762521 L13.1437209,14.762521 L13.9720436,14.762521 C13.9720436,14.460071 13.8676496,14.2190867 13.6588615,14.039568 C13.4500735,13.8600493 13.1720146,13.7702899 12.8246849,13.7702899 C12.4949169,13.7702899 12.2300292,13.8605371 12.030022,14.0410315 C11.8300147,14.2215258 11.7300111,14.4503146 11.7300111,14.7273978 C11.7300111,14.9478936 11.7939159,15.1322905 11.9217254,15.2805886 C12.0495349,15.4288866 12.2841775,15.5723065 12.6256533,15.7108481 C12.8578569,15.8123152 13.0076184,15.8928059 13.0749379,15.9523202 C13.1422574,16.0118346 13.1759172,16.076715 13.1759172,16.1469614 C13.1759172,16.3479443 13.0646936,16.4484358 12.8422465,16.4484358 C12.6978511,16.4484358 12.5939449,16.4123369 12.5305279,16.3401392 C12.467111,16.2679414 12.4334512,16.1596448 12.4295487,16.0152493 L12.4295487,16.0152493 L11.6422031,16.0152493 C11.6422031,16.2025732 11.6924488,16.3772137 11.7929402,16.5391708 C11.8934317,16.7011278 12.0324611,16.8274739 12.2100285,16.9182089 C12.3875959,17.0089439 12.5924814,17.0543114 12.8246849,17.0543114 Z M15.3433546,16.9957727 L15.7297101,16.0035416 L16.1189925,16.9957727 L17,16.9957727 L16.2507046,15.3771774 L16.9736576,13.8288286 L16.095577,13.8288286 L15.7267831,14.7683749 L15.372624,13.8288286 L14.4916164,13.8288286 L15.2087156,15.3771774 L14.4594201,16.9957727 L15.3433546,16.9957727 Z" id="xlsx" fill="#95949D" fill-rule="nonzero"></path>
    </g>
</svg>