<?xml version="1.0" encoding="UTF-8"?>
<svg width="20px" height="20px" viewBox="0 0 20 20" version="1.1" xmlns="http://www.w3.org/2000/svg" xmlns:xlink="http://www.w3.org/1999/xlink">
    <title>local / icon / icon_attachment</title>
    <g id="local-/-icon-/-icon_attachment" stroke="none" stroke-width="1" fill="none" fill-rule="evenodd">
        <path d="M10.5298858,3.00142035 C11.8512504,1.6661932 13.9957886,1.66619322 15.3171532,3.00142038 C16.5885617,4.28616741 16.6339691,6.33865558 15.453204,7.67841451 L15.3169619,7.82426835 L8.69107183,14.5123939 C7.93255178,15.2788717 6.70056471,15.2788717 5.94204466,14.5123939 C5.22616266,13.7890014 5.18848466,12.6417269 5.82918692,11.8735373 L5.94225196,11.7491534 L12.4088858,5.22237394 L13.1192581,5.92620002 L6.65283158,12.4527702 C6.2827958,12.826688 6.2827958,13.4350686 6.65283158,13.8089865 C6.99175677,14.1514674 7.52320439,14.1778121 7.89189887,13.8878686 L7.9804762,13.8087933 L14.6063663,7.12066779 C15.5392465,6.17800051 15.5392465,4.64749503 14.6063663,3.70482777 C13.7186262,2.80777425 12.3063756,2.76699909 11.3709527,3.58250226 L11.2406727,3.70482774 L4.6217936,10.3931464 C3.1260688,11.9045631 3.1260688,14.3571935 4.6217936,15.8686102 C6.06317369,17.325112 8.36719612,17.3753362 9.86806879,16.0192828 L10.0257274,15.8686102 L16.9963102,8.82489803 L17.7070972,9.52830541 L10.7365143,16.5720176 C8.85230528,18.4759941 5.79521573,18.4759941 3.91100667,16.5720176 C2.08667481,14.7285464 2.03139203,11.7764099 3.74515832,9.8657469 L3.91100667,9.68973906 L10.5298858,3.00142035 Z" id="Path" fill="#57565F"></path>
    </g>
</svg>