<?xml version="1.0" encoding="UTF-8"?>
<svg width="20px" height="20px" viewBox="0 0 20 20" version="1.1" xmlns="http://www.w3.org/2000/svg" xmlns:xlink="http://www.w3.org/1999/xlink">
    <title>local/icon/icon_unarchived</title>
    <g id="local/icon/icon_unarchived" stroke="none" stroke-width="1" fill="none" fill-rule="evenodd">
        <g id="rotate-left" transform="translate(4.000000, 4.000000)" fill="#57565F" fill-rule="nonzero">
            <path d="M8.56818683,-0.238788376 C11.5662149,0.616303722 13.5542462,3.3944734 13.3416137,6.44206796 C13.1290599,9.48853479 10.775179,11.9768495 7.68763997,12.4280484 C4.68813657,12.8663821 1.77469527,11.2684299 0.587660441,8.56180176 L0.490180792,8.32711157 L0.307480613,7.86168634 L1.23833107,7.49628598 L1.42103125,7.96171121 C2.36796732,10.3740128 4.91433369,11.8227053 7.54304038,11.4385581 C10.1694115,11.0547522 12.1645015,8.94571959 12.3440389,6.37246657 C12.5234976,3.80034128 10.8411796,1.44938999 8.29390681,0.722861492 C5.82218601,0.0178817868 3.18668501,1.02811764 1.86590068,3.15280001 L1.74223668,3.36187329 L1.49722675,3.79772892 L1.357,3.718 L1.35714286,4.10281967 L0.357142857,4.10281967 L0.357142857,-0.496856727 L1.35714286,-0.496856727 L1.35630792,2.1306488 C2.99484894,-0.0322809867 5.86603509,-1.00949118 8.56818683,-0.238788376 Z" id="Shape"></path>
        </g>
    </g>
</svg>