<?xml version="1.0" encoding="UTF-8"?>
<svg width="20px" height="20px" viewBox="0 0 20 20" version="1.1" xmlns="http://www.w3.org/2000/svg" xmlns:xlink="http://www.w3.org/1999/xlink">
    <title>local / icon / icon_kanban</title>
    <g id="local-/-icon-/-icon_kanban" stroke="none" stroke-width="1" fill="none" fill-rule="evenodd">
        <path d="M8,4 C8.55228475,4 9,4.44771525 9,5 L9,15 C9,15.5522847 8.55228475,16 8,16 L3,16 C2.44771525,16 2,15.5522847 2,15 L2,5 C2,4.44771525 2.44771525,4 3,4 L8,4 Z M8,5 L3,5 L3,15 L8,15 L8,5 Z M16,4 C16.5522847,4 17,4.44771525 17,5 L17,11 C17,11.5522847 16.5522847,12 16,12 L11,12 C10.4477153,12 10,11.5522847 10,11 L10,5 C10,4.44771525 10.4477153,4 11,4 L16,4 Z M16,5 L11,5 L11,11 L16,11 L16,5 Z" id="Combined-Shape" fill="#57565F"></path>
    </g>
</svg>