<?xml version="1.0" encoding="UTF-8"?>
<svg width="24px" height="24px" viewBox="0 0 24 24" version="1.1" xmlns="http://www.w3.org/2000/svg" xmlns:xlink="http://www.w3.org/1999/xlink">
    <title>&gt;&gt;icon/light/icon_dataset large</title>
    <g id="&gt;&gt;icon/light/icon_dataset-large" stroke="none" stroke-width="1" fill="none" fill-rule="evenodd">
        <g id="Group" transform="translate(5.000000, 2.000000)">
            <path d="M1,0 L7,0 L7,0 L8,0 L14,6 L14,10 L14,19 C14,19.5522847 13.5522847,20 13,20 L1,20 C0.44771525,20 6.76353751e-17,19.5522847 0,19 L0,1 C-6.76353751e-17,0.44771525 0.44771525,1.01453063e-16 1,0 Z" id="Rectangle" fill="#E1DFE9"></path>
            <path d="M8,0 L14,6 L9,6 C8.44771525,6 8,5.55228475 8,5 L8,0 L8,0 Z" id="Path" fill="#A3A1AB"></path>
        </g>
        <path d="M8.5418187,17.0137369 C8.9448618,17.0137369 9.27397391,16.8837614 9.52915504,16.6238105 C9.78433617,16.3638597 9.91431161,16.0228232 9.91908135,15.6007012 L9.91908135,15.6007012 L8.96751807,15.6007012 C8.96274832,15.9822804 8.81369393,16.17307 8.52035487,16.17307 C8.389187,16.17307 8.28783001,16.1438554 8.21628389,16.0854261 C8.14473778,16.0269967 8.09346307,15.9351792 8.06245976,15.8099735 C8.03145644,15.6847678 8.01595478,15.4647635 8.01595478,15.1499606 L8.01595478,15.1499606 L8.01595478,14.756457 C8.02072452,14.3963416 8.06126732,14.153681 8.13758317,14.0284754 C8.21389902,13.9032697 8.34029715,13.8406668 8.51677756,13.8406668 C8.67656388,13.8406668 8.79103766,13.8990961 8.8601989,14.0159548 C8.92936014,14.1328134 8.9651332,14.2997544 8.96751807,14.5167776 L8.96751807,14.5167776 L9.91908135,14.5167776 C9.91431161,14.0326489 9.78910591,13.6588204 9.54346426,13.3952923 C9.29782261,13.1317641 8.96155589,13 8.53466409,13 C8.02907157,13 7.64689609,13.1597863 7.38813765,13.4793589 C7.12937922,13.7989316 7,14.2627889 7,14.8709308 L7,14.8709308 L7,15.1785791 C7.00476974,15.7819513 7.13832248,16.238654 7.40065822,16.5486871 C7.66299397,16.8587203 8.04338079,17.0137369 8.5418187,17.0137369 Z M11.958861,17.0137369 C12.380983,17.0137369 12.7220195,16.9088026 12.9819704,16.698934 C13.2419213,16.4890654 13.3718967,16.211228 13.3718967,15.8654218 C13.3718967,15.567313 13.2866376,15.3246524 13.1161193,15.1374401 C12.9456011,14.9502278 12.6540507,14.7803057 12.2414681,14.627674 C11.9576686,14.5060456 11.7776108,14.4124395 11.701295,14.3468555 C11.6249791,14.2812716 11.5868212,14.205552 11.5868212,14.1196966 C11.5868212,14.0004531 11.6214018,13.9074432 11.6905631,13.8406668 C11.7597243,13.7738904 11.8479645,13.7405023 11.9552837,13.7405023 C12.2176194,13.7405023 12.3487873,13.8979037 12.3487873,14.2127066 L12.3487873,14.2127066 L13.3611648,14.2127066 C13.3611648,13.8430517 13.2335742,13.5485202 12.9783931,13.3291121 C12.7232119,13.109704 12.3833679,13 11.958861,13 C11.5558179,13 11.2320717,13.1103003 10.9876225,13.3309008 C10.7431733,13.5515013 10.6209487,13.8311273 10.6209487,14.1697789 C10.6209487,14.4392693 10.6990532,14.6646395 10.8552622,14.8458897 C11.0114712,15.0271398 11.2982519,15.2024278 11.7156042,15.3717536 C11.9994038,15.4957669 12.1824426,15.5941428 12.2647206,15.6668813 C12.3469986,15.7396199 12.3881377,15.8189168 12.3881377,15.9047721 C12.3881377,16.1504138 12.2522,16.2732346 11.9803248,16.2732346 C11.8038444,16.2732346 11.6768501,16.2291145 11.5993418,16.1408743 C11.5218335,16.0526341 11.4806945,15.9202738 11.4759247,15.7437934 L11.4759247,15.7437934 L10.5136295,15.7437934 C10.5136295,15.9727409 10.5750399,16.1861868 10.6978608,16.3841311 C10.8206816,16.5820753 10.9906036,16.7364957 11.2076268,16.8473921 C11.42465,16.9582886 11.6750614,17.0137369 11.958861,17.0137369 Z M15.9375402,16.9421907 L17,13.0715461 L15.9446949,13.0715461 L15.454604,15.5112685 L14.9645131,13.0715461 L13.9056307,13.0715461 L14.9716677,16.9421907 L15.9375402,16.9421907 Z" id="csv" fill="#95949D" fill-rule="nonzero"></path>
    </g>
</svg>