<?xml version="1.0" encoding="UTF-8"?>
<svg width="24px" height="24px" viewBox="0 0 24 24" version="1.1" xmlns="http://www.w3.org/2000/svg" xmlns:xlink="http://www.w3.org/1999/xlink">
    <title>local / icon / icon_data-volume</title>
    <g id="local-/-icon-/-icon_data-volume" stroke="none" stroke-width="1" fill="none" fill-rule="evenodd">
        <circle id="Oval" fill="#E1DFE9" cx="12" cy="12" r="12"></circle>
        <path d="M5.888375,15.2827413 C5.62858234,15.114276 5.52173722,14.7872651 5.63195001,14.4979252 C5.66127292,14.3634433 5.74990512,14.2494645 5.87302429,14.1879095 C5.99614347,14.1263545 6.1405127,14.1238414 6.2657,14.1810739 L12.000325,17.2000975 L17.735925,14.1810739 C17.8611123,14.1238414 18.0054815,14.1263545 18.1286007,14.1879095 C18.2517199,14.2494644 18.3403521,14.3634433 18.369675,14.4979252 C18.4798878,14.7872651 18.3730427,15.114276 18.11325,15.2827413 L12.000325,18.5 L5.888375,15.2827413 Z M5.888375,12.0576832 C5.62868477,11.8894465 5.52182638,11.5626659 5.63195001,11.273517 C5.66111125,11.1389168 5.74967777,11.0247694 5.87281908,10.9630771 C5.99596039,10.9013848 6.14042101,10.8987884 6.2657,10.9560158 L12.000325,13.9750394 L17.735925,10.9560158 C17.861204,10.8987884 18.0056646,10.9013848 18.1288059,10.9630771 C18.2519472,11.0247694 18.3405138,11.1389168 18.369675,11.273517 C18.4797986,11.5626659 18.3729402,11.8894466 18.11325,12.0576832 L12.000325,15.2749419 L5.888375,12.0576832 Z M5.5,8.91776867 L12,5.5 L18.5,8.91776867 L12,12.3348874 L5.5,8.91776867 Z" id="Shape" fill="#63616B"></path>
    </g>
</svg>