<?xml version="1.0" encoding="UTF-8"?>
<svg width="20px" height="20px" viewBox="0 0 20 20" version="1.1" xmlns="http://www.w3.org/2000/svg" xmlns:xlink="http://www.w3.org/1999/xlink">
    <title>local / icon / icon_project-stroke</title>
    <g id="local-/-icon-/-icon_project-stroke" stroke="none" stroke-width="1" fill="none" fill-rule="evenodd">
        <path d="M16,2 C16.5522847,2 17,2.44771525 17,3 L17,14 L12.9166667,18 L4,18 C3.44771525,18 3,17.5522847 3,17 L3,3 C3,2.44771525 3.44771525,2 4,2 L16,2 Z M16,3 L4,3 L4,17 L12.507,17 L16,13.579 L16,3 Z M10,9 L10,10 L6,10 L6,9 L10,9 Z M14,6 L14,7 L6,7 L6,6 L14,6 Z" id="Combined-Shape" fill="#57565F"></path>
    </g>
</svg>