<?xml version="1.0" encoding="UTF-8"?>
<svg width="20px" height="20px" viewBox="0 0 20 20" version="1.1" xmlns="http://www.w3.org/2000/svg" xmlns:xlink="http://www.w3.org/1999/xlink">
    <title>local / icon / icon_time</title>
    <g id="local-/-icon-/-icon_time" stroke="none" stroke-width="1" fill="none" fill-rule="evenodd">
        <g id="clock-copy" transform="translate(2.000000, 2.000000)" fill="#57565F">
            <path d="M7.8627451,0.5 C11.9290769,0.5 15.2254902,3.79641326 15.2254902,7.8627451 C15.2254902,11.9290769 11.9290769,15.2254902 7.8627451,15.2254902 C3.79641326,15.2254902 0.5,11.9290769 0.5,7.8627451 C0.5,3.79641326 3.79641326,0.5 7.8627451,0.5 Z M7.8627451,1.5 C4.34869801,1.5 1.5,4.34869801 1.5,7.8627451 C1.5,11.3767922 4.34869801,14.2254902 7.8627451,14.2254902 C11.3767922,14.2254902 14.2254902,11.3767922 14.2254902,7.8627451 C14.2254902,4.34869801 11.3767922,1.5 7.8627451,1.5 Z M8.3627451,3.24509804 L8.362,7.553 L11.2786635,9.01168732 L10.8314499,9.90611451 L7.3627451,8.17176209 L7.3627451,3.24509804 L8.3627451,3.24509804 Z" id="Combined-Shape"></path>
        </g>
    </g>
</svg>