<?xml version="1.0" encoding="UTF-8"?>
<svg width="20px" height="20px" viewBox="0 0 20 20" version="1.1" xmlns="http://www.w3.org/2000/svg" xmlns:xlink="http://www.w3.org/1999/xlink">
    <title>local/icon/icon_subscribed</title>
    <g id="local/icon/icon_subscribed" stroke="none" stroke-width="1" fill="none" fill-rule="evenodd">
        <g id="rss" transform="translate(2.500000, 2.500000)" fill="#57565F">
            <path d="M1.47165698,12.0863309 C2.28443068,12.0863309 2.94331395,12.738578 2.94331395,13.5431655 C2.94331395,14.347753 2.28443068,15 1.47165698,15 C0.658883272,15 0,14.347753 0,13.5431655 C0,12.738578 0.658883272,12.0863309 1.47165698,12.0863309 Z M0.523255814,6.04316547 C5.14703511,6.04316547 8.89534884,9.75372639 8.89534884,14.3309353 C8.89534884,14.6170108 8.66107923,14.8489209 8.37209302,14.8489209 C8.08310682,14.8489209 7.84883721,14.6170108 7.84883721,14.3309353 C7.84883721,10.3258775 4.5690627,7.07913669 0.523255814,7.07913669 C0.234269608,7.07913669 -4.76063633e-13,6.84722663 -4.76063633e-13,6.56115108 C-4.76063633e-13,6.27507553 0.234269608,6.04316547 0.523255814,6.04316547 Z M0.523255814,0 C8.51854086,0 15,6.41617826 15,14.3309353 C15,14.6170108 14.7657304,14.8489209 14.4767442,14.8489209 C14.187758,14.8489209 13.9534884,14.6170108 13.9534884,14.3309353 C13.9534884,6.98832937 7.94056844,1.03597122 0.523255814,1.03597122 C0.234269608,1.03597122 0,0.804061165 0,0.517985612 C0,0.231910058 0.234269608,0 0.523255814,0 Z" id="Combined-Shape"></path>
        </g>
    </g>
</svg>