<?xml version="1.0" encoding="UTF-8"?>
<svg width="20px" height="20px" viewBox="0 0 20 20" version="1.1" xmlns="http://www.w3.org/2000/svg" xmlns:xlink="http://www.w3.org/1999/xlink">
    <title>local / icon / icon_update-time</title>
    <g id="local-/-icon-/-icon_update-time" stroke="none" stroke-width="1" fill="none" fill-rule="evenodd">
        <path d="M12.9733613,2.80155105 C16.4334977,3.78844487 18.7273915,6.99404129 18.4820848,10.5099458 C18.2368567,14.0247227 15.5205616,16.8961496 11.9568633,17.4169322 C8.48236315,17.9246798 5.10827882,16.0656746 3.74768761,12.9226323 L3.64944846,12.6845135 L3.46674828,12.2190882 L4.39759874,11.8536879 L4.58029892,12.3191131 C5.69932153,15.1698019 8.70739787,16.8811729 11.8122637,16.427442 C14.9147941,15.9740524 17.2722982,13.4819075 17.4845099,10.4403444 C17.6966429,7.39990917 15.7084624,4.62153113 12.6990813,3.76320092 C9.76922921,2.92755385 6.64433019,4.13240975 5.08936379,6.66135759 L4.95996686,6.88135051 L4.71495693,7.31720615 L4.5,7.197 L4.5,7.70328962 L3.5,7.70328962 L3.5,2.50366715 L4.5,2.50366715 L4.50006294,5.73940587 C6.36229508,3.10172352 9.77060258,1.88806604 12.9733613,2.80155105 Z M11,5.5 L11,9.808 L13.9159184,11.2665893 L13.4687048,12.1610165 L10,10.4266641 L10,5.5 L11,5.5 Z" id="Combined-Shape" fill="#57565F"></path>
    </g>
</svg>