<?xml version="1.0" encoding="UTF-8"?>
<svg width="20px" height="20px" viewBox="0 0 20 20" version="1.1" xmlns="http://www.w3.org/2000/svg" xmlns:xlink="http://www.w3.org/1999/xlink">
    <title>local / icon / icon_refresh</title>
    <g id="local-/-icon-/-icon_refresh" stroke="none" stroke-width="1" fill="none" fill-rule="evenodd">
        <g id="Group" transform="translate(3.000000, 3.000000)" fill="#57565F">
            <path d="M13.1644104,9.11848619 C13.4098703,9.11848619 13.6140188,9.29536135 13.6563547,9.52861056 L13.6644104,9.61848619 L13.6644104,14.0073751 L12.6644104,14.0073751 L12.6635215,10.118264 L8.7755215,10.1184862 L8.7755215,9.11848619 L13.1644104,9.11848619 Z M1.34959558,0.04441212 L1.3495215,3.93326397 L5.23848447,3.93330101 L5.23848447,4.93330101 L0.849595576,4.93330101 C0.604135687,4.93330101 0.399987206,4.75642585 0.357651246,4.52317664 L0.349595576,4.43330101 L0.349595576,0.04441212 L1.34959558,0.04441212 Z" id="Shape"></path>
            <path d="M0.998625244,6.82444617 L1.02483412,7.3237588 C1.16552677,10.0041333 3.07446069,12.2625973 5.69395234,12.8478028 C8.23158487,13.4147207 10.8340511,12.2768337 12.147028,10.0544183 L12.2700193,9.83598102 L12.5062282,9.39529364 L13.3876029,9.8677114 L13.1513941,10.3083988 C11.6714068,13.0695639 8.53334794,14.5067868 5.47592271,13.823745 C2.50342596,13.1596766 0.31484475,10.649603 0.0446443767,7.63571255 L0.02620888,7.37617656 L7.10542736e-14,6.87686393 L0.998625244,6.82444617 Z M8.56969434,0.176327427 C11.5489387,0.857750336 13.7282239,3.39324282 13.9718974,6.41962634 L13.9880169,6.68020103 L14.0096354,7.17973345 L13.0105705,7.22297045 L12.988952,6.72343802 C12.8725046,4.03272002 10.9721667,1.75165284 8.34672875,1.15115374 C5.80333577,0.569420243 3.18716687,1.70385878 1.86739385,3.93234643 L1.74376686,4.15140099 L1.50714836,4.59186856 L0.626213206,4.11863157 L0.862831702,3.67816399 C2.35045175,0.908945154 5.50532873,-0.524564707 8.56969434,0.176327427 Z" id="Shape"></path>
        </g>
    </g>
</svg>