<?xml version="1.0" encoding="UTF-8"?>
<svg width="20px" height="20px" viewBox="0 0 20 20" version="1.1" xmlns="http://www.w3.org/2000/svg" xmlns:xlink="http://www.w3.org/1999/xlink">
    <title>local / icon / icon_readme</title>
    <g id="local-/-icon-/-icon_readme" stroke="none" stroke-width="1" fill="none" fill-rule="evenodd">
        <g id="book-opened" transform="translate(2.000000, 3.000000)" fill="#57565F">
            <path d="M11.1111111,0.5 C12.2648968,0.5 13.6469274,1.0528537 15.2773021,2.13949841 L15.2773021,2.13949841 L15.5,2.28792656 L15.5,14.378703 L14.7226979,13.8605016 C13.2415237,12.8732989 12.0305893,12.3888889 11.1111111,12.3888889 C10.221602,12.3888889 9.30372272,12.8478285 8.35355339,13.7979978 L8.35355339,13.7979978 L8,14.1515512 L7.64644661,13.7979978 L7.4072432,13.5810172 C7.20903283,13.4111226 6.98776628,13.2409176 6.75042768,13.0826918 C6.09587073,12.6463205 5.45229167,12.3888889 4.88888889,12.3888889 C4.58534821,12.3888889 4.21024143,12.4639102 3.78311388,12.6062861 C3.40673335,12.7317463 3.00250114,12.9049886 2.58471791,13.1138803 C2.25672966,13.2778744 1.93959732,13.454059 1.64613677,13.6301354 L1.64613677,13.6301354 L1.38551752,13.7904604 L0.5,14.378703 L0.5,2.28796368 L0.722649902,2.13953041 L1.02394694,1.9489428 L1.45370691,1.69572733 C1.67339219,1.57099352 1.90245945,1.44808662 2.13750431,1.33056418 C2.59472108,1.1019558 3.04118332,0.910614838 3.46688612,0.768713907 C3.98767524,0.595117532 4.4632629,0.5 4.88888889,0.5 C5.68659722,0.5 6.5013515,0.825901711 7.30512788,1.36175263 C7.57820594,1.54380467 7.83089773,1.73818297 8.05803458,1.9328717 L7.991,1.877 L8.06928923,1.80633454 C8.91809256,1.06633593 9.78543969,0.635150377 10.6683644,0.527056517 L10.8894184,0.506772392 Z M4.88888889,1.5 C4.58534821,1.5 4.21024143,1.57502136 3.78311388,1.7173972 C3.40673335,1.84285738 3.00250114,2.01609976 2.58471791,2.22499137 C2.25672966,2.3889855 1.93959732,2.56517013 1.64613677,2.74124646 L1.64613677,2.74124646 L1.5,2.829 L1.5,12.558 L1.78984577,12.3993304 L2.13750431,12.2194531 C2.59472108,11.9908447 3.04118332,11.7995037 3.46688612,11.6576028 C3.98767524,11.4840064 4.4632629,11.3888889 4.88888889,11.3888889 C5.68659722,11.3888889 6.5013515,11.7147906 7.30512788,12.2506415 C7.37185748,12.2951279 7.43736977,12.3403504 7.50158933,12.3861335 L7.5,2.775 L7.4072432,2.6921283 C7.27510295,2.57886523 7.13271552,2.46546419 6.98215026,2.35556659 L6.75042768,2.19380292 C6.09587073,1.75743162 5.45229167,1.5 4.88888889,1.5 Z M11.1111111,1.5 C10.221602,1.5 9.30372272,1.95893962 8.35355339,2.90910895 L8.5,2.767 L8.50021627,12.3473094 C9.21102867,11.8190029 9.9343129,11.5058132 10.6683644,11.4159454 L10.8894184,11.3956613 L11.1111111,11.3888889 C12.048562,11.3888889 13.1366902,11.7538587 14.3862764,12.4735736 L14.3862764,12.4735736 L14.5,12.54 L14.5,2.826 L14.1799665,2.62494421 C13.0316742,1.92473844 12.0635333,1.55493741 11.2869236,1.50568117 L11.2869236,1.50568117 Z" id="Combined-Shape"></path>
        </g>
    </g>
</svg>