<?xml version="1.0" encoding="UTF-8"?>
<svg width="20px" height="20px" viewBox="0 0 20 20" version="1.1" xmlns="http://www.w3.org/2000/svg" xmlns:xlink="http://www.w3.org/1999/xlink">
    <title>local / icon /icon_ at</title>
    <g id="local-/-icon-/icon_-at" stroke="none" stroke-width="1" fill="none" fill-rule="evenodd">
        <path d="M11.638096,2.20625638 C15.107326,3.01587197 17.5858057,6.05433647 17.7020756,9.59342247 L17.7063475,9.85324834 L17.7063475,10.5885425 C17.7063475,12.08296 16.4948827,13.2944248 15.0004652,13.2944248 C13.9777745,13.2944248 13.0875968,12.727069 12.6275128,11.889938 C12.0012653,12.741544 10.9919019,13.2944248 9.85340636,13.2944248 C7.95289708,13.2944248 6.41222989,11.7537576 6.41222989,9.85324834 C6.41222989,7.95273906 7.95289708,6.41207187 9.85340636,6.41207187 C10.8076204,6.41207187 11.6711227,6.80045508 12.2944573,7.42776562 L12.2945828,6.41207187 L13.2945828,6.41207187 L13.2945828,10.5885425 C13.2945828,11.5306753 14.0583324,12.2944248 15.0004652,12.2944248 C15.8930121,12.2944248 16.6254587,11.6089543 16.7000859,10.7357325 L16.7063475,10.5885425 L16.7063475,9.85327983 C16.706147,6.66865267 14.5121279,3.90384023 11.4108322,3.1800896 C8.30953644,2.45633897 5.11835404,3.96440478 3.7085494,6.81997846 C2.29874476,9.67555215 3.04189166,13.1260072 5.50221922,15.1480454 C7.8901842,17.1106119 11.2849342,17.2255021 13.7943568,15.4601795 L14.0199946,15.2945151 L14.4169631,14.9905151 L15.0249631,15.7844522 L14.6279946,16.0884522 C11.7306511,18.3072489 7.68662735,18.2377088 4.86728203,15.9206092 C2.04793672,13.6035096 1.19634778,9.64955466 2.81187499,6.37728782 C4.42740219,3.10502098 8.0842507,1.37689407 11.638096,2.20625638 Z M9.85340636,7.41207187 C8.50518183,7.41207187 7.41222989,8.50502381 7.41222989,9.85324834 C7.41222989,11.2014729 8.50518183,12.2944248 9.85340636,12.2944248 C11.2016309,12.2944248 12.2945828,11.2014729 12.2945828,9.85324834 C12.2945828,8.50502381 11.2016309,7.41207187 9.85340636,7.41207187 Z" id="Combined-Shape" fill="#57565F"></path>
    </g>
</svg>