<?xml version="1.0" encoding="UTF-8"?>
<svg width="16px" height="16px" viewBox="0 0 16 16" version="1.1" xmlns="http://www.w3.org/2000/svg" xmlns:xlink="http://www.w3.org/1999/xlink">
    <title>local / icon / icon_navexpand</title>
    <g id="local-/-icon-/-icon_navexpand" stroke="none" stroke-width="1" fill="none" fill-rule="evenodd">
        <g id="Group" transform="translate(2.000000, 2.000000)" fill="#57565F">
            <path d="M4,0 L4,12 L1,12 C0.44771525,12 6.76353751e-17,11.5522847 0,11 L0,1 C-6.76353751e-17,0.44771525 0.44771525,1.01453063e-16 1,0 L4,0 Z M8.59294197,2.19462285 L8.68920043,2.27542926 L11.5803326,5.02542926 C12.1049168,5.52440564 12.1377034,6.33312358 11.6786921,6.87081766 L11.5803326,6.97457074 L8.68920043,9.72457074 C8.28903106,10.1052056 7.65606415,10.0893698 7.27542926,9.68920043 C6.92407397,9.31981332 6.91053989,8.75206617 7.2252808,8.36752653 L7.31079957,8.27542926 L9.702,5.99999804 L7.31079957,3.72457074 C6.94141245,3.37321546 6.89950481,2.80685537 7.19462285,2.40705803 L7.27542926,2.31079957 C7.62678454,1.94141245 8.19314463,1.89950481 8.59294197,2.19462285 Z" id="Combined-Shape" transform="translate(6.000000, 6.000000) scale(-1, 1) translate(-6.000000, -6.000000) "></path>
        </g>
    </g>
</svg>