<?xml version="1.0" encoding="UTF-8"?>
<svg width="20px" height="20px" viewBox="0 0 20 20" version="1.1" xmlns="http://www.w3.org/2000/svg" xmlns:xlink="http://www.w3.org/1999/xlink">
    <title>local  / icon / icon_link</title>
    <g id="local--/-icon-/-icon_link" stroke="none" stroke-width="1" fill="none" fill-rule="evenodd">
        <path d="M8.73643885,7.49767305 L8.97134166,7.50721173 C10.0694578,7.58591983 11.0792778,8.13807434 11.7387105,9.02036783 C11.9210919,9.26438644 11.8712838,9.61017067 11.627461,9.79269852 C11.3836383,9.97522637 11.0381316,9.92537826 10.8557503,9.68135965 C10.3879476,9.05545914 9.67157956,8.66375979 8.89257407,8.60792412 C8.18438726,8.55716443 7.48791478,8.78852806 6.95224404,9.24638971 L6.79651596,9.39048751 L4.85738626,11.3310572 C3.83728664,12.3880927 3.8518755,14.0683037 4.89017564,15.1074379 C5.88128032,16.0993388 7.45603767,16.1577286 8.50981519,15.2788982 L8.65669148,15.1469749 L9.76582347,14.0369519 C9.98112847,13.821474 10.3302068,13.821474 10.5455118,14.0369519 C10.736894,14.2284879 10.7581587,14.5258063 10.6093059,14.7408494 L10.5455118,14.8172666 L9.42954619,15.9340109 C7.94070416,17.3731379 5.5741152,17.3525563 4.11048729,15.8877526 C2.69913181,14.4752633 2.62960393,12.222484 3.92179987,10.7212157 L4.07098201,10.5575816 L6.01675694,8.61024354 C6.73949479,7.8866628 7.72073573,7.48792565 8.73643885,7.49767305 Z M15.8895127,4.11224737 C17.3008682,5.52473665 17.3703961,7.777516 16.0782001,9.27878433 L15.929018,9.44241841 L13.9832431,11.3897565 C13.20491,12.1689973 12.1267745,12.5714964 11.0286583,12.4927883 C9.93054217,12.4140802 8.92072223,11.8619257 8.26128947,10.9796322 C8.07890814,10.7356136 8.12871624,10.3898293 8.37253898,10.2073015 C8.61636171,10.0247736 8.96186838,10.0746217 9.14424972,10.3186404 C9.61205244,10.9445409 10.3284204,11.3362402 11.1074259,11.3920759 C11.8156127,11.4428356 12.5120852,11.2114719 13.047756,10.7536103 L13.203484,10.6095125 L15.1426137,8.66894284 C16.1627134,7.61190728 16.1481245,5.93169633 15.1098244,4.89256208 C14.1187197,3.9006612 12.5439623,3.84227138 11.4891948,4.72208967 L11.3421703,4.85416088 L10.2265522,5.96418388 C10.0106204,6.17903271 9.66154348,6.17801418 9.44686711,5.96190892 C9.25604367,5.76981536 9.23564519,5.47243623 9.38512384,5.2578283 L9.44914025,5.18159753 L10.5704538,4.06598905 C12.0592958,2.62686213 14.4258848,2.64744367 15.8895127,4.11224737 Z" id="Combined-Shape" fill="#57565F"></path>
    </g>
</svg>