<?xml version="1.0" encoding="UTF-8"?>
<svg width="20px" height="20px" viewBox="0 0 20 20" version="1.1" xmlns="http://www.w3.org/2000/svg" xmlns:xlink="http://www.w3.org/1999/xlink">
    <title>local / icon / icon_code</title>
    <g id="local-/-icon-/-icon_code" stroke="none" stroke-width="1" fill="none" fill-rule="evenodd">
        <path d="M13.2014519,5.09018262 L13.2701839,5.14907739 L18,10 L13.2701839,14.8509226 C13.0763764,15.0496925 12.7621525,15.0496925 12.5683451,14.8509226 C12.3960718,14.6742383 12.3769304,14.3999739 12.5109207,14.2016052 L12.5683451,14.1311133 L16.5955526,9.99922156 L12.5683451,5.86888669 C12.3960718,5.69220237 12.3769304,5.41793801 12.5109207,5.21956925 L12.5683451,5.14907739 C12.7406184,4.97239308 13.0080355,4.95276149 13.2014519,5.09018262 Z M7.4316549,5.14907739 C7.60392817,5.3257617 7.62306965,5.60002606 7.48907933,5.79839482 L7.4316549,5.86888669 L3.40357158,9.99922156 L7.4316549,14.1311133 C7.60392817,14.3077976 7.62306965,14.582062 7.48907933,14.7804308 L7.4316549,14.8509226 C7.25938164,15.0276069 6.99196447,15.0472385 6.79854811,14.9098174 L6.72981612,14.8509226 L2,10 L6.72981612,5.14907739 C6.92362355,4.95030754 7.23784748,4.95030754 7.4316549,5.14907739 Z" id="Combined-Shape" fill="#57565F"></path>
    </g>
</svg>