<?xml version="1.0" encoding="UTF-8"?>
<svg width="20px" height="20px" viewBox="0 0 20 20" version="1.1" xmlns="http://www.w3.org/2000/svg" xmlns:xlink="http://www.w3.org/1999/xlink">
    <title>local / icon / icon_group-stroke</title>
    <g id="local-/-icon-/-icon_group-stroke" stroke="none" stroke-width="1" fill="none" fill-rule="evenodd">
        <g id="users" transform="translate(2.000000, 3.000000)" fill="#57565F">
            <path d="M8.89473684,8.39473684 C10.5646214,8.39473684 11.9292329,9.70176613 12.0213585,11.3486118 L12.0263158,11.5263158 L12.0263158,13.3421053 L11.0263158,13.3421053 L11.0263158,11.5263158 C11.0263158,10.4002615 10.1531575,9.47814432 9.04696551,9.40008886 L8.89473684,9.39473684 L3.63157895,9.39473684 C2.50552469,9.39473684 1.58340748,10.2678952 1.50535202,11.3740871 L1.5,11.5263158 L1.5,13.3421053 L0.5,13.3421053 L0.5,11.5263158 C0.5,9.85643123 1.80702929,8.49181971 3.45387494,8.39969417 L3.63157895,8.39473684 L8.89473684,8.39473684 Z M13.1408769,8.37114034 L13.6249999,8.4961402 C14.9467295,8.83740892 15.8878496,9.99215981 15.9681193,11.3412084 L15.9736842,11.5263158 L15.9736842,13.3421053 L14.9736842,13.3421053 L14.9736843,11.5266887 C14.9730024,10.6124258 14.3906278,9.80743412 13.5379657,9.51342639 L13.3750001,9.46438611 L12.8908772,9.33938625 L13.1408769,8.37114034 Z M10.5080656,0.477131723 L10.9924406,0.601151316 C12.3780976,0.955935557 13.3472653,2.20451281 13.3472653,3.63486842 C13.3472653,5.00303466 12.460541,6.20488572 11.1707711,6.61729907 L10.9924406,6.66858553 L10.5080656,6.79260512 L10.2600265,5.82385512 L10.7444015,5.69983553 C11.6875798,5.45834373 12.3472653,4.60847182 12.3472653,3.63486842 C12.3472653,2.71853581 11.7629072,1.91180618 10.9078253,1.61873423 L10.7444015,1.56990132 L10.2600265,1.44588172 L10.5080656,0.477131723 Z M6.26315789,0.5 C7.99268119,0.5 9.39473684,1.90205565 9.39473684,3.63157895 C9.39473684,5.36110224 7.99268119,6.76315789 6.26315789,6.76315789 C4.5336346,6.76315789 3.13157895,5.36110224 3.13157895,3.63157895 C3.13157895,1.90205565 4.5336346,0.5 6.26315789,0.5 Z M6.26315789,1.5 C5.08591935,1.5 4.13157895,2.4543404 4.13157895,3.63157895 C4.13157895,4.80881749 5.08591935,5.76315789 6.26315789,5.76315789 C7.44039644,5.76315789 8.39473684,4.80881749 8.39473684,3.63157895 C8.39473684,2.4543404 7.44039644,1.5 6.26315789,1.5 Z" id="Combined-Shape"></path>
        </g>
    </g>
</svg>