<?xml version="1.0" encoding="UTF-8"?>
<svg width="20px" height="20px" viewBox="0 0 20 20" version="1.1" xmlns="http://www.w3.org/2000/svg" xmlns:xlink="http://www.w3.org/1999/xlink">
    <title>local / icon / icon_storage</title>
    <g id="local-/-icon-/-icon_storage" stroke="none" stroke-width="1" fill="none" fill-rule="evenodd">
        <path d="M17.5,17.5 L9.5,17.5 L9.5,12.5 L2.5,12.5 L2.5,2.5 L10.5,2.5 L10.5,7.5 L17.5,7.5 L17.5,17.5 Z M16.5,14.5 L10.5,14.5 L10.5,16.5 L16.5,16.5 L16.5,14.5 Z M16.5,11.5 L10.5,11.5 L10.5,13.5 L16.5,13.5 L16.5,11.5 Z M9.5,9.5 L3.5,9.5 L3.5,11.5 L9.5,11.5 L9.5,9.5 Z M16.5,8.5 L10.5,8.5 L10.5,10.5 L16.5,10.5 L16.5,8.5 Z M9.5,6.5 L3.5,6.5 L3.5,8.5 L9.5,8.5 L9.5,6.5 Z M9.5,3.5 L3.5,3.5 L3.5,5.5 L9.5,5.5 L9.5,3.5 Z" id="Combined-Shape" fill="#57565F"></path>
    </g>
</svg>