<?xml version="1.0" encoding="UTF-8"?>
<svg width="20px" height="20px" viewBox="0 0 20 20" version="1.1" xmlns="http://www.w3.org/2000/svg" xmlns:xlink="http://www.w3.org/1999/xlink">
    <title>local / icon / icon_nav-showmore</title>
    <g id="local-/-icon-/-icon_nav-showmore" stroke="none" stroke-width="1" fill="none" fill-rule="evenodd">
        <rect id="Rectangle" fill-opacity="0.12" fill="#25232D" x="0" y="0" width="20" height="20" rx="2"></rect>
        <path d="M13.5,6 C13.2545401,6 13.0503916,6.17687516 13.0080557,6.41012437 L13,6.5 L13,13.5 L13.0080557,13.5898756 C13.0503916,13.8231248 13.2545401,14 13.5,14 C13.7454599,14 13.9496084,13.8231248 13.9919443,13.5898756 L14,13.5 L14,6.5 L13.9919443,6.41012437 C13.9496084,6.17687516 13.7454599,6 13.5,6 Z M6.14644661,6.64644661 C5.97288026,6.82001296 5.95359511,7.08943736 6.08859116,7.2843055 L6.14644661,7.35355339 L8.793,10 L6.14644661,12.6464466 C5.97288026,12.820013 5.95359511,13.0894374 6.08859116,13.2843055 L6.14644661,13.3535534 C6.32001296,13.5271197 6.58943736,13.5464049 6.7843055,13.4114088 L6.85355339,13.3535534 L9.85355339,10.3535534 C10.0271197,10.179987 10.0464049,9.91056264 9.91140884,9.7156945 L9.85355339,9.64644661 L6.85355339,6.64644661 C6.65829124,6.45118446 6.34170876,6.45118446 6.14644661,6.64644661 Z" id="Shape" fill="#57565F"></path>
    </g>
</svg>