<?xml version="1.0" encoding="UTF-8"?>
<svg width="20px" height="20px" viewBox="0 0 20 20" version="1.1" xmlns="http://www.w3.org/2000/svg" xmlns:xlink="http://www.w3.org/1999/xlink">
    <title>local / icon / icon_release</title>
    <g id="local-/-icon-/-icon_release" stroke="none" stroke-width="1" fill="none" fill-rule="evenodd">
        <path d="M15.5806132,10.1428472 C17.0995131,10.6070092 18.0986146,12.1029292 17.9922622,13.7361244 C17.88579,15.3711595 16.6991933,16.715122 15.1311699,16.9606332 C13.6218382,17.1969549 12.1609763,16.3527218 11.5485443,14.9256021 L11.4764671,14.7442123 L11.3044605,14.2747299 L12.2434253,13.9307167 L12.4154319,14.4001991 C12.8162616,15.4942414 13.88221,16.144004 14.9764809,15.97267 C16.0749489,15.8006788 16.917872,14.8459677 16.9943757,13.6711428 C17.0709992,12.4944781 16.357271,11.4258377 15.2883638,11.0991893 C14.2827626,10.7918868 13.2093145,11.21691 12.6421471,12.133462 L12.5524054,12.2907305 L12.4,12.58 L12.4,12.8014098 L11.4,12.8014098 L11.4,10.0015716 L12.4,10.0015716 L12.3999978,10.8727469 C13.2486817,10.0978032 14.4431588,9.79525149 15.5806132,10.1428472 Z M9.5,10 L9.5,11 L3,11 L3,15 L9.5,15 L9.5,16 L2,16 L2,10 L9.5,10 Z M17,2 L17,8 L2,8 L2,2 L17,2 Z M16,3 L3,3 L3,7 L16,7 L16,3 Z" id="Combined-Shape" fill="#57565F"></path>
    </g>
</svg>