<?xml version="1.0" encoding="UTF-8"?>
<svg width="20px" height="20px" viewBox="0 0 20 20" version="1.1" xmlns="http://www.w3.org/2000/svg" xmlns:xlink="http://www.w3.org/1999/xlink">
    <title>local / icon / icon_log</title>
    <g id="local-/-icon-/-icon_log" stroke="none" stroke-width="1" fill="none" fill-rule="evenodd">
        <path d="M15,4 C15.5522847,4 16,4.44771525 16,5 L16,16 C16,16.5522847 15.5522847,17 15,17 L5,17 C4.44771525,17 4,16.5522847 4,16 L4,5 C4,4.44771525 4.44771525,4 5,4 L15,4 Z M15,5 L5,5 L5,16 L15,16 L15,5 Z M12.5,13 C12.7761424,13 13,13.2238576 13,13.5 C13,13.7761424 12.7761424,14 12.5,14 L7.5,14 C7.22385763,14 7,13.7761424 7,13.5 C7,13.2238576 7.22385763,13 7.5,13 L12.5,13 Z M12.5,10 C12.7761424,10 13,10.2238576 13,10.5 C13,10.7761424 12.7761424,11 12.5,11 L7.5,11 C7.22385763,11 7,10.7761424 7,10.5 C7,10.2238576 7.22385763,10 7.5,10 L12.5,10 Z M12.5,7 C12.7761424,7 13,7.22385763 13,7.5 C13,7.77614237 12.7761424,8 12.5,8 L7.5,8 C7.22385763,8 7,7.77614237 7,7.5 C7,7.22385763 7.22385763,7 7.5,7 L12.5,7 Z" id="Combined-Shape" fill="#57565F"></path>
    </g>
</svg>