<?xml version="1.0" encoding="UTF-8"?>
<svg width="20px" height="20px" viewBox="0 0 20 20" version="1.1" xmlns="http://www.w3.org/2000/svg" xmlns:xlink="http://www.w3.org/1999/xlink">
    <title>local / icon / icon_collaboration</title>
    <g id="local-/-icon-/-icon_collaboration" stroke="none" stroke-width="1" fill="none" fill-rule="evenodd">
        <path d="M7.28571429,14.7857143 C8.30011485,14.7857143 9.131595,15.5688897 9.20848336,16.563569 L9.21428571,16.7142857 L9.21428571,17.9285714 L8.21428571,17.9285714 L8.21428571,16.7142857 C8.21428571,16.238081 7.85581982,15.8456005 7.39400533,15.7919615 L7.28571429,15.7857143 L4.42857143,15.7857143 C3.95236672,15.7857143 3.55988621,16.1441802 3.50624718,16.6059947 L3.5,16.7142857 L3.5,17.9285714 L2.5,17.9285714 L2.5,16.7142857 C2.5,15.6998852 3.28317536,14.868405 4.27785471,14.7915166 L4.42857143,14.7857143 L7.28571429,14.7857143 Z M15.2857143,14.7857143 C16.3001148,14.7857143 17.131595,15.5688897 17.2084834,16.563569 L17.2142857,16.7142857 L17.2142857,17.9285714 L16.2142857,17.9285714 L16.2142857,16.7142857 C16.2142857,16.238081 15.8558198,15.8456005 15.3940053,15.7919615 L15.2857143,15.7857143 L12.4285714,15.7857143 C11.9523667,15.7857143 11.5598862,16.1441802 11.5062472,16.6059947 L11.5,16.7142857 L11.5,17.9285714 L10.5,17.9285714 L10.5,16.7142857 C10.5,15.6998852 11.2831754,14.868405 12.2778547,14.7915166 L12.4285714,14.7857143 L15.2857143,14.7857143 Z M5.85714286,10.5 C6.92226345,10.5 7.78571429,11.3634508 7.78571429,12.4285714 C7.78571429,13.493692 6.92226345,14.3571429 5.85714286,14.3571429 C4.79202227,14.3571429 3.92857143,13.493692 3.92857143,12.4285714 C3.92857143,11.3634508 4.79202227,10.5 5.85714286,10.5 Z M13.8571429,10.5 C14.9222634,10.5 15.7857143,11.3634508 15.7857143,12.4285714 C15.7857143,13.493692 14.9222634,14.3571429 13.8571429,14.3571429 C12.7920223,14.3571429 11.9285714,13.493692 11.9285714,12.4285714 C11.9285714,11.3634508 12.7920223,10.5 13.8571429,10.5 Z M5.85714286,11.5 C5.34430702,11.5 4.92857143,11.9157356 4.92857143,12.4285714 C4.92857143,12.9414073 5.34430702,13.3571429 5.85714286,13.3571429 C6.3699787,13.3571429 6.78571429,12.9414073 6.78571429,12.4285714 C6.78571429,11.9157356 6.3699787,11.5 5.85714286,11.5 Z M13.8571429,11.5 C13.344307,11.5 12.9285714,11.9157356 12.9285714,12.4285714 C12.9285714,12.9414073 13.344307,13.3571429 13.8571429,13.3571429 C14.3699787,13.3571429 14.7857143,12.9414073 14.7857143,12.4285714 C14.7857143,11.9157356 14.3699787,11.5 13.8571429,11.5 Z M15,2 C15.5522847,2 16,2.44771525 16,3 L16,8 C16,8.55228475 15.5522847,9 15,9 L12,9 L10,11 L8,9 L5,9 C4.44771525,9 4,8.55228475 4,8 L4,3 C4,2.44771525 4.44771525,2 5,2 L15,2 Z M15,3 L5,3 L5,8 L8.41421356,8 L10,9.585 L11.5857864,8 L15,8 L15,3 Z" id="Combined-Shape" fill="#57565F"></path>
    </g>
</svg>