<?xml version="1.0" encoding="UTF-8"?>
<svg width="20px" height="20px" viewBox="0 0 20 20" version="1.1" xmlns="http://www.w3.org/2000/svg" xmlns:xlink="http://www.w3.org/1999/xlink">
    <title>local / icon / icon_more-v</title>
    <g id="local-/-icon-/-icon_more-v" stroke="none" stroke-width="1" fill="none" fill-rule="evenodd">
        <path d="M10,9 C10.8284271,9 11.5,9.67157288 11.5,10.5 C11.5,11.3284271 10.8284271,12 10,12 C9.17157288,12 8.5,11.3284271 8.5,10.5 C8.5,9.67157288 9.17157288,9 10,9 Z M16,9 C16.8284271,9 17.5,9.67157288 17.5,10.5 C17.5,11.3284271 16.8284271,12 16,12 C15.1715729,12 14.5,11.3284271 14.5,10.5 C14.5,9.67157288 15.1715729,9 16,9 Z M4,9 C4.82842712,9 5.5,9.67157288 5.5,10.5 C5.5,11.3284271 4.82842712,12 4,12 C3.17157288,12 2.5,11.3284271 2.5,10.5 C2.5,9.67157288 3.17157288,9 4,9 Z" id="Combined-Shape" fill="#57565F" transform="translate(10.000000, 10.500000) rotate(90.000000) translate(-10.000000, -10.500000) "></path>
    </g>
</svg>