<?xml version="1.0" encoding="UTF-8"?>
<svg width="20px" height="20px" viewBox="0 0 20 20" version="1.1" xmlns="http://www.w3.org/2000/svg" xmlns:xlink="http://www.w3.org/1999/xlink">
    <title>local / icon / icon_add-outlined</title>
    <g id="local-/-icon-/-icon_add-outlined" stroke="none" stroke-width="1" fill="none" fill-rule="evenodd">
        <path d="M15,4 C15.5522847,4 16,4.44771525 16,5 L16,15 C16,15.5522847 15.5522847,16 15,16 L5,16 C4.44771525,16 4,15.5522847 4,15 L4,5 C4,4.44771525 4.44771525,4 5,4 L15,4 Z M15,5 L5,5 L5,15 L15,15 L15,5 Z M10.5,7 L10.5,9.5 L13,9.5 L13,10.5 L10.5,10.5 L10.5,13 L9.5,13 L9.5,10.5 L7,10.5 L7,9.5 L9.5,9.5 L9.5,7 L10.5,7 Z" id="Combined-Shape" fill="#57565F"></path>
    </g>
</svg>