<?xml version="1.0" encoding="UTF-8"?>
<svg width="20px" height="20px" viewBox="0 0 20 20" version="1.1" xmlns="http://www.w3.org/2000/svg" xmlns:xlink="http://www.w3.org/1999/xlink">
    <title>local / icon / icon_database</title>
    <g id="local-/-icon-/-icon_database" stroke="none" stroke-width="1" fill="none" fill-rule="evenodd">
        <path d="M10,3 C13.4347432,3 16.2934302,3.80206022 16.886921,5.09751842 L17,5.09720373 L17,15.3934754 C17,16.9882193 13.8806103,18 10,18 C6.22151104,18 3.16470557,17.0407702 3.00643775,15.5181572 L3,15.3934754 L3,5.09720373 L3.11307904,5.09751842 C3.70656979,3.80206022 6.56525679,3 10,3 Z M13.1214434,12.8625797 L12.5978462,12.9419566 C11.7954838,13.0497696 10.9190919,13.1065246 10,13.1065246 C9.08090809,13.1065246 8.20451623,13.0497696 7.40215378,12.9419566 L6.87855661,12.8625797 C5.71096906,12.6645781 4.73061947,12.3514664 4.04763222,11.9432699 L4.04845815,15.3934754 C4.04845815,16.1228634 6.69525667,16.9813582 10,16.9813582 C13.2045996,16.9813582 15.7905256,16.1741051 15.9443057,15.4601116 L15.9515419,15.3934754 L15.9522389,11.9433469 C15.2692572,12.3515058 14.2889575,12.6645906 13.1214434,12.8625797 Z M4.04845815,10.5 C4.04845815,11.229388 6.69525667,12.0878828 10,12.0878828 C13.2045996,12.0878828 15.7905256,11.2806297 15.9443057,10.5666362 L15.9515419,10.5 L15.9519409,7.04616417 C14.7171309,7.78380593 12.5127111,8.21304927 10,8.21304927 C7.48728885,8.21304927 5.28286913,7.78380593 4.04805913,7.04616417 L4.04845815,10.5 Z M10,4.01864181 C9.50177289,4.01864181 9.01789509,4.03844212 8.55545604,4.07456575 L8.55545604,4.07456575 L8.01127352,4.12552678 C5.70167413,4.3783818 4.04845815,5.03501218 4.04845815,5.60652463 C4.04845815,5.89228086 4.46176215,6.19931657 5.16376606,6.4665201 L5.16376606,6.4665201 L5.50781355,6.58679396 C6.59873187,6.9377954 8.20638239,7.19440746 10,7.19440746 C11.7936176,7.19440746 13.4012681,6.9377954 14.4921864,6.58679396 L14.4921864,6.58679396 L14.8362339,6.4665201 C15.5382379,6.19931657 15.9515419,5.89228086 15.9515419,5.60652463 C15.9515419,5.03501218 14.2983259,4.3783818 11.9887265,4.12552678 L11.9887265,4.12552678 L11.444544,4.07456575 C10.9821049,4.03844212 10.4982271,4.01864181 10,4.01864181 Z" id="Combined-Shape" fill="#706F79"></path>
    </g>
</svg>