<?xml version="1.0" encoding="UTF-8"?>
<svg width="20px" height="20px" viewBox="0 0 20 20" version="1.1" xmlns="http://www.w3.org/2000/svg" xmlns:xlink="http://www.w3.org/1999/xlink">
    <title>local/icon/icon_setting</title>
    <g id="local/icon/icon_setting" stroke="none" stroke-width="1" fill="none" fill-rule="evenodd">
        <g id="setting-two" transform="translate(1.000000, 2.000000)" fill="#57565F">
            <path d="M10.5513958,0.416777874 L10.9315382,0.516302512 C12.2033291,0.849268535 13.3683344,1.46885946 14.3330721,2.31727297 L14.3330721,2.31727297 L14.6274968,2.57619718 L14.44625,2.92387126 C14.3272808,3.15208216 14.2648352,3.40260793 14.2648352,3.66222019 C14.2648352,4.59194185 15.0740339,5.35726828 16.0823446,5.35727964 L16.0823446,5.35727964 L16.478274,5.35461125 L16.5928,5.69945915 C16.8435081,6.45436293 16.9725275,7.24538973 16.9725275,8.05231638 C16.9725275,8.58739983 16.9158029,9.11588005 16.8041825,9.63198488 L16.8041825,9.63198488 L16.7104986,10.0651556 L16.1778996,10.0178029 L16.0857143,10.0156818 C15.0740339,10.0156818 14.2648352,10.7810082 14.2648352,11.7107299 C14.2648352,12.1110171 14.4139802,12.4896857 14.6841652,12.7925533 L14.6841652,12.7925533 L15.0013171,13.1480691 L14.6615243,13.4820117 C13.6767725,14.449809 12.4450873,15.1636472 11.0828859,15.5472179 L11.0828859,15.5472179 L10.6257537,15.6759379 L10.4736896,15.2260321 C10.2382135,14.5293385 9.540787,14.0399366 8.73626374,14.0399366 C7.93174048,14.0399366 7.23431394,14.5293385 6.99883784,15.2260321 L6.99883784,15.2260321 L6.84677379,15.6759379 L6.38964157,15.5472179 C5.02744387,15.1636483 3.79575897,14.4498121 2.81099387,13.4820139 L2.81099387,13.4820139 L2.47119104,13.1480657 L2.78835633,12.792547 C3.05854627,12.4896842 3.20769231,12.1110188 3.20769231,11.7107299 C3.20769231,10.7810068 2.39849598,10.0156818 1.38681319,10.0156818 C1.32508873,10.0156818 1.26387445,10.0185175 1.20330923,10.0241459 L1.20330923,10.0241459 L0.762024988,10.0651556 L0.668341108,9.63198488 C0.556722508,9.11588847 0.5,8.58740796 0.5,8.05231638 C0.5,7.24536652 0.629015607,6.45433728 0.879725153,5.69945438 L0.879725153,5.69945438 L0.99425336,5.35461157 L1.35760894,5.35706013 L1.53697112,5.35160346 C2.47739262,5.28032478 3.20769231,4.54545709 3.20769231,3.66222019 C3.20769231,3.40260793 3.1452467,3.15208216 3.0262775,2.92387126 L3.0262775,2.92387126 L2.84503066,2.57619718 L3.13945541,2.31727297 C4.10419307,1.46885946 5.26919838,0.849268535 6.54098924,0.516302512 L6.54098924,0.516302512 L6.92113171,0.416777874 L7.10768631,0.762625863 C7.41364665,1.3298366 8.03758218,1.69885844 8.73626374,1.69885844 C9.43494529,1.69885844 10.0588808,1.3298366 10.3648412,0.762625863 L10.3648412,0.762625863 L10.5513958,0.416777874 Z M11.021,1.582 L10.9260002,1.70352001 C10.3991502,2.32297946 9.60140644,2.69885844 8.73626374,2.69885844 C7.87112103,2.69885844 7.07337731,2.32297946 6.54652729,1.70352001 L6.54652729,1.70352001 L6.45,1.582 L6.1337462,1.6896168 C5.48600205,1.92494073 4.87854937,2.24723404 4.32918373,2.64529667 L4.32918373,2.64529667 L4.073,2.839 C4.14056507,3.03990912 4.18241685,3.24400115 4.19925003,3.45244569 L4.19925003,3.45244569 L4.20769231,3.66222019 C4.20769231,4.99098145 3.20503264,6.08692119 1.88991249,6.31405092 L1.88991249,6.31405092 L1.731,6.336 C1.60784013,6.78633319 1.53397512,7.24125582 1.50927644,7.70393132 L1.50927644,7.70393132 L1.5,8.05231638 C1.5,8.28425805 1.51227929,8.51463439 1.53663687,8.74287228 L1.53663687,8.74287228 L1.574,9.021 L1.72661965,9.03506998 C3.06401225,9.18870338 4.12016762,10.237638 4.20252022,11.5458933 L4.20252022,11.5458933 L4.20769231,11.7107299 C4.20769231,12.1439609 4.10013372,12.5614507 3.90068926,12.934826 L3.90068926,12.934826 L3.827,13.058 L3.96204108,13.1748793 C4.5852718,13.6908609 5.29829767,14.1032663 6.07071192,14.3917964 L6.07071192,14.3917964 L6.254,14.456 L6.27942113,14.4090918 C6.74012508,13.6299845 7.58654712,13.1083444 8.54348431,13.0461827 L8.54348431,13.0461827 L8.73626374,13.0399366 C9.77140977,13.0399366 10.7016888,13.5780441 11.1931063,14.4090918 L11.1931063,14.4090918 L11.218,14.455 L11.4018163,14.3917961 C12.1742311,14.1032656 12.8872551,13.6908602 13.5104788,13.17488 L13.5104788,13.17488 L13.644,13.058 L13.571831,12.9348189 C13.4056316,12.6236731 13.3032396,12.2818938 13.2737256,11.9259003 L13.2737256,11.9259003 L13.2648352,11.7107299 C13.2648352,10.3266046 14.3527928,9.19510493 15.7459083,9.03507 L15.7459083,9.03507 L15.898,9.021 L15.9358894,8.74286511 C15.9480686,8.62874618 15.9572281,8.51409323 15.9633428,8.3989779 L15.9633428,8.3989779 L15.9725275,8.05231638 C15.9725275,7.5860809 15.9228974,7.12638379 15.8254872,6.67803918 L15.8254872,6.67803918 L15.741,6.336 L15.5802493,6.31405885 C14.3221949,6.09638504 13.3489287,5.08080049 13.2700073,3.82705661 L13.2700073,3.82705661 L13.2648352,3.66222019 C13.2648352,3.38090873 13.3101346,3.10540113 13.399,2.839 L13.399,2.839 L13.1433437,2.64529667 C12.5939781,2.24723404 11.9865254,1.92494073 11.3387813,1.6896168 L11.3387813,1.6896168 L11.021,1.582 Z M8.81318681,4.5 C10.6430121,4.5 12.1263736,5.98336155 12.1263736,7.81318681 C12.1263736,9.64301208 10.6430121,11.1263736 8.81318681,11.1263736 C6.98336155,11.1263736 5.5,9.64301208 5.5,7.81318681 C5.5,5.98336155 6.98336155,4.5 8.81318681,4.5 Z M8.81318681,5.5 C7.5356463,5.5 6.5,6.5356463 6.5,7.81318681 C6.5,9.09072733 7.5356463,10.1263736 8.81318681,10.1263736 C10.0907273,10.1263736 11.1263736,9.09072733 11.1263736,7.81318681 C11.1263736,6.5356463 10.0907273,5.5 8.81318681,5.5 Z" id="Combined-Shape"></path>
        </g>
    </g>
</svg>