<?xml version="1.0" encoding="UTF-8"?>
<svg width="20px" height="20px" viewBox="0 0 20 20" version="1.1" xmlns="http://www.w3.org/2000/svg" xmlns:xlink="http://www.w3.org/1999/xlink">
    <title>local / icon / icon_nav-showless</title>
    <g id="local-/-icon-/-icon_nav-showless" stroke="none" stroke-width="1" fill="none" fill-rule="evenodd">
        <rect id="Rectangle" fill="#FFFFFF" opacity="0.119999997" x="0" y="0" width="20" height="20" rx="2"></rect>
        <path d="M6.5,6 C6.74545989,6 6.94960837,6.17687516 6.99194433,6.41012437 L7,6.5 L7,13.5 L6.99194433,13.5898756 C6.94960837,13.8231248 6.74545989,14 6.5,14 C6.25454011,14 6.05039163,13.8231248 6.00805567,13.5898756 L6,13.5 L6,6.5 L6.00805567,6.41012437 C6.05039163,6.17687516 6.25454011,6 6.5,6 Z M13.8535534,6.64644661 C14.0271197,6.82001296 14.0464049,7.08943736 13.9114088,7.2843055 L13.8535534,7.35355339 L11.207,10 L13.8535534,12.6464466 C14.0271197,12.820013 14.0464049,13.0894374 13.9114088,13.2843055 L13.8535534,13.3535534 C13.679987,13.5271197 13.4105626,13.5464049 13.2156945,13.4114088 L13.1464466,13.3535534 L10.1464466,10.3535534 C9.97288026,10.179987 9.95359511,9.91056264 10.0885912,9.7156945 L10.1464466,9.64644661 L13.1464466,6.64644661 C13.3417088,6.45118446 13.6582912,6.45118446 13.8535534,6.64644661 Z" id="Shape" fill="#FFFFFF"></path>
    </g>
</svg>