<?xml version="1.0" encoding="UTF-8"?>
<svg width="108px" height="23px" viewBox="0 0 108 23" version="1.1" xmlns="http://www.w3.org/2000/svg" xmlns:xlink="http://www.w3.org/1999/xlink">
    <title>local/logo</title>
    <g id="local/logo" stroke="none" stroke-width="1" fill="none" fill-rule="evenodd">
        <g id="Group" transform="translate(1.640000, 2.000000)">
            <path d="M55.7,6 L55.7,6.48 L55.8422222,6.37925926 C56.2333333,6.12641975 56.7192593,6 57.3,6 L57.3,6 L58.02,6 L58.2852071,6.00443787 C59.323787,6.03994083 60.0953846,6.28846154 60.6,6.75 C61.1466667,7.25 61.42,8.06666667 61.42,9.2 L61.42,9.2 L61.42,12.8 L61.4150888,13.0530178 C61.3757988,14.0433136 61.1007692,14.7723077 60.59,15.24 C60.0366667,15.7466667 59.18,16 58.02,16 L58.02,16 L55.8,16 L55.8,19.4 L54.1,19.4 L54.1,6 L55.7,6 Z M94.36,0 C94.9122847,-1.01453063e-16 95.36,0.44771525 95.36,1 L95.36,17 C95.36,17.5522847 94.9122847,18 94.36,18 L86.36,18 C85.8077153,18 85.36,17.5522847 85.36,17 L85.36,1 C85.36,0.44771525 85.8077153,1.01453063e-16 86.36,0 L94.36,0 Z M90.8,2 L86.16,2 L86.16,3.5 L89.1,3.5 L89.1,14 C89.1,14.6933333 89.27,15.2 89.61,15.52 C89.9075,15.8 90.2483854,15.9575 90.6326562,15.9925 L90.8,16 L94.16,16 L94.16,14.5 L91.5,14.5 C91.2466667,14.5 91.0666667,14.4533333 90.96,14.36 C90.8746667,14.2853333 90.8234667,14.1722667 90.8064,14.0208 L90.8,13.9 L90.8,2 Z M3.88,2 L4.15171598,2.00431953 C5.21775148,2.03887574 6.03384615,2.28076923 6.6,2.73 C7.21333333,3.21666667 7.52,4.01333333 7.52,5.12 L7.52,5.12 L7.52,12.84 L7.51532544,13.0986982 C7.47792899,14.1098225 7.21615385,14.8369231 6.73,15.28 C6.20333333,15.76 5.33333333,16 4.12,16 L4.12,16 L-1.3500312e-13,16 L-1.3500312e-13,2 L3.88,2 Z M14.2,6 L14.4623077,6.00449704 C15.49,6.04047337 16.2592308,6.29230769 16.77,6.76 C17.3233333,7.26666667 17.6,8.08 17.6,9.2 L17.6,9.2 L17.6,14 L17.6063889,14.0958333 C17.6276852,14.2486111 17.7022222,14.3666667 17.83,14.45 C17.9833333,14.55 18.24,14.6 18.6,14.6 L18.6,14.6 L18.6,16 L17.5,16 L17.394,15.9936 C17.25,15.9765333 17.0953333,15.9253333 16.93,15.84 C16.7233333,15.7333333 16.5466667,15.5866667 16.4,15.4 C16.0933333,15.8 15.6866667,16 15.18,16 L15.18,16 L13.4,16 L13.1524306,15.9957639 C12.2658102,15.9646991 11.6116667,15.7627778 11.19,15.39 C10.73,14.9833333 10.5,14.2866667 10.5,13.3 L10.5,13.3 L10.5,12.9 L10.5037245,12.6825255 C10.5707653,10.7608418 11.5428571,9.8 13.42,9.8 L13.42,9.8 L15.9,9.8 L15.9,8.8 L15.8940625,8.649375 C15.8663542,8.308125 15.7416667,8.03833333 15.52,7.84 C15.2666667,7.61333333 14.8933333,7.5 14.4,7.5 L14.4,7.5 L11.3,7.5 L11.3,6 L14.2,6 Z M25.7,3.6 L25.7,6 L28.62,6 L28.62,7.5 L25.7,7.5 L25.7,13.7 L25.7061111,13.8394444 C25.7264815,14.0598148 25.7977778,14.22 25.92,14.32 C26.0666667,14.44 26.2933333,14.5 26.6,14.5 L26.6,14.5 L28.62,14.5 L28.62,16 L26.1,16 L25.9008,15.9934 C25.3176,15.9538 24.864,15.736 24.54,15.34 C24.18,14.9 24,14.32 24,13.6 L24,13.6 L24,7.5 L22.1,7.5 L22.1,6 L24,6 L24,3.6 L25.7,3.6 Z M35.8,6 L36.0623077,6.00449704 C37.09,6.04047337 37.8592308,6.29230769 38.37,6.76 C38.9233333,7.26666667 39.2,8.08 39.2,9.2 L39.2,9.2 L39.2,14 L39.2063889,14.0958333 C39.2276852,14.2486111 39.3022222,14.3666667 39.43,14.45 C39.5833333,14.55 39.84,14.6 40.2,14.6 L40.2,14.6 L40.2,16 L39.1,16 L38.994,15.9936 C38.85,15.9765333 38.6953333,15.9253333 38.53,15.84 C38.3233333,15.7333333 38.1466667,15.5866667 38,15.4 C37.6933333,15.8 37.2866667,16 36.78,16 L36.78,16 L35,16 L34.7524306,15.9957639 C33.8658102,15.9646991 33.2116667,15.7627778 32.79,15.39 C32.33,14.9833333 32.1,14.2866667 32.1,13.3 L32.1,13.3 L32.1,12.9 L32.1037245,12.6825255 C32.1707653,10.7608418 33.1428571,9.8 35.02,9.8 L35.02,9.8 L37.5,9.8 L37.5,8.8 L37.4940625,8.649375 C37.4663542,8.308125 37.3416667,8.03833333 37.12,7.84 C36.8666667,7.61333333 36.4933333,7.5 36,7.5 L36,7.5 L32.9,7.5 L32.9,6 L35.8,6 Z M50.02,2 L50.02,3.52 L46.96,3.52 L46.779375,3.526875 C46.368125,3.55895833 46.0283333,3.70333333 45.76,3.96 C45.4533333,4.25333333 45.3,4.60666667 45.3,5.02 L45.3,5.02 L45.3,6.54 L45.3081633,6.71285714 C45.3408163,7.05 45.4714286,7.33571429 45.7,7.57 C45.9666667,7.84333333 46.3133333,7.98 46.74,7.98 L46.74,7.98 L47.34,7.98 L47.5722917,7.98569444 C48.4079861,8.0274537 49.0672222,8.29888889 49.55,8.8 C50.0766667,9.34666667 50.34,10.1733333 50.34,11.28 L50.34,11.28 L50.34,12.6 L50.334497,12.8565089 C50.2904734,13.862426 49.9823077,14.6269231 49.41,15.15 C48.79,15.7166667 47.9,16 46.74,16 L46.74,16 L43.9,16 L43.9,14.48 L46.94,14.48 L47.120625,14.473125 C47.531875,14.4410417 47.8716667,14.2966667 48.14,14.04 C48.4466667,13.7466667 48.6,13.3933333 48.6,12.98 L48.6,12.98 L48.6,10.9 L48.5936735,10.7332653 C48.5683673,10.4091837 48.4671429,10.1414286 48.29,9.93 C48.0833333,9.68333333 47.7733333,9.56 47.36,9.56 L47.36,9.56 L46.76,9.56 L46.5176389,9.55395833 C45.6447685,9.50965278 44.9455556,9.22166667 44.42,8.69 C43.8466667,8.11 43.56,7.26666667 43.56,6.16 L43.56,6.16 L43.56,5.4 L43.565503,5.14349112 C43.6095266,4.13757396 43.9176923,3.37307692 44.49,2.85 C45.11,2.28333333 46,2 47.16,2 L47.16,2 L50.02,2 Z M69.18,6 L69.411875,6.00548611 C70.2445139,6.04571759 70.8838889,6.30722222 71.33,6.79 C71.8166667,7.31666667 72.06,8.08666667 72.06,9.1 L72.06,9.1 L72.06,11.7 L66.74,11.7 L66.74,13.2 L66.7459375,13.350625 C66.7736458,13.691875 66.8983333,13.9616667 67.12,14.16 C67.3733333,14.3866667 67.7466667,14.5 68.24,14.5 L68.24,14.5 L71.42,14.5 L71.42,16 L68.44,16 L68.1747929,15.9955621 C67.136213,15.9600592 66.3646154,15.7115385 65.86,15.25 C65.3133333,14.75 65.04,13.9333333 65.04,12.8 L65.04,12.8 L65.04,9.2 L65.0443787,8.94118343 C65.0794083,7.92911243 65.3246154,7.19538462 65.78,6.74 C66.2733333,6.24666667 67.0933333,6 68.24,6 L68.24,6 L69.18,6 Z M80,2 L80,13.9 L80.0064,14.0208 C80.0234667,14.1722667 80.0746667,14.2853333 80.16,14.36 C80.2666667,14.4533333 80.4466667,14.5 80.7,14.5 L80.7,14.5 L83.36,14.5 L83.36,16 L80,16 L79.8326562,15.9925 C79.4483854,15.9575 79.1075,15.8 78.81,15.52 C78.47,15.2 78.3,14.6933333 78.3,14 L78.3,14 L78.3,3.5 L75.36,3.5 L75.36,2 L80,2 Z M4.32,3.5 L1.74,3.5 L1.74,14.5 L4.3,14.5 C4.80666667,14.5 5.18,14.3833333 5.42,14.15 C5.66,13.9166667 5.78,13.5466667 5.78,13.04 L5.78,13.04 L5.78,4.94 L5.77375,4.77921875 C5.74458333,4.41390625 5.61333333,4.1175 5.38,3.89 C5.11333333,3.63 4.76,3.5 4.32,3.5 L4.32,3.5 Z M15.9,11.3 L13.4,11.3 L13.255102,11.3069388 C12.9726531,11.3346939 12.7342857,11.4457143 12.54,11.64 C12.3133333,11.8666667 12.2,12.1533333 12.2,12.5 L12.2,12.5 L12.2,13.5 L12.204898,13.6428571 C12.2244898,13.9171429 12.3028571,14.1228571 12.44,14.26 C12.6,14.42 12.8533333,14.5 13.2,14.5 L13.2,14.5 L14.98,14.5 C15.38,14.5 15.6333333,14.4066667 15.74,14.22 C15.8466667,14.0333333 15.9,13.7933333 15.9,13.5 L15.9,13.5 L15.9,11.3 Z M37.5,11.3 L35,11.3 L34.855102,11.3069388 C34.5726531,11.3346939 34.3342857,11.4457143 34.14,11.64 C33.9133333,11.8666667 33.8,12.1533333 33.8,12.5 L33.8,12.5 L33.8,13.5 L33.804898,13.6428571 C33.8244898,13.9171429 33.9028571,14.1228571 34.04,14.26 C34.2,14.42 34.4533333,14.5 34.8,14.5 L34.8,14.5 L36.58,14.5 C36.98,14.5 37.2333333,14.4066667 37.34,14.22 C37.4466667,14.0333333 37.5,13.7933333 37.5,13.5 L37.5,13.5 L37.5,11.3 Z M58.22,7.5 L57.1,7.5 L56.9403125,7.50546875 C56.5801042,7.53098958 56.3066667,7.64583333 56.12,7.85 C55.9066667,8.08333333 55.8,8.33333333 55.8,8.6 L55.8,8.6 L55.8,14.5 L58.22,14.5 C58.7133333,14.5 59.0866667,14.3866667 59.34,14.16 C59.5933333,13.9333333 59.72,13.6133333 59.72,13.2 L59.72,13.2 L59.72,8.8 L59.7140625,8.649375 C59.6863542,8.308125 59.5616667,8.03833333 59.34,7.84 C59.0866667,7.61333333 58.7133333,7.5 58.22,7.5 L58.22,7.5 Z M69.2,7.5 L68.04,7.5 L67.8667187,7.50515625 C67.4780729,7.52921875 67.1991667,7.6375 67.03,7.83 C66.8366667,8.05 66.74,8.37333333 66.74,8.8 L66.74,8.8 L66.74,10.2 L70.4,10.2 L70.4,8.7 L70.3930612,8.55510204 C70.3653061,8.27265306 70.2542857,8.03428571 70.06,7.84 C69.8333333,7.61333333 69.5466667,7.5 69.2,7.5 L69.2,7.5 Z" id="Combined-Shape" fill="#25232D"></path>
            <rect id="Rectangle" fill="#7163C5" x="96.36" y="16" width="10" height="3"></rect>
        </g>
    </g>
</svg>