<?xml version="1.0" encoding="UTF-8"?>
<svg width="108px" height="22px" viewBox="0 0 108 22" version="1.1" xmlns="http://www.w3.org/2000/svg" xmlns:xlink="http://www.w3.org/1999/xlink">
    <title>local/logo</title>
    <g id="local/logo" stroke="none" stroke-width="1" fill="none" fill-rule="evenodd">
        <g id="Group-2" transform="translate(1.000000, 0.000000)">
            <rect id="Rectangle" fill="#25232D" x="85" y="0" width="10" height="22"></rect>
            <g id="Group" transform="translate(0.000000, 3.000000)" fill-rule="nonzero" stroke-width="0.5">
                <path d="M4.12,14 C5.33333333,14 6.20333333,13.76 6.73,13.28 C7.25666667,12.8 7.52,11.9866667 7.52,10.84 L7.52,10.84 L7.52,3.12 C7.52,2.01333333 7.21333333,1.21666667 6.6,0.73 C5.98666667,0.243333333 5.08,0 3.88,0 L3.88,0 L7.10542736e-15,0 L7.10542736e-15,14 L4.12,14 Z M4.3,12.5 L1.74,12.5 L1.74,1.5 L4.32,1.5 C4.76,1.5 5.11333333,1.63 5.38,1.89 C5.64666667,2.15 5.78,2.5 5.78,2.94 L5.78,2.94 L5.78,11.04 C5.78,11.5466667 5.66,11.9166667 5.42,12.15 C5.18,12.3833333 4.80666667,12.5 4.3,12.5 L4.3,12.5 Z M15.18,14 C15.6866667,14 16.0933333,13.8 16.4,13.4 C16.5466667,13.5866667 16.7233333,13.7333333 16.93,13.84 C17.1366667,13.9466667 17.3266667,14 17.5,14 L17.5,14 L18.6,14 L18.6,12.6 C18.24,12.6 17.9833333,12.55 17.83,12.45 C17.6766667,12.35 17.6,12.2 17.6,12 L17.6,12 L17.6,7.2 C17.6,6.08 17.3233333,5.26666667 16.77,4.76 C16.2166667,4.25333333 15.36,4 14.2,4 L14.2,4 L11.3,4 L11.3,5.5 L14.4,5.5 C14.8933333,5.5 15.2666667,5.61333333 15.52,5.84 C15.7733333,6.06666667 15.9,6.38666667 15.9,6.8 L15.9,6.8 L15.9,7.8 L13.42,7.8 C11.4733333,7.8 10.5,8.83333333 10.5,10.9 L10.5,10.9 L10.5,11.3 C10.5,12.2866667 10.73,12.9833333 11.19,13.39 C11.65,13.7966667 12.3866667,14 13.4,14 L13.4,14 L15.18,14 Z M14.98,12.5 L13.2,12.5 C12.8533333,12.5 12.6,12.42 12.44,12.26 C12.28,12.1 12.2,11.8466667 12.2,11.5 L12.2,11.5 L12.2,10.5 C12.2,10.1533333 12.3133333,9.86666667 12.54,9.64 C12.7666667,9.41333333 13.0533333,9.3 13.4,9.3 L13.4,9.3 L15.9,9.3 L15.9,11.5 C15.9,11.7933333 15.8466667,12.0333333 15.74,12.22 C15.6333333,12.4066667 15.38,12.5 14.98,12.5 L14.98,12.5 Z M28.62,14 L28.62,12.5 L26.6,12.5 C26.2933333,12.5 26.0666667,12.44 25.92,12.32 C25.7733333,12.2 25.7,11.9933333 25.7,11.7 L25.7,11.7 L25.7,5.5 L28.62,5.5 L28.62,4 L25.7,4 L25.7,1.6 L24,1.6 L24,4 L22.1,4 L22.1,5.5 L24,5.5 L24,11.6 C24,12.32 24.18,12.9 24.54,13.34 C24.9,13.78 25.42,14 26.1,14 L26.1,14 L28.62,14 Z M36.78,14 C37.2866667,14 37.6933333,13.8 38,13.4 C38.1466667,13.5866667 38.3233333,13.7333333 38.53,13.84 C38.7366667,13.9466667 38.9266667,14 39.1,14 L39.1,14 L40.2,14 L40.2,12.6 C39.84,12.6 39.5833333,12.55 39.43,12.45 C39.2766667,12.35 39.2,12.2 39.2,12 L39.2,12 L39.2,7.2 C39.2,6.08 38.9233333,5.26666667 38.37,4.76 C37.8166667,4.25333333 36.96,4 35.8,4 L35.8,4 L32.9,4 L32.9,5.5 L36,5.5 C36.4933333,5.5 36.8666667,5.61333333 37.12,5.84 C37.3733333,6.06666667 37.5,6.38666667 37.5,6.8 L37.5,6.8 L37.5,7.8 L35.02,7.8 C33.0733333,7.8 32.1,8.83333333 32.1,10.9 L32.1,10.9 L32.1,11.3 C32.1,12.2866667 32.33,12.9833333 32.79,13.39 C33.25,13.7966667 33.9866667,14 35,14 L35,14 L36.78,14 Z M36.58,12.5 L34.8,12.5 C34.4533333,12.5 34.2,12.42 34.04,12.26 C33.88,12.1 33.8,11.8466667 33.8,11.5 L33.8,11.5 L33.8,10.5 C33.8,10.1533333 33.9133333,9.86666667 34.14,9.64 C34.3666667,9.41333333 34.6533333,9.3 35,9.3 L35,9.3 L37.5,9.3 L37.5,11.5 C37.5,11.7933333 37.4466667,12.0333333 37.34,12.22 C37.2333333,12.4066667 36.98,12.5 36.58,12.5 L36.58,12.5 Z M46.74,14 C47.9,14 48.79,13.7166667 49.41,13.15 C50.03,12.5833333 50.34,11.7333333 50.34,10.6 L50.34,10.6 L50.34,9.28 C50.34,8.17333333 50.0766667,7.34666667 49.55,6.8 C49.0233333,6.25333333 48.2866667,5.98 47.34,5.98 L47.34,5.98 L46.74,5.98 C46.3133333,5.98 45.9666667,5.84333333 45.7,5.57 C45.4333333,5.29666667 45.3,4.95333333 45.3,4.54 L45.3,4.54 L45.3,3.02 C45.3,2.60666667 45.4533333,2.25333333 45.76,1.96 C46.0666667,1.66666667 46.4666667,1.52 46.96,1.52 L46.96,1.52 L50.02,1.52 L50.02,0 L47.16,0 C46,0 45.11,0.283333333 44.49,0.85 C43.87,1.41666667 43.56,2.26666667 43.56,3.4 L43.56,3.4 L43.56,4.16 C43.56,5.26666667 43.8466667,6.11 44.42,6.69 C44.9933333,7.27 45.7733333,7.56 46.76,7.56 L46.76,7.56 L47.36,7.56 C47.7733333,7.56 48.0833333,7.68333333 48.29,7.93 C48.4966667,8.17666667 48.6,8.5 48.6,8.9 L48.6,8.9 L48.6,10.98 C48.6,11.3933333 48.4466667,11.7466667 48.14,12.04 C47.8333333,12.3333333 47.4333333,12.48 46.94,12.48 L46.94,12.48 L43.9,12.48 L43.9,14 L46.74,14 Z M55.8,17.4 L55.8,14 L58.02,14 C59.18,14 60.0366667,13.7466667 60.59,13.24 C61.1433333,12.7333333 61.42,11.92 61.42,10.8 L61.42,10.8 L61.42,7.2 C61.42,6.06666667 61.1466667,5.25 60.6,4.75 C60.0533333,4.25 59.1933333,4 58.02,4 L58.02,4 L57.3,4 C56.6466667,4 56.1133333,4.16 55.7,4.48 L55.7,4.48 L55.7,4 L54.1,4 L54.1,17.4 L55.8,17.4 Z M58.22,12.5 L55.8,12.5 L55.8,6.6 C55.8,6.33333333 55.9066667,6.08333333 56.12,5.85 C56.3333333,5.61666667 56.66,5.5 57.1,5.5 L57.1,5.5 L58.22,5.5 C58.7133333,5.5 59.0866667,5.61333333 59.34,5.84 C59.5933333,6.06666667 59.72,6.38666667 59.72,6.8 L59.72,6.8 L59.72,11.2 C59.72,11.6133333 59.5933333,11.9333333 59.34,12.16 C59.0866667,12.3866667 58.7133333,12.5 58.22,12.5 L58.22,12.5 Z M71.42,14 L71.42,12.5 L68.24,12.5 C67.7466667,12.5 67.3733333,12.3866667 67.12,12.16 C66.8666667,11.9333333 66.74,11.6133333 66.74,11.2 L66.74,11.2 L66.74,9.7 L72.06,9.7 L72.06,7.1 C72.06,6.08666667 71.8166667,5.31666667 71.33,4.79 C70.8433333,4.26333333 70.1266667,4 69.18,4 L69.18,4 L68.24,4 C67.0933333,4 66.2733333,4.24666667 65.78,4.74 C65.2866667,5.23333333 65.04,6.05333333 65.04,7.2 L65.04,7.2 L65.04,10.8 C65.04,11.9333333 65.3133333,12.75 65.86,13.25 C66.4066667,13.75 67.2666667,14 68.44,14 L68.44,14 L71.42,14 Z M70.4,8.2 L66.74,8.2 L66.74,6.8 C66.74,6.37333333 66.8366667,6.05 67.03,5.83 C67.2233333,5.61 67.56,5.5 68.04,5.5 L68.04,5.5 L69.2,5.5 C69.5466667,5.5 69.8333333,5.61333333 70.06,5.84 C70.2866667,6.06666667 70.4,6.35333333 70.4,6.7 L70.4,6.7 L70.4,8.2 Z M83.36,14 L83.36,12.5 L80.7,12.5 C80.4466667,12.5 80.2666667,12.4533333 80.16,12.36 C80.0533333,12.2666667 80,12.1133333 80,11.9 L80,11.9 L80,0 L75.36,0 L75.36,1.5 L78.3,1.5 L78.3,12 C78.3,12.6933333 78.47,13.2 78.81,13.52 C79.15,13.84 79.5466667,14 80,14 L80,14 L83.36,14 Z" id="DataSpell" stroke="#25232D" fill="#25232D"></path>
                <path d="M94.16,14 L94.16,12.5 L91.5,12.5 C91.2466667,12.5 91.0666667,12.4533333 90.96,12.36 C90.8533333,12.2666667 90.8,12.1133333 90.8,11.9 L90.8,11.9 L90.8,0 L86.16,0 L86.16,1.5 L89.1,1.5 L89.1,12 C89.1,12.6933333 89.27,13.2 89.61,13.52 C89.95,13.84 90.3466667,14 90.8,14 L90.8,14 L94.16,14 Z" id="Path" stroke="#FFFFFF" fill="#FFFFFF"></path>
            </g>
            <rect id="Rectangle" fill="#7163C5" x="97" y="19" width="10" height="3"></rect>
        </g>
    </g>
</svg>