<?xml version="1.0" encoding="UTF-8"?>
<svg width="1024px" height="1024px" viewBox="0 0 1024 1024" version="1.1" xmlns="http://www.w3.org/2000/svg" xmlns:xlink="http://www.w3.org/1999/xlink">
    <!-- Generator: Sketch 63.1 (92452) - https://sketch.com -->
    <title>icon/table copy 2</title>
    <desc>Created with Sketch.</desc>
    <g id="Symbols" stroke="none" stroke-width="1" fill="none" fill-rule="evenodd">
        <g id="icon/table-copy">
            <rect id="Rectangle" x="0" y="0" width="1024" height="1024"></rect>
            <path d="M853.726074,170.666667 C900.637468,170.666667 938.666667,208.832587 938.666667,255.746572 L938.666667,768.253428 C938.666667,815.241762 900.342938,853.333333 853.726074,853.333333 L170.273926,853.333333 C123.362532,853.333333 85.3333333,815.167413 85.3333333,768.253428 L85.3333333,255.746572 C85.3333333,208.758238 123.657062,170.666667 170.273926,170.666667 L853.726074,170.666667 Z M341.333333,341.504 L170.308056,341.532192 L170.66629,767.801141 L170.66629,767.801141 L341.333333,767.786667 L341.333333,597.333333 L170.666667,597.333333 L170.666667,512 L341.333333,512 L341.333333,341.504 Z M597.333333,597.333333 L426.666667,597.333333 L426.666667,767.786667 L597.333333,767.786667 L597.333333,597.333333 Z M852.683988,597.628722 L682.666667,597.333333 L682.666667,767.786667 L852.974723,767.801141 L852.683988,597.628722 Z M597.333333,341.504 L426.666667,341.504 L426.666667,512 L597.333333,512 L597.333333,341.504 Z M852.616489,341.532192 L682.666667,341.504 L682.666667,512 L852.645224,506.284953 L852.616489,341.532192 L852.616489,341.532192 Z" id="Shape" fill="#515664"></path>
        </g>
    </g>
</svg>