<?xml version="1.0" encoding="UTF-8"?>
<svg width="1024px" height="1024px" viewBox="0 0 1024 1024" version="1.1" xmlns="http://www.w3.org/2000/svg" xmlns:xlink="http://www.w3.org/1999/xlink">
    <!-- Generator: Sketch 63.1 (92452) - https://sketch.com -->
    <title>icon/graph-bar copy 2</title>
    <desc>Created with Sketch.</desc>
    <g id="Symbols" stroke="none" stroke-width="1" fill="none" fill-rule="evenodd">
        <g id="icon/graph-bar-copy" fill="#515664">
            <path d="M896,725.333333 L213.12381,725.333333 C189.788177,725.333333 170.666667,706.065121 170.666667,682.302711 L170.666667,256 C170.666667,232.435851 151.564149,213.333333 128,213.333333 C104.435851,213.333333 85.3333333,232.435851 85.3333333,256 L85.3333333,682.302711 C85.3333333,753.048044 142.513268,810.666667 213.12381,810.666667 L896,810.666667 C919.564149,810.666667 938.666667,791.564149 938.666667,768 C938.666667,744.435851 919.564149,725.333333 896,725.333333 Z M725.333333,298.326059 C725.333333,253.519518 759.84474,216.811018 804.257316,213.566457 L810.666667,213.333333 C857.794965,213.333333 896,251.74085 896,298.326059 L896,597.673941 C896,642.480482 861.488593,679.188982 817.076018,682.433543 L810.666667,682.666667 C763.538368,682.666667 725.333333,644.25915 725.333333,597.673941 L725.333333,298.326059 Z M554.666667,341.333333 C601.794965,341.333333 640,379.166138 640,426.585658 L640,597.414342 C640,642.357739 605.488593,679.17836 561.076018,682.432831 L554.666667,682.666667 C507.538368,682.666667 469.333333,644.833862 469.333333,597.414342 L469.333333,426.585658 C469.333333,381.642261 503.84474,344.82164 548.257316,341.567169 L554.666667,341.333333 Z M298.666667,469.333333 C345.794965,469.333333 384,507.473058 384,554.874944 L384,597.125056 C384,642.220959 349.488593,679.166523 305.076018,682.432037 L298.666667,682.666667 C251.538368,682.666667 213.333333,644.526942 213.333333,597.125056 L213.333333,554.874944 C213.333333,509.779041 247.84474,472.833477 292.257316,469.567963 L298.666667,469.333333 Z" id="Shape"></path>
        </g>
    </g>
</svg>