<?xml version="1.0" standalone="no"?><!DOCTYPE svg PUBLIC "-//W3C//DTD SVG 1.1//EN" "http://www.w3.org/Graphics/SVG/1.1/DTD/svg11.dtd"><svg t="1574131862768" class="icon" viewBox="0 0 1024 1024" version="1.1" xmlns="http://www.w3.org/2000/svg" p-id="10924" xmlns:xlink="http://www.w3.org/1999/xlink" width="200" height="200"><defs><style type="text/css"></style></defs><path d="M512 170.684c235.479 0 426.645 206.506 426.645 341.333 0 131.67-195.264 341.333-426.645 341.333-231.38 0-426.688-209.664-426.688-341.333 0-134.827 191.166-341.333 426.688-341.333z m-0.726 169.984c-94.174 0-170.76 76.544-170.76 170.666 0 94.123 76.586 170.667 170.76 170.667 94.175 0 170.76-76.544 170.76-170.667 0-94.122-76.585-170.666-170.76-170.666z m0.726 85.999c47.128 0 85.333 38.205 85.333 85.333S559.128 597.333 512 597.333 426.667 559.128 426.667 512s38.205-85.333 85.333-85.333z" p-id="10925"></path></svg>