<?xml version="1.0" standalone="no"?><!DOCTYPE svg PUBLIC "-//W3C//DTD SVG 1.1//EN" "http://www.w3.org/Graphics/SVG/1.1/DTD/svg11.dtd"><svg t="1574131898801" class="icon" viewBox="0 0 1024 1024" version="1.1" xmlns="http://www.w3.org/2000/svg" p-id="11148" xmlns:xlink="http://www.w3.org/1999/xlink" width="200" height="200"><defs><style type="text/css"></style></defs><path d="M512.026 768c-193.577 0-341.3-181.76-341.3-256 0-85.376 147.552-256 341.3-256 186.745 0 341.256 169.515 341.256 256 0 74.24-147.723 256-341.256 256m0-597.333C276.48 170.667 85.338 377.216 85.338 512c0 131.67 195.284 341.333 426.688 341.333C743.429 853.333 938.67 643.67 938.67 512c0-134.784-191.1-341.333-426.645-341.333m-0.986 426c-47.061 0-85.333-38.271-85.333-85.333 0-47.06 38.272-85.333 85.333-85.333s85.333 38.272 85.333 85.333c0 47.062-38.272 85.334-85.333 85.334m0-256c-94.123 0-170.667 76.544-170.667 170.666 0 94.123 76.544 170.667 170.667 170.667s170.667-76.544 170.667-170.667c0-94.122-76.544-170.666-170.667-170.666" p-id="11149"></path></svg>